<svg xmlns="http://www.w3.org/2000/svg" xmlns:xlink="http://www.w3.org/1999/xlink" viewBox="0 0 53.7 39.79"><defs><clipPath id="clip-path" transform="translate(0 0)"><rect width="53.7" height="39.79" style="fill:none"/></clipPath><clipPath id="clip-path-2" transform="translate(0 0)"><rect width="53.7" height="39.79" style="fill:none"/></clipPath></defs><title>all_data</title><g id="Layer_2" data-name="Layer 2"><g id="Layer_1-2" data-name="Layer 1"><g id="all_data"><g style="clip-path:url(#clip-path)"><g style="clip-path:url(#clip-path-2)"><path d="M51.5,30.7a2.42,2.42,0,0,1-2.42-2.42V9.47a7.26,7.26,0,0,0-7.25-7.25H39.46v1h2.38a6.25,6.25,0,0,1,6.25,6.25V28.28A3.42,3.42,0,0,0,51.5,31.7h2.2v-1Z" transform="translate(0 0)" style="fill:#d04f48"/><path d="M51.39,31.73a3.35,3.35,0,0,1-3.34-3.35V9.66a6.35,6.35,0,0,0-6.35-6.35H39.44v1h2.27a5.34,5.34,0,0,1,5.35,5.35V28.38a4.34,4.34,0,0,0,4.34,4.35h2.29v-1Z" transform="translate(0 0)" style="fill:#f1c849"/><path d="M51.35,32.75A4.32,4.32,0,0,1,47,28.42V9.66a5.33,5.33,0,0,0-5.33-5.33h-2.3v1h2.3A4.33,4.33,0,0,1,46,9.66V28.42a5.32,5.32,0,0,0,5.32,5.33h2.3v-1Z" transform="translate(0 0)" style="fill:#10967b"/><path d="M51.23,34.8A6.25,6.25,0,0,1,45,28.55V9.8a3.42,3.42,0,0,0-3.42-3.42H39.36v1h2.21A2.43,2.43,0,0,1,44,9.8V28.55a7.24,7.24,0,0,0,7.25,7.25H53.6v-1Z" transform="translate(0 0)" style="fill:#00a1cb"/><path d="M51.35,33.78A5.36,5.36,0,0,1,46,28.42V9.7a4.34,4.34,0,0,0-4.34-4.34H39.39v1h2.28A3.34,3.34,0,0,1,45,9.7V28.42a6.35,6.35,0,0,0,6.35,6.36h2.28v-1Z" transform="translate(0 0)" style="fill:#3b589f"/><rect x="50.73" y="30.24" width="2.97" height="5.98" style="fill:#3a5665"/><rect x="53.01" y="30.73" width="0.69" height="0.82" style="fill:#608ea6"/><rect x="53.01" y="31.77" width="0.69" height="0.82" style="fill:#608ea6"/><rect x="53.01" y="32.82" width="0.69" height="0.82" style="fill:#608ea6"/><rect x="53.01" y="33.87" width="0.69" height="0.82" style="fill:#608ea6"/><rect x="53.01" y="34.91" width="0.69" height="0.82" style="fill:#608ea6"/><path d="M45.77,28.17s-12.88-.81-22.25-.81-22.24.81-22.24.81A1.24,1.24,0,0,0,0,29.39v8.38A1.24,1.24,0,0,0,1.28,39s12.88.81,22.24.81S45.77,39,45.77,39a1.25,1.25,0,0,0,1.28-1.21V29.39a1.25,1.25,0,0,0-1.28-1.22" transform="translate(0 0)" style="fill:#a7a9ac"/><path d="M45.77,27.16s-12.88-.82-22.25-.82-22.24.82-22.24.82A1.24,1.24,0,0,0,0,28.37v8.38A1.24,1.24,0,0,0,1.28,38s12.88.82,22.24.82S45.77,38,45.77,38a1.25,1.25,0,0,0,1.28-1.21V28.37a1.25,1.25,0,0,0-1.28-1.21" transform="translate(0 0)" style="fill:#d1d3d4"/><path d="M45.77,14s-12.88-.81-22.25-.81S1.28,14,1.28,14A1.25,1.25,0,0,0,0,15.2v8.38a1.24,1.24,0,0,0,1.28,1.21s12.88.82,22.24.82,22.25-.82,22.25-.82a1.25,1.25,0,0,0,1.28-1.21V15.2A1.26,1.26,0,0,0,45.77,14" transform="translate(0 0)" style="fill:#d1d3d4"/><path d="M45.77.81S32.89,0,23.52,0,1.28.81,1.28.81A1.24,1.24,0,0,0,0,2v8.38a1.24,1.24,0,0,0,1.28,1.21s12.88.82,22.24.82,22.25-.82,22.25-.82a1.25,1.25,0,0,0,1.28-1.21V2A1.25,1.25,0,0,0,45.77.81" transform="translate(0 0)" style="fill:#d1d3d4"/><polygon points="9.43 29.73 3.44 35.31 5.06 35.31 11.05 29.73 9.43 29.73" style="fill:#a3a5a8"/><polygon points="12.12 29.73 6.13 35.31 7.75 35.31 13.74 29.73 12.12 29.73" style="fill:#a3a5a8"/><polygon points="14.82 29.73 8.83 35.31 10.45 35.31 16.44 29.73 14.82 29.73" style="fill:#a3a5a8"/><polygon points="17.52 29.73 11.53 35.31 13.15 35.31 19.14 29.73 17.52 29.73" style="fill:#a3a5a8"/><polygon points="20.21 29.73 14.22 35.31 15.84 35.31 21.83 29.73 20.21 29.73" style="fill:#a3a5a8"/><polygon points="22.91 29.73 16.92 35.31 18.54 35.31 24.53 29.73 22.91 29.73" style="fill:#a3a5a8"/><polygon points="25.6 29.73 19.61 35.31 21.23 35.31 27.22 29.73 25.6 29.73" style="fill:#a3a5a8"/><polygon points="28.3 29.73 22.31 35.31 23.93 35.31 29.92 29.73 28.3 29.73" style="fill:#a3a5a8"/><polygon points="31 29.73 25.01 35.31 26.63 35.31 32.62 29.73 31 29.73" style="fill:#a3a5a8"/><polygon points="4.03 29.73 3.44 30.29 3.44 31.8 3.8 31.8 5.65 29.73 4.03 29.73" style="fill:#a3a5a8"/><polygon points="6.73 29.73 3.44 32.8 3.44 34.31 3.8 34.31 8.35 29.73 6.73 29.73" style="fill:#a3a5a8"/><polygon points="32.29 35.38 32.89 34.83 33.27 33.32 32.89 33.32 30.67 35.38 32.29 35.38" style="fill:#a3a5a8"/><polygon points="27.97 35.38 29.59 35.38 32.89 32.32 33.27 30.81 32.89 30.81 27.97 35.38" style="fill:#a3a5a8"/><polygon points="9.81 29.73 3.82 35.31 5.44 35.31 11.43 29.73 9.81 29.73" style="fill:#bcbec0"/><polygon points="12.51 29.73 6.52 35.31 8.14 35.31 14.13 29.73 12.51 29.73" style="fill:#bcbec0"/><polygon points="15.21 29.73 9.21 35.31 10.84 35.31 16.82 29.73 15.21 29.73" style="fill:#bcbec0"/><polygon points="17.9 29.73 11.91 35.31 13.53 35.31 19.52 29.73 17.9 29.73" style="fill:#bcbec0"/><polygon points="20.6 29.73 14.61 35.31 16.23 35.31 22.22 29.73 20.6 29.73" style="fill:#bcbec0"/><polygon points="23.29 29.73 17.3 35.31 18.92 35.31 24.91 29.73 23.29 29.73" style="fill:#bcbec0"/><polygon points="25.99 29.73 20 35.31 21.62 35.31 27.61 29.73 25.99 29.73" style="fill:#bcbec0"/><polygon points="28.69 29.73 22.7 35.31 24.32 35.31 30.31 29.73 28.69 29.73" style="fill:#bcbec0"/><polygon points="31.38 29.73 25.39 35.31 27.01 35.31 33 29.73 31.38 29.73" style="fill:#bcbec0"/><polygon points="4.42 29.73 3.82 30.29 3.82 31.8 6.04 29.73 4.42 29.73" style="fill:#bcbec0"/><polygon points="7.12 29.73 3.82 32.8 3.82 34.31 8.74 29.73 7.12 29.73" style="fill:#bcbec0"/><polygon points="32.67 35.38 33.27 34.83 33.27 33.32 31.05 35.38 32.67 35.38" style="fill:#bcbec0"/><polygon points="28.36 35.38 29.98 35.38 33.27 32.32 33.27 30.81 28.36 35.38" style="fill:#bcbec0"/><path d="M2.64,28.91a.76.76,0,1,1-1.52,0,.76.76,0,0,1,1.52,0" transform="translate(0 0)" style="fill:#c4c6c8"/><path d="M2.54,28.74A.77.77,0,1,1,1.77,28a.76.76,0,0,1,.77.76" transform="translate(0 0)" style="fill:#344e5c"/><path d="M2.64,36.28a.76.76,0,1,1-.76-.76.76.76,0,0,1,.76.76" transform="translate(0 0)" style="fill:#c4c6c8"/><path d="M2.54,36.11a.77.77,0,0,1-.77.76A.76.76,0,0,1,1,36.11a.77.77,0,0,1,.76-.77.78.78,0,0,1,.77.77" transform="translate(0 0)" style="fill:#344e5c"/><polygon points="9.43 16.56 3.44 22.14 5.06 22.14 11.05 16.56 9.43 16.56" style="fill:#a3a5a8"/><polygon points="12.12 16.56 6.13 22.14 7.75 22.14 13.74 16.56 12.12 16.56" style="fill:#a3a5a8"/><polygon points="14.82 16.56 8.83 22.14 10.45 22.14 16.44 16.56 14.82 16.56" style="fill:#a3a5a8"/><polygon points="17.52 16.56 11.53 22.14 13.15 22.14 19.14 16.56 17.52 16.56" style="fill:#a3a5a8"/><polygon points="20.21 16.56 14.22 22.14 15.84 22.14 21.83 16.56 20.21 16.56" style="fill:#a3a5a8"/><polygon points="22.91 16.56 16.92 22.14 18.54 22.14 24.53 16.56 22.91 16.56" style="fill:#a3a5a8"/><polygon points="25.6 16.56 19.61 22.14 21.23 22.14 27.22 16.56 25.6 16.56" style="fill:#a3a5a8"/><polygon points="28.3 16.56 22.31 22.14 23.93 22.14 29.92 16.56 28.3 16.56" style="fill:#a3a5a8"/><polygon points="31 16.56 25.01 22.14 26.63 22.14 32.62 16.56 31 16.56" style="fill:#a3a5a8"/><polygon points="4.03 16.56 3.44 17.12 3.44 18.63 3.8 18.63 5.65 16.56 4.03 16.56" style="fill:#a3a5a8"/><polygon points="6.73 16.56 3.44 19.63 3.44 21.14 3.8 21.14 8.35 16.56 6.73 16.56" style="fill:#a3a5a8"/><polygon points="32.29 22.21 32.89 21.66 33.27 20.15 32.89 20.15 30.67 22.21 32.29 22.21" style="fill:#a3a5a8"/><polygon points="27.97 22.21 29.59 22.21 32.89 19.15 33.27 17.64 32.89 17.64 27.97 22.21" style="fill:#a3a5a8"/><polygon points="9.81 16.56 3.82 22.14 5.44 22.14 11.43 16.56 9.81 16.56" style="fill:#bcbec0"/><polygon points="12.51 16.56 6.52 22.14 8.14 22.14 14.13 16.56 12.51 16.56" style="fill:#bcbec0"/><polygon points="15.21 16.56 9.21 22.14 10.84 22.14 16.82 16.56 15.21 16.56" style="fill:#bcbec0"/><polygon points="17.9 16.56 11.91 22.14 13.53 22.14 19.52 16.56 17.9 16.56" style="fill:#bcbec0"/><polygon points="20.6 16.56 14.61 22.14 16.23 22.14 22.22 16.56 20.6 16.56" style="fill:#bcbec0"/><polygon points="23.29 16.56 17.3 22.14 18.92 22.14 24.91 16.56 23.29 16.56" style="fill:#bcbec0"/><polygon points="25.99 16.56 20 22.14 21.62 22.14 27.61 16.56 25.99 16.56" style="fill:#bcbec0"/><polygon points="28.69 16.56 22.7 22.14 24.32 22.14 30.31 16.56 28.69 16.56" style="fill:#bcbec0"/><polygon points="31.38 16.56 25.39 22.14 27.01 22.14 33 16.56 31.38 16.56" style="fill:#bcbec0"/><polygon points="4.42 16.56 3.82 17.12 3.82 18.63 6.04 16.56 4.42 16.56" style="fill:#bcbec0"/><polygon points="7.12 16.56 3.82 19.63 3.82 21.14 8.74 16.56 7.12 16.56" style="fill:#bcbec0"/><polygon points="32.67 22.21 33.27 21.66 33.27 20.15 31.05 22.21 32.67 22.21" style="fill:#bcbec0"/><polygon points="28.36 22.21 29.98 22.21 33.27 19.15 33.27 17.64 28.36 22.21" style="fill:#bcbec0"/><path d="M2.64,15.74A.76.76,0,1,1,1.88,15a.76.76,0,0,1,.76.76" transform="translate(0 0)" style="fill:#c4c6c8"/><path d="M2.54,15.57a.77.77,0,0,1-.77.76.76.76,0,1,1,.77-.76" transform="translate(0 0)" style="fill:#344e5c"/><path d="M2.64,23.11a.76.76,0,1,1-1.52,0,.76.76,0,1,1,1.52,0" transform="translate(0 0)" style="fill:#c4c6c8"/><path d="M2.54,22.94a.77.77,0,0,1-.77.76.77.77,0,0,1,0-1.53.77.77,0,0,1,.77.77" transform="translate(0 0)" style="fill:#344e5c"/><polygon points="9.43 3.39 3.44 8.97 5.06 8.97 11.05 3.39 9.43 3.39" style="fill:#a3a5a8"/><polygon points="12.12 3.39 6.13 8.97 7.75 8.97 13.74 3.39 12.12 3.39" style="fill:#a3a5a8"/><polygon points="14.82 3.39 8.83 8.97 10.45 8.97 16.44 3.39 14.82 3.39" style="fill:#a3a5a8"/><polygon points="17.52 3.39 11.53 8.97 13.15 8.97 19.14 3.39 17.52 3.39" style="fill:#a3a5a8"/><polygon points="20.21 3.39 14.22 8.97 15.84 8.97 21.83 3.39 20.21 3.39" style="fill:#a3a5a8"/><polygon points="22.91 3.39 16.92 8.97 18.54 8.97 24.53 3.39 22.91 3.39" style="fill:#a3a5a8"/><polygon points="25.6 3.39 19.61 8.97 21.23 8.97 27.22 3.39 25.6 3.39" style="fill:#a3a5a8"/><polygon points="28.3 3.39 22.31 8.97 23.93 8.97 29.92 3.39 28.3 3.39" style="fill:#a3a5a8"/><polygon points="31 3.39 25.01 8.97 26.63 8.97 32.62 3.39 31 3.39" style="fill:#a3a5a8"/><polygon points="4.03 3.39 3.44 3.95 3.44 5.46 3.8 5.46 5.65 3.39 4.03 3.39" style="fill:#a3a5a8"/><polygon points="6.73 3.39 3.44 6.46 3.44 7.96 3.8 7.96 8.35 3.39 6.73 3.39" style="fill:#a3a5a8"/><polygon points="32.29 9.04 32.89 8.49 33.27 6.98 32.89 6.98 30.67 9.04 32.29 9.04" style="fill:#a3a5a8"/><polygon points="27.97 9.04 29.59 9.04 32.89 5.98 33.27 4.47 32.89 4.47 27.97 9.04" style="fill:#a3a5a8"/><polygon points="9.81 3.39 3.82 8.97 5.44 8.97 11.43 3.39 9.81 3.39" style="fill:#bcbec0"/><polygon points="12.51 3.39 6.52 8.97 8.14 8.97 14.13 3.39 12.51 3.39" style="fill:#bcbec0"/><polygon points="15.21 3.39 9.21 8.97 10.84 8.97 16.82 3.39 15.21 3.39" style="fill:#bcbec0"/><polygon points="17.9 3.39 11.91 8.97 13.53 8.97 19.52 3.39 17.9 3.39" style="fill:#bcbec0"/><polygon points="20.6 3.39 14.61 8.97 16.23 8.97 22.22 3.39 20.6 3.39" style="fill:#bcbec0"/><polygon points="23.29 3.39 17.3 8.97 18.92 8.97 24.91 3.39 23.29 3.39" style="fill:#bcbec0"/><polygon points="25.99 3.39 20 8.97 21.62 8.97 27.61 3.39 25.99 3.39" style="fill:#bcbec0"/><polygon points="28.69 3.39 22.7 8.97 24.32 8.97 30.31 3.39 28.69 3.39" style="fill:#bcbec0"/><polygon points="31.38 3.39 25.39 8.97 27.01 8.97 33 3.39 31.38 3.39" style="fill:#bcbec0"/><polygon points="4.42 3.39 3.82 3.95 3.82 5.46 6.04 3.39 4.42 3.39" style="fill:#bcbec0"/><polygon points="7.12 3.39 3.82 6.46 3.82 7.96 8.74 3.39 7.12 3.39" style="fill:#bcbec0"/><polygon points="32.67 9.04 33.27 8.49 33.27 6.98 31.05 9.04 32.67 9.04" style="fill:#bcbec0"/><polygon points="28.36 9.04 29.98 9.04 33.27 5.98 33.27 4.47 28.36 9.04" style="fill:#bcbec0"/><path d="M2.64,2.57a.76.76,0,1,1-.76-.76.76.76,0,0,1,.76.76" transform="translate(0 0)" style="fill:#c4c6c8"/><path d="M2.54,2.4a.77.77,0,0,1-.77.76.76.76,0,1,1,.77-.76" transform="translate(0 0)" style="fill:#344e5c"/><path d="M2.64,9.94a.76.76,0,0,1-1.52,0,.76.76,0,1,1,1.52,0" transform="translate(0 0)" style="fill:#c4c6c8"/><path d="M2.54,9.77A.77.77,0,0,1,1,9.76.76.76,0,0,1,1.77,9a.77.77,0,0,1,.77.77" transform="translate(0 0)" style="fill:#344e5c"/><rect x="3.44" y="11.75" width="40.49" height="2.13" style="fill:#344e5c"/><rect x="3.44" y="24.88" width="40.49" height="2.13" style="fill:#344e5c"/><path d="M46.24,28.91a.77.77,0,1,1-1.53,0,.77.77,0,0,1,1.53,0" transform="translate(0 0)" style="fill:#c4c6c8"/><path d="M46.13,28.74a.76.76,0,1,1-.76-.76.75.75,0,0,1,.76.76" transform="translate(0 0)" style="fill:#344e5c"/><path d="M46.24,36.28a.77.77,0,1,1-.77-.76.76.76,0,0,1,.77.76" transform="translate(0 0)" style="fill:#c4c6c8"/><path d="M46.13,36.11a.76.76,0,0,1-1.52,0,.76.76,0,1,1,1.52,0" transform="translate(0 0)" style="fill:#344e5c"/><path d="M46.24,15.74a.77.77,0,1,1-.77-.76.76.76,0,0,1,.77.76" transform="translate(0 0)" style="fill:#c4c6c8"/><path d="M46.13,15.57a.76.76,0,1,1-.76-.76.76.76,0,0,1,.76.76" transform="translate(0 0)" style="fill:#344e5c"/><path d="M46.24,23.11a.77.77,0,1,1-.77-.77.77.77,0,0,1,.77.77" transform="translate(0 0)" style="fill:#c4c6c8"/><path d="M46.13,22.94a.76.76,0,1,1-.76-.77.77.77,0,0,1,.76.77" transform="translate(0 0)" style="fill:#344e5c"/><path d="M46.24,2.57a.77.77,0,1,1-.77-.76.76.76,0,0,1,.77.76" transform="translate(0 0)" style="fill:#c4c6c8"/><path d="M46.13,2.4a.76.76,0,1,1-.76-.76.76.76,0,0,1,.76.76" transform="translate(0 0)" style="fill:#344e5c"/><path d="M46.24,9.94a.77.77,0,1,1-.77-.77.77.77,0,0,1,.77.77" transform="translate(0 0)" style="fill:#c4c6c8"/><path d="M46.13,9.77A.76.76,0,1,1,45.37,9a.77.77,0,0,1,.76.77" transform="translate(0 0)" style="fill:#344e5c"/><path d="M40.65,6.18a1.74,1.74,0,1,1-1.73-1.74,1.73,1.73,0,0,1,1.73,1.74" transform="translate(0 0)" style="fill:#00a1cb"/><path d="M40,5.18c0,.3-.46.54-1,.54s-1-.24-1-.54.46-.55,1-.55,1,.24,1,.55" transform="translate(0 0)" style="fill:#5fccf5"/><path d="M40,7.21c0,.3-.46.55-1,.55s-1-.25-1-.55.46-.54,1-.54,1,.24,1,.54" transform="translate(0 0)" style="fill:#008eb8"/><path d="M37.35,6.18h0a1.57,1.57,0,0,1,3.13,0h.34a1.91,1.91,0,1,0-3.81,0Z" transform="translate(0 0)" style="fill:#bcbec0"/><path d="M40.48,6.18a1.57,1.57,0,0,1-3.13,0H37a1.91,1.91,0,0,0,3.81,0Z" transform="translate(0 0)" style="fill:#e6e7e8"/><path d="M40.65,19.35a1.74,1.74,0,1,1-1.73-1.73,1.73,1.73,0,0,1,1.73,1.73" transform="translate(0 0)" style="fill:#00a1cb"/><path d="M40,18.35c0,.3-.46.54-1,.54s-1-.24-1-.54.46-.55,1-.55,1,.24,1,.55" transform="translate(0 0)" style="fill:#5fccf5"/><path d="M40,20.38c0,.3-.46.55-1,.55s-1-.25-1-.55.46-.54,1-.54,1,.24,1,.54" transform="translate(0 0)" style="fill:#008eb8"/><path d="M37.35,19.35h0a1.57,1.57,0,0,1,3.13,0h.34a1.91,1.91,0,1,0-3.81,0Z" transform="translate(0 0)" style="fill:#bcbec0"/><path d="M40.48,19.35a1.57,1.57,0,0,1-3.13,0H37a1.91,1.91,0,1,0,3.81,0Z" transform="translate(0 0)" style="fill:#e6e7e8"/><path d="M40.65,32.87a1.74,1.74,0,1,1-1.73-1.74,1.73,1.73,0,0,1,1.73,1.74" transform="translate(0 0)" style="fill:#00a1cb"/><path d="M40,31.86c0,.31-.46.55-1,.55s-1-.24-1-.55.46-.54,1-.54,1,.24,1,.54" transform="translate(0 0)" style="fill:#5fccf5"/><path d="M40,33.9c0,.3-.46.55-1,.55s-1-.25-1-.55.46-.55,1-.55,1,.25,1,.55" transform="translate(0 0)" style="fill:#008eb8"/><path d="M37.35,32.87h0a1.57,1.57,0,0,1,3.13,0h.34a1.91,1.91,0,1,0-3.81,0Z" transform="translate(0 0)" style="fill:#bcbec0"/><path d="M40.48,32.87a1.57,1.57,0,0,1-3.13,0H37a1.91,1.91,0,0,0,3.81,0Z" transform="translate(0 0)" style="fill:#e6e7e8"/></g></g></g></g></g></svg>