<svg xmlns="http://www.w3.org/2000/svg" xmlns:xlink="http://www.w3.org/1999/xlink" viewBox="0 0 82.63 61.84"><defs><clipPath id="clip-path" transform="translate(0 0)"><rect width="82.63" height="61.84" style="fill:none"/></clipPath></defs><title>campaign_statistics</title><g id="Layer_2" data-name="Layer 2"><g id="Layer_1-2" data-name="Layer 1"><g id="campaign_statistic.svg"><g style="clip-path:url(#clip-path)"><g style="clip-path:url(#clip-path)"><path d="M0,55.81v2.48a2.18,2.18,0,0,0,2.24,2.12s22.63,1.43,39.07,1.43,39.08-1.43,39.08-1.43a2.18,2.18,0,0,0,2.24-2.12V55.81Z" transform="translate(0 0)" style="fill:#e4a75b"/><path d="M75.32,54.28V14.13a1.8,1.8,0,0,0-1.84-1.75s-18.63-1.17-32.17-1.17S9.15,12.38,9.15,12.38A1.81,1.81,0,0,0,7.3,14.13V54.28A1.81,1.81,0,0,0,9.15,56H73.48a1.8,1.8,0,0,0,1.84-1.75" transform="translate(0 0)" style="fill:#344e5c"/><path d="M74.64,14.28A1.82,1.82,0,0,0,73,13.17S54.66,12,41.38,12,9.8,13.17,9.8,13.17A1.77,1.77,0,0,0,8,14.89v39.4a1.66,1.66,0,0,0,.34,1Z" transform="translate(0 0)" style="fill:#3a5665"/><path d="M0,54.25v2.48a2.18,2.18,0,0,0,2.24,2.12s22.63,1.43,39.07,1.43,39.08-1.43,39.08-1.43a2.18,2.18,0,0,0,2.24-2.12V54.25Z" transform="translate(0 0)" style="fill:#f1c849"/><path d="M31.86,54.25v2.07c0,.52.24.89.51.89,0,0,5.18.6,8.94.6s8.95-.6,8.95-.6c.27,0,.51-.37.51-.89V54.25Z" transform="translate(0 0)" style="fill:#fef388"/><polyline points="12.68 50.46 19.8 43.96 29.72 46.1 41.74 32.49 56.02 30.84 70.8 6.46" style="fill:none;stroke:#f1c849;stroke-linecap:round;stroke-linejoin:round;stroke-width:3px"/><polygon points="74.64 8.66 70.81 6.65 66.97 4.63 70.63 2.32 74.3 0 74.47 4.33 74.64 8.66" style="fill:#f1c849"/></g></g></g></g></g></svg>