<svg xmlns="http://www.w3.org/2000/svg" viewBox="0 0 1443.3 1327.54"><title>footer</title><g id="Layer_2" data-name="Layer 2"><g id="Layer_1-2" data-name="Layer 1"><polygon points="0 1149.51 0 1327.54 1442.93 1327.54 1442.93 137.06 1082.95 639.54 742.46 683.04 404.98 1058.02 152.99 989.02 0 1149.51" style="fill:#3fb49c"/><path d="M1079.58,599.92,727.42,640.71a39,39,0,0,0-24.72,12.91L405.48,990.09,170.16,939.34a39.17,39.17,0,0,0-34.48,9.31L1.3,1071.24v105.38c.61-.49,1.2-1,1.79-1.52l170.27-155.33,238,51.32a39.13,39.13,0,0,0,37.42-12.29L751.22,716.42l356.27-41.26a39,39,0,0,0,28.85-18.51l307-506.3V0Z" style="fill:#37ae95"/></g></g></svg>