<?xml version="1.0" encoding="utf-8"?>
<!-- Generator: Adobe Illustrator 21.1.0, SVG Export Plug-In . SVG Version: 6.00 Build 0)  -->
<svg version="1.1" id="Layer_1" xmlns="http://www.w3.org/2000/svg" xmlns:xlink="http://www.w3.org/1999/xlink" x="0px" y="0px"
	 viewBox="0 0 1443.3 1327.5" style="enable-background:new 0 0 1443.3 1327.5;" xml:space="preserve">
<style type="text/css">
	.st0{fill:#61B29D;}
	.st1{fill:#37AE95;}
</style>
<title>footer</title>
<g id="Layer_1-2">
	<polygon class="st0" points="0,1149.5 0,1327.5 1442.9,1327.5 1442.9,137.1 1082.9,639.5 742.5,683 405,1058 153,989 	"/>
	<path class="st1" d="M1079.6,599.9l-352.2,40.8c-9.5,1.1-18.4,5.7-24.7,12.9L405.5,990.1l-235.3-50.8c-12.3-2.6-25.2,0.8-34.5,9.3
		L1.3,1071.2v105.4c0.6-0.5,1.2-1,1.8-1.5l170.3-155.3l238,51.3c13.8,2.9,28.1-1.8,37.4-12.3l302.4-342.4l356.3-41.3
		c12-1.4,22.6-8.2,28.8-18.5l307-506.3V0L1079.6,599.9z"/>
</g>
</svg>
