<svg xmlns="http://www.w3.org/2000/svg" xmlns:xlink="http://www.w3.org/1999/xlink" viewBox="0 0 190.28 91.9"><defs><clipPath id="clip-path" transform="translate(0 0)"><rect width="190.28" height="91.9" style="fill:none"/></clipPath><clipPath id="clip-path-3" transform="translate(0 0)"><path d="M33.62,53,6,51.44a1.53,1.53,0,0,0-1.59,1.48v36A1.51,1.51,0,0,0,6,90.4s16,1,27.54,1,27.53-1,27.53-1a1.54,1.54,0,0,0,1.59-1.48v-36a1.61,1.61,0,0,0-1.59-1.48Z" style="fill:none"/></clipPath></defs><title>multi_channel</title><g id="Layer_2" data-name="Layer 2"><g id="Layer_1-2" data-name="Layer 1"><g id="multi_channel_campaign.svg"><g style="clip-path:url(#clip-path)"><g style="clip-path:url(#clip-path)"><path d="M62.69,53.18a5.38,5.38,0,0,0-2.17-4.7c-5.12-3.49-18.34-14-24-18a5.25,5.25,0,0,0-5.92,0c-5.66,4-18.88,14.43-24,18a5.31,5.31,0,0,0-2.17,4.7V57l.95,29.87v0A2,2,0,0,0,7.56,88.6h52A2,2,0,0,0,61.74,87v0l.95-29.81V53.18Z" transform="translate(0 0)" style="fill:#ccc6ae"/><path d="M56.45,29.45a1.8,1.8,0,0,0-1.79-1.74H11.36a1.7,1.7,0,0,0-1.79,1.63v.06L8.72,48.74V49l.16,4.81c0,1.37,0,.37,0,1.8,0,0,17.45,15.54,21.84,19.66a4.08,4.08,0,0,0,5.07.32c4.6-4,21.78-18.93,21.78-19.3,0-2.38.1-5.12.1-7.29a128,128,0,0,0-1.27-19.56" transform="translate(0 0)" style="fill:#f2f3f2"/><path d="M62.69,54.29H59.78l-19,16.92L61.16,90.29h0L39.43,72.37l-3.64,3.28a2.61,2.61,0,0,1-1.75.48H33a2.61,2.61,0,0,1-1.75-.48L27.7,72.42,6.55,90.29H6L26.38,71.21,7.45,54.29H4.55V88.92A1.51,1.51,0,0,0,6.13,90.4s16,1,27.54,1,27.54-1,27.54-1a1.54,1.54,0,0,0,1.59-1.48V54.56c-.11-.06-.11-.16-.11-.27" transform="translate(0 0)" style="fill:#d7d3b8"/><polygon points="4.49 59.26 6.29 58.2 6.29 54.29 4.49 54.29 4.49 59.26" style="fill:#b85359"/><polygon points="4.49 63.23 6.29 62.17 6.29 58.26 4.49 59.31 4.49 63.23" style="fill:#fff"/><polygon points="4.49 71 6.29 69.99 6.29 66.08 4.49 67.09 4.49 71" style="fill:#fff"/><polygon points="4.49 67.09 6.29 66.03 6.29 62.12 4.49 63.17 4.49 67.09" style="fill:#4483a8"/><polygon points="4.49 74.96 6.29 73.91 6.29 69.99 4.49 71.05 4.49 74.96" style="fill:#b85359"/><polygon points="4.49 78.93 6.29 77.87 6.29 73.96 4.49 75.01 4.49 78.93" style="fill:#fff"/><polygon points="4.49 86.75 6.29 85.69 6.29 81.78 4.49 82.84 4.49 86.75" style="fill:#fff"/><polygon points="4.49 82.78 6.29 81.73 6.29 77.82 4.49 78.87 4.49 82.78" style="fill:#4483a8"/><polygon points="4.49 88.86 6.29 89.6 6.29 85.75 4.49 86.75 4.49 88.86" style="fill:#4483a8"/><polygon points="60.89 59.26 62.74 58.2 62.74 54.29 60.89 54.29 60.89 59.26" style="fill:#b85359"/><polygon points="60.89 63.23 62.74 62.17 62.74 58.26 60.89 59.31 60.89 63.23" style="fill:#fff"/><polygon points="60.89 71 62.74 69.99 62.74 66.08 60.89 67.09 60.89 71" style="fill:#fff"/><polygon points="60.89 67.09 62.74 66.03 62.74 62.12 60.89 63.17 60.89 67.09" style="fill:#4483a8"/><polygon points="60.89 74.96 62.74 73.91 62.74 69.99 60.89 71.05 60.89 74.96" style="fill:#b85359"/><polygon points="60.89 89.44 62.74 88.7 62.74 85.8 60.89 86.54 60.89 89.44" style="fill:#b85359"/><polygon points="60.89 78.93 62.74 77.87 62.74 73.96 60.89 75.01 60.89 78.93" style="fill:#fff"/><polygon points="60.89 86.75 62.74 85.69 62.74 81.78 60.89 82.84 60.89 86.75" style="fill:#fff"/><polygon points="60.89 82.78 62.74 81.73 62.74 77.82 60.89 78.87 60.89 82.78" style="fill:#4483a8"/></g><g style="clip-path:url(#clip-path-3)"><path d="M27.43,89.6l1,1.85h3.91l-1.06-1.79c-1.48-.06-2.27-.06-3.86-.06" transform="translate(0 0)" style="fill:#b85359"/><path d="M23.52,89.55l1,1.85c1.58,0,2.32,0,3.91,0l-1-1.85c-1.58,0-2.37,0-3.91,0" transform="translate(0 0)" style="fill:#fff"/><path d="M15.7,89.34l1,1.85c1.59,0,2.33,0,3.92.11l-1-1.86c-1.58,0-2.38,0-3.91-.1" transform="translate(0 0)" style="fill:#fff"/><path d="M19.61,89.45l1,1.85c1.58,0,2.32,0,3.91,0l-1-1.85c-1.53,0-2.32,0-3.91,0" transform="translate(0 0)" style="fill:#4483a8"/><path d="M11.73,89.18l1,1.85c1.58,0,2.32.11,3.91.11l-1-1.85c-1.48,0-2.27,0-3.86-.11" transform="translate(0 0)" style="fill:#b85359"/><path d="M7.77,89l1,1.85c1.59.06,2.33.11,3.91.16l-1-1.85c-1.48-.05-2.27-.05-3.86-.16" transform="translate(0 0)" style="fill:#fff"/><path d="M0,88.6l1,1.9c1.59.11,2.33.16,3.91.21l-1-1.9c-1.58,0-2.38-.1-3.91-.21" transform="translate(0 0)" style="fill:#fff"/><path d="M3.91,88.81l1,1.9c1.59.11,2.33.11,3.91.22L7.82,89c-1.53,0-2.32-.1-3.91-.21" transform="translate(0 0)" style="fill:#4483a8"/><path d="M58.94,88.86l1.16,1.75c1.59-.11,2.33-.11,3.91-.21l-1.16-1.75c-1.59.11-2.38.16-3.91.21" transform="translate(0 0)" style="fill:#b85359"/><path d="M55,89.08l1.11,1.79c1.59-.05,2.33-.1,3.92-.21l-1.17-1.74c-1.53,0-2.27.1-3.86.16" transform="translate(0 0)" style="fill:#fff"/><path d="M47.15,89.39l1.11,1.8c1.59,0,2.33-.11,3.91-.16l-1.11-1.8c-1.53.06-2.32.11-3.91.16" transform="translate(0 0)" style="fill:#fff"/><path d="M51.12,89.23,52.23,91c1.58,0,2.32-.1,3.91-.16L55,89.08c-1.59,0-2.38.1-3.91.15" transform="translate(0 0)" style="fill:#4483a8"/><path d="M43.19,89.5l1.11,1.8c1.58-.06,2.32-.06,3.91-.11l-1.11-1.8c-1.53.06-2.33.06-3.91.11" transform="translate(0 0)" style="fill:#b85359"/><path d="M39.27,89.55l1.06,1.8c1.59,0,2.33,0,3.91-.11l-1.11-1.79c-1.53,0-2.32.1-3.86.1" transform="translate(0 0)" style="fill:#fff"/><polygon points="31.45 89.6 32.51 91.4 36.42 91.4 35.36 89.6 31.45 89.6" style="fill:#fff"/><path d="M35.42,89.6l1,1.8c1.59,0,2.33,0,3.92-.05l-1.06-1.8c-1.59,0-2.38,0-3.91,0" transform="translate(0 0)" style="fill:#4483a8"/></g><g style="clip-path:url(#clip-path)"><rect x="14.22" y="33.31" width="15.28" height="16.92" style="fill:#e9e8e9"/><rect x="32.03" y="33.31" width="21.2" height="1.8" style="fill:#e9e8e9"/><rect x="32.03" y="37.06" width="21.2" height="1.85" style="fill:#e9e8e9"/><rect x="32.03" y="40.87" width="21.2" height="1.85" style="fill:#e9e8e9"/><rect x="32.03" y="44.62" width="21.2" height="1.85" style="fill:#e9e8e9"/><rect x="32.03" y="48.43" width="21.2" height="1.85" style="fill:#e9e8e9"/><rect x="14.22" y="52.18" width="39.01" height="1.85" style="fill:#e9e8e9"/><rect x="14.22" y="55.72" width="39.01" height="1.85" style="fill:#e9e8e9"/><polygon points="14.22 60.21 15.7 61.54 51.75 61.54 53.23 60.21 53.23 59.69 14.22 59.69 14.22 60.21" style="fill:#e9e8e9"/><polygon points="20.14 65.55 47.2 65.55 49.27 63.76 18.13 63.76 20.14 65.55" style="fill:#e9e8e9"/><polygon points="24.58 69.57 42.6 69.57 44.67 67.77 22.57 67.77 24.58 69.57" style="fill:#e9e8e9"/><polygon points="29.02 73.59 38.01 73.59 40.12 71.79 27.01 71.79 29.02 73.59" style="fill:#e9e8e9"/><path d="M165.24,53.53l-26.35,1.55-26.5-1.55A1.48,1.48,0,0,0,110.88,55V89.49a1.47,1.47,0,0,0,1.51,1.44s15.3,1,26.43,1,26.42-1,26.42-1a1.48,1.48,0,0,0,1.52-1.44V55a1.48,1.48,0,0,0-1.52-1.44" transform="translate(0 0)" style="fill:#e4a75b"/><path d="M165.24,53.53H112.39A1.48,1.48,0,0,0,110.88,55V88a1.48,1.48,0,0,0,1.51,1.44s15.31,1,26.43,1,26.42-1,26.42-1A1.48,1.48,0,0,0,166.76,88V55a1.48,1.48,0,0,0-1.52-1.44m.06,35.72h-.05L144.46,72.08,141,75.2a2.58,2.58,0,0,1-1.68.45h-1a2.54,2.54,0,0,1-1.67-.45l-3.47-3.09L112.86,89.26h-.53L131.84,71,112.33,53.54h0l24.28,18.79a2.81,2.81,0,0,0,1.67.39h1a2.85,2.85,0,0,0,1.68-.39L165.3,53.54h0L145.73,71Z" transform="translate(0 0)" style="fill:#f1c849"/><path d="M165.25,53.53l-26.36-.68-26.49.68h-.07L136.6,72.33a2.87,2.87,0,0,0,1.68.39h1a2.79,2.79,0,0,0,1.67-.39L165.3,53.54h-.05" transform="translate(0 0)" style="fill:#fef388"/><path d="M190.28,72a1.74,1.74,0,0,0-.65-1.35L174.75,58.75A1.72,1.72,0,0,0,172,60.09v5.36H154.81a2.34,2.34,0,0,0-2.34,2.34V72Z" transform="translate(0 0)" style="fill:#42b49b"/><path d="M190.28,72a1.73,1.73,0,0,1-.65,1.34L174.75,85.14A1.72,1.72,0,0,1,172,83.8V78.44H154.81a2.34,2.34,0,0,1-2.34-2.34V72Z" transform="translate(0 0)" style="fill:#10967b"/><path d="M96.1.81a332.65,332.65,0,0,0-46.4,0,1.3,1.3,0,0,0-1.33,1.26V47.33A1.3,1.3,0,0,0,49.7,48.6a332.65,332.65,0,0,0,46.4,0,1.3,1.3,0,0,0,1.33-1.27V2.07A1.3,1.3,0,0,0,96.1.81" transform="translate(0 0)" style="fill:#2caae2"/><path d="M97.43,22.65V18.94q-14.36-.23-28.71.76A1.3,1.3,0,0,0,67.39,21v28.4l3.73,0V24.7a1.3,1.3,0,0,1,1.33-1.27q12.48-.86,25-.78" transform="translate(0 0)" style="fill:#209cc6"/><path d="M55.5,20.07a7.66,7.66,0,0,0,3.34.95l0-.06-.2-.16a7.59,7.59,0,0,1-1.81-1.94,8.08,8.08,0,0,1-1.12-2.69,7.85,7.85,0,0,1-.12-2.69,7.63,7.63,0,0,1,.78-2.55c.22-.42.19-.41.51,0,.58.63,1.16,1.27,1.77,1.87s1.18,1.06,1.8,1.55a18,18,0,0,0,2.71,1.77c.43.22.85.48,1.3.66.88.37,1.77.75,2.68,1a29,29,0,0,0,2.92.73c.74.14,1.49.17,2.24.25.21,0,.23,0,.19-.24a8.37,8.37,0,0,1,.18-3.79,7.93,7.93,0,0,1,1.67-3,7.51,7.51,0,0,1,3.4-2.25,7.33,7.33,0,0,1,4.35-.1,7.45,7.45,0,0,1,3.48,2.05.38.38,0,0,0,.39.11,15.93,15.93,0,0,0,3.73-1.32c.3-.14.59-.32.91-.45A7.83,7.83,0,0,1,87.44,14a14.91,14.91,0,0,0,4.21-1.15,1.14,1.14,0,0,1-.08.2A16.07,16.07,0,0,1,89,16c-.29.27-.62.51-.92.77a.42.42,0,0,0-.14.27,24.14,24.14,0,0,1-.35,4.73c-.15.88-.4,1.73-.63,2.59a19.49,19.49,0,0,1-1.3,3.41c-.46.95-1,1.86-1.55,2.77A12.49,12.49,0,0,1,83,32.05c-.68.81-1.39,1.59-2.12,2.35a17.49,17.49,0,0,1-2.7,2.23A20.81,20.81,0,0,1,72,39.51a24,24,0,0,1-3.36.65,21.23,21.23,0,0,1-4.91.05A24.7,24.7,0,0,1,61,39.76,18.15,18.15,0,0,1,57,38.39c-.88-.43-1.73-.91-2.59-1.37a.84.84,0,0,1-.21-.21,15.35,15.35,0,0,0,11.16-3.26,7.84,7.84,0,0,1-6-3.36,6.6,6.6,0,0,1-1-2.11c.58,0,1.12.08,1.67.06a11.6,11.6,0,0,0,1.62-.21,8.2,8.2,0,0,1-4.36-2.87,7.85,7.85,0,0,1-1.67-5" transform="translate(0 0)" style="fill:#fff"/><path d="M87.33,22.68c.08-.33.16-.66.22-1a24.31,24.31,0,0,0,.31-2.82c-6.38.08-12.76.32-19.14.76a1.3,1.3,0,0,0-1.33,1.27V40.2c.42,0,.83-.06,1.25-.11.83-.11,1.66-.26,2.48-.45v-15a1.3,1.3,0,0,1,1.33-1.27q7.44-.51,14.88-.68" transform="translate(0 0)" style="fill:#f1f2f2"/><path d="M118.63,23.34a332.51,332.51,0,0,0-46.39,0A1.3,1.3,0,0,0,70.9,24.6V69.87a1.3,1.3,0,0,0,1.34,1.26,332.51,332.51,0,0,0,46.39,0A1.3,1.3,0,0,0,120,69.87V24.6a1.3,1.3,0,0,0-1.33-1.26" transform="translate(0 0)" style="fill:#3b589f"/><path d="M105.72,62.53v9.1c0,.31,0,.31-.3.31H98.31c-.29,0-.29,0-.29-.3V53.46a.49.49,0,0,0,0-.21.26.26,0,0,0-.15-.14s-.12,0-.19,0H92c-.3,0-.3,0-.3-.31V46c0-.31,0-.31.3-.31h5.81c.21,0,.27,0,.27-.26,0-1.76,0-3.53,0-5.29a11.18,11.18,0,0,1,.88-4.5,7.89,7.89,0,0,1,2.81-3.45,8.47,8.47,0,0,1,3.51-1.41,13,13,0,0,1,2-.2c1.11,0,2.22,0,3.33,0,.85,0,1.7.13,2.55.21.06,0,.12.1.15.16a.46.46,0,0,1,0,.17v6c0,.32,0,.32-.32.32-1.18,0-2.37,0-3.55,0a7.54,7.54,0,0,0-1.71.2,2.31,2.31,0,0,0-1.84,2.15,11.48,11.48,0,0,0-.09,1.44c0,1.38,0,2.77,0,4.15,0,.2.06.24.26.24h6.64c.41,0,.38,0,.33.35-.2,1.45-.39,2.89-.58,4.34-.1.75-.19,1.51-.27,2.26,0,.46,0,.46-.51.46H106c-.29,0-.29,0-.29.29Z" transform="translate(0 0)" style="fill:#fff"/></g></g></g></g></g></svg>