<svg xmlns="http://www.w3.org/2000/svg" xmlns:xlink="http://www.w3.org/1999/xlink" viewBox="0 0 331.02 172.68"><defs><clipPath id="clip-path" transform="translate(0 0)"><rect width="331.02" height="172.68" style="fill:none"/></clipPath></defs><title>multiply_sales_2</title><g id="Layer_2" data-name="Layer 2"><g id="Layer_1-2" data-name="Layer 1"><g id="multiply_sales_1"><g style="clip-path:url(#clip-path)"><g style="clip-path:url(#clip-path)"><path d="M54.36,55.38,28,56.92,1.52,55.38A1.48,1.48,0,0,0,0,56.82V91.34a1.48,1.48,0,0,0,1.52,1.44s15.3,1,26.42,1,26.42-1,26.42-1a1.48,1.48,0,0,0,1.52-1.44V56.82a1.48,1.48,0,0,0-1.52-1.44" transform="translate(0 0)" style="fill:#e4a75b"/><path d="M54.36,55.38H1.52A1.48,1.48,0,0,0,0,56.82v33a1.48,1.48,0,0,0,1.52,1.44s15.3,1,26.42,1,26.42-1,26.42-1a1.48,1.48,0,0,0,1.52-1.44v-33a1.48,1.48,0,0,0-1.52-1.44m.06,35.72h-.05L33.58,73.92l-3.51,3.13a2.57,2.57,0,0,1-1.67.44h-1a2.59,2.59,0,0,1-1.68-.44L22.26,74,2,91.1H1.46L21,72.79,1.46,55.39h0L25.73,74.18a2.87,2.87,0,0,0,1.68.38h1a2.85,2.85,0,0,0,1.67-.38l24.35-18.8h0L34.85,72.79Z" transform="translate(0 0)" style="fill:#f1c849"/><path d="M54.37,55.38,28,54.69l-26.49.69H1.46L25.73,74.18a2.84,2.84,0,0,0,1.68.38h1a2.85,2.85,0,0,0,1.67-.38l24.35-18.8h-.05" transform="translate(0 0)" style="fill:#fef388"/><path d="M236.06,85.56a2.94,2.94,0,0,1,1.05-1.11c4.13-3,6-6.42,13.59-4.73,5.67,1.26,9,11.14,6.75,17.56a13.25,13.25,0,0,1-1.37,2.31,12.18,12.18,0,0,0,2.95,15.5c-12.36-1.51-11.21-8.37-11.18-10.62a5.39,5.39,0,0,0-.33-2.4c-.2-.43-5.54-5.17-7.74-7.35s-4.06-5-3.93-8.13a2.6,2.6,0,0,1,.21-1" transform="translate(0 0)" style="fill:#b4433d"/><path d="M231.43,85.56a2.94,2.94,0,0,0-1.05-1.11c-4.13-3-6-6.42-13.59-4.73-5.67,1.26-9,11.14-6.75,17.56a13.25,13.25,0,0,0,1.37,2.31,12.18,12.18,0,0,1-2.95,15.5c12.36-1.51,11.21-8.37,11.18-10.62a5.39,5.39,0,0,1,.33-2.4c.2-.43,5.54-5.17,7.74-7.35s4.06-5,3.93-8.13a2.6,2.6,0,0,0-.21-1" transform="translate(0 0)" style="fill:#b4433d"/><path d="M233.46,138.16c-22.06,0-26.79-9.06-26.79,1.8a156.41,156.41,0,0,0,26.79,2.3,156.41,156.41,0,0,0,26.79-2.3c0-10.86-4.52-1.8-26.79-1.8" transform="translate(0 0)" style="fill:#283d48"/><path d="M233.46,121c-14.79,0-26.79,7.83-26.79,17.48a174.91,174.91,0,0,0,26.79,2,174.91,174.91,0,0,0,26.79-2c0-9.65-12-17.48-26.79-17.48" transform="translate(0 0)" style="fill:#344e5c"/><path d="M233.46,140.57c-.3,0-5-13.3-6.38-17.15a25.71,25.71,0,0,1-1.51-8.5c0-5.8,3.54-10.53,7.89-10.53s7.89,4.73,7.89,10.53a28.42,28.42,0,0,1-1.51,8.5c-1.28,4-6,17.15-6.38,17.15" transform="translate(0 0)" style="fill:#e0c177"/><path d="M248.27,101.16a1.45,1.45,0,0,0-.8,0c-.77-8.25-6.76-14.69-14-14.69s-13.24,6.44-14,14.69a1.45,1.45,0,0,0-.8,0c-1.37.38-1.84,3-1.06,5.75.68,2.45,2.1,4.26,3.36,4.41a24.3,24.3,0,0,0,2.51,5c2.8,4.23,6.35,6.55,10,6.55s7.2-2.32,10-6.55a23.78,23.78,0,0,0,2.5-5c1.27-.15,2.69-2,3.37-4.41.78-2.79.31-5.37-1.06-5.75" transform="translate(0 0)" style="fill:#f1cf7f"/><path d="M229.65,130.69c1.72,4.8,3.59,9.88,3.77,9.88s2.13-5.07,3.86-9.88Z" transform="translate(0 0)" style="fill:#d04f48"/><path d="M248.28,100.4c0-2.62-1.19-7.34-1.52-10.18-1.14-9.87-16.78-7.88-17.6-7.64a11.45,11.45,0,0,0-2.3,1.2,33.12,33.12,0,0,0-3.14,1.75A9.61,9.61,0,0,0,220.57,90a29.05,29.05,0,0,0-1.24,5.37l-.87,5.33c1.44-.28,2,.22,2.92-.89.39-.44,1.54-2.2,1.93-2.64,1.23-1.38,3.14-2.33,3.6-4.11a6.17,6.17,0,0,1-1.61,4.86,21.34,21.34,0,0,0,3.1-2.77c1.14-1,2.49-1.73,3.72-2.62A7.4,7.4,0,0,0,235,89.05a5.35,5.35,0,0,1-1,4.76A14.15,14.15,0,0,0,239,87a15,15,0,0,0,1.26,4.18,14.2,14.2,0,0,1,.43,7.91c1.59-1.37,1.81-3.7,1.91-5.79.56,1.89,4.3,8.8,5.65,7.07" transform="translate(0 0)" style="fill:#b4433d"/><polygon points="233.41 140.81 225.91 119.9 219.42 127.58 233.41 140.81" style="fill:#3a5766"/><polygon points="233.51 140.81 241.01 119.9 247.5 127.58 233.51 140.81" style="fill:#3a5766"/><path d="M223.25,89.58c.95-4.1,6.24-7.17,10.62-7.17s10,3.07,10.94,7.17a11.13,11.13,0,0,0-21.87,0Z" transform="translate(0 0)" style="fill:#354f5d"/><path d="M231.34,109.88s1.4,2,2.49,2a4,4,0,0,0,2.72-2,5.59,5.59,0,0,1-5.21,0" transform="translate(0 0)" style="fill:#e0bc73"/><path d="M229.73,103.93c.75.47-1.18,1.42-2.75,1.32-1.42-.09-2.68-.73-2.68-1.26s1.25-1,2.68-1a4.74,4.74,0,0,1,2.75.93" transform="translate(0 0)" style="fill:#fff"/><path d="M227,102.49c1.37-.16,2.93,1.64,2.93,1.64a6.71,6.71,0,0,0-1.85-.66,1,1,0,0,1,.07.39,1.08,1.08,0,0,1-2.15,0,1,1,0,0,1,0-.24,2.53,2.53,0,0,0-1.1.82c-.7-.11-1.1-1.44-1.1-1.44.71.19,1.8-.35,3.17-.51" transform="translate(0 0)" style="fill:#71593b"/><path d="M229.76,101.21c.31.25.55,1.42.55,1.42a5.21,5.21,0,0,0-4.81-.73,3.48,3.48,0,0,1-2.42.19c2-2.47,6.36-1.13,6.68-.88" transform="translate(0 0)" style="fill:#e0bc73"/><path d="M227.71,103.71a.29.29,0,1,1-.29-.3.29.29,0,0,1,.29.3" transform="translate(0 0)" style="fill:#fff"/><path d="M237.84,103.93c-.75.47,1.18,1.42,2.75,1.32,1.42-.09,2.67-.73,2.67-1.26s-1.25-1-2.67-1a4.74,4.74,0,0,0-2.75.93" transform="translate(0 0)" style="fill:#fff"/><path d="M240.58,102.49c-1.37-.16-2.93,1.64-2.93,1.64a6.71,6.71,0,0,1,1.85-.66,1,1,0,0,0-.08.39,1.08,1.08,0,0,0,2.15,0,1.94,1.94,0,0,0,0-.24,2.53,2.53,0,0,1,1.1.82c.7-.11,1.09-1.44,1.09-1.44-.7.19-1.8-.35-3.16-.51" transform="translate(0 0)" style="fill:#71593b"/><path d="M237.81,101.21a3.87,3.87,0,0,0-.56,1.42,5.21,5.21,0,0,1,4.81-.73,3.5,3.5,0,0,0,2.43.19c-2-2.47-6.37-1.13-6.68-.88" transform="translate(0 0)" style="fill:#e0bc73"/><path d="M240.58,103.68a.29.29,0,1,0,.29-.29.29.29,0,0,0-.29.29" transform="translate(0 0)" style="fill:#fff"/><path d="M237.07,114.46c-.32-.06-2.77-.75-3,0H234c-.23-.75-2.69-.06-3,0a4.55,4.55,0,0,1-1.29-.36l.56,1a4.72,4.72,0,0,0,3.79,2.74h0a4.72,4.72,0,0,0,3.79-2.74c.33-.58.48-.87.55-1a4.38,4.38,0,0,1-1.29.36" transform="translate(0 0)" style="fill:#c14646"/><path d="M237.09,115.14a18.43,18.43,0,0,1-6.17,0,8.18,8.18,0,0,0,3,1.06h.27a8.18,8.18,0,0,0,3-1.06" transform="translate(0 0)" style="fill:#fff"/><path d="M262.26,60.33c-22,0-26.76-9-26.76,1.8a156.12,156.12,0,0,0,26.76,2.3A156.17,156.17,0,0,0,289,62.13c0-10.85-4.52-1.8-26.77-1.8" transform="translate(0 0)" style="fill:#10967b"/><path d="M262.26,43.22c-14.78,0-26.76,7.82-26.76,17.47a174.57,174.57,0,0,0,26.76,2.05A174.63,174.63,0,0,0,289,60.69c0-9.65-12-17.47-26.77-17.47" transform="translate(0 0)" style="fill:#42b49b"/><path d="M262.26,48.75c-2,0-4.8-.45-6.37-3.15-1.43-2.46-1.51-5.64-1.51-8.48,0-5.81,3.54-10.53,7.88-10.53s7.88,4.72,7.88,10.53c0,2.84-.07,6-1.51,8.48-1.56,2.7-4.33,3.15-6.37,3.15" transform="translate(0 0)" style="fill:#e0c177"/><path d="M280.08,23.21c-.11-8.58-7-16.74-8.48-17.69s-5.09,0-5.09,0c-.21-1-3.92-2.12-5.71-2.23a13.48,13.48,0,0,0-10.87,6.15c-4,6.11-5.67,11.12-5.47,17.69s3.62,18.65,3.62,18.65a29.64,29.64,0,0,1,6.59-4.29,18.14,18.14,0,0,1-2-2.54A24,24,0,0,1,250,33.52c-1.31-.17-2.56-1.89-3.43-4.77-.61-2-.58-3.62.09-4.52a1.58,1.58,0,0,1,1.28-.68,4.47,4.47,0,0,1,1,.11c1-7.53,6.63-13.31,13.36-13.31s12.33,5.78,13.37,13.31a4.31,4.31,0,0,1,.94-.11,1.57,1.57,0,0,1,1.28.68c.67.9.7,2.51.09,4.52-.87,2.88-2.11,4.6-3.43,4.77A24,24,0,0,1,271.86,39a19.83,19.83,0,0,1-1.79,2.31,19.5,19.5,0,0,1,6.19,4.52c3.07-3.07,3.92-14,3.82-22.57" transform="translate(0 0)" style="fill:#283f48"/><path d="M277.05,23.36a1.42,1.42,0,0,0-.79,0c-.77-8.24-6.75-14.67-14-14.67s-13.23,6.43-14,14.67a1.42,1.42,0,0,0-.79,0c-1.37.38-1.85,3-1.07,5.75.69,2.45,2.11,4.26,3.37,4.41a25.06,25.06,0,0,0,2.5,5c2.8,4.21,6.35,6.53,10,6.53s7.19-2.32,10-6.53a24,24,0,0,0,2.5-5c1.27-.15,2.69-2,3.37-4.41.78-2.79.3-5.37-1.07-5.75" transform="translate(0 0)" style="fill:#f1cf7f"/><path d="M276.43,23.34a44,44,0,0,0-1.52-10.16c-.72-2.45-1.77-5.08-4.05-6.22A9.34,9.34,0,0,0,268,6.2q-4-.59-8.07-.82a7.57,7.57,0,0,0-2.56.16,11.45,11.45,0,0,0-2.3,1.2,31,31,0,0,0-3.14,1.75,9.59,9.59,0,0,0-3.14,4.44,28.77,28.77,0,0,0-1.24,5.36l-.87,5.32c1.44-.27,2,.22,2.92-.88.39-.44,1.54-2.2,1.93-2.64,1.23-1.38,3.13-2.33,3.6-4.11a6.21,6.21,0,0,1-1.61,4.85,21.72,21.72,0,0,0,3.09-2.76c1.14-1,2.49-1.73,3.72-2.62A7.44,7.44,0,0,0,263.16,12a5.34,5.34,0,0,1-1,4.75,14.11,14.11,0,0,0,5-6.77,14.86,14.86,0,0,0,1.26,4.17,14.2,14.2,0,0,1,.43,7.91c1.59-1.37,1.81-3.7,1.91-5.79.56,1.89,4.29,8.79,5.64,7.06" transform="translate(0 0)" style="fill:#283f48"/><rect x="264.37" y="44.96" width="8.76" height="5.28" transform="translate(45.06 203.98) rotate(-45)" style="fill:#e6e7e8"/><rect x="253.4" y="43.22" width="5.28" height="8.76" transform="translate(41.33 194.99) rotate(-45)" style="fill:#e6e7e8"/><path d="M263.39,52.57a1.13,1.13,0,1,1-1.13-1.13,1.13,1.13,0,0,1,1.13,1.13" transform="translate(0 0)" style="fill:#fff"/><path d="M263.39,55.67a1.13,1.13,0,1,1-1.13-1.13,1.13,1.13,0,0,1,1.13,1.13" transform="translate(0 0)" style="fill:#fff"/><path d="M259.68,32.7s1.4,1.94,2.49,1.94a4,4,0,0,0,2.71-1.94,5.61,5.61,0,0,1-5.2,0" transform="translate(0 0)" style="fill:#e0bc73"/><path d="M258.27,26.81c.74.46-1.16,1.39-2.71,1.3-1.4-.09-2.64-.72-2.64-1.24s1.23-1,2.64-1a4.69,4.69,0,0,1,2.71.92" transform="translate(0 0)" style="fill:#fff"/><path d="M255.57,25.39c1.34-.16,2.89,1.61,2.89,1.61a6.88,6.88,0,0,0-1.83-.65,1,1,0,0,1,.07.39,1.06,1.06,0,0,1-2.11,0,.93.93,0,0,1,0-.24,2.49,2.49,0,0,0-1.08.81c-.7-.11-1.08-1.42-1.08-1.42.69.19,1.77-.35,3.12-.5" transform="translate(0 0)" style="fill:#71593b"/><path d="M256.28,26.59a.29.29,0,1,1-.29-.29.29.29,0,0,1,.29.29" transform="translate(0 0)" style="fill:#fff"/><path d="M266.25,26.81c-.73.46,1.17,1.39,2.71,1.3s2.64-.72,2.64-1.24-1.23-1-2.64-1a4.69,4.69,0,0,0-2.71.92" transform="translate(0 0)" style="fill:#fff"/><path d="M269,25.39c-1.35-.16-2.89,1.61-2.89,1.61a6.83,6.83,0,0,1,1.82-.65,1.23,1.23,0,0,0-.07.39,1.06,1.06,0,0,0,2.12,0,.93.93,0,0,0,0-.24,2.57,2.57,0,0,1,1.09.81c.69-.11,1.08-1.42,1.08-1.42-.7.19-1.78-.35-3.12-.5" transform="translate(0 0)" style="fill:#71593b"/><path d="M269,26.57a.29.29,0,0,0,.57,0,.29.29,0,1,0-.57,0" transform="translate(0 0)" style="fill:#fff"/><path d="M265.32,37.19c-.32-.06-2.77-.75-3,0h-.12c-.22-.75-2.67-.06-3,0a4.55,4.55,0,0,1-1.29-.36c.07.13.22.42.56,1a4.69,4.69,0,0,0,3.77,2.74h0a4.69,4.69,0,0,0,3.77-2.74c.34-.57.49-.86.56-1a4.55,4.55,0,0,1-1.29.36" transform="translate(0 0)" style="fill:#c14646"/><path d="M265.34,37.87a18.37,18.37,0,0,1-6.16,0,8.23,8.23,0,0,0,2.95,1.05h.26a8.15,8.15,0,0,0,2.95-1.05" transform="translate(0 0)" style="fill:#fff"/><path d="M252.06,23.49s7.15-1.48,7.57,1.35c0,0-.83.28-1.24,0s-1.07-1.28-6.33-1.35" transform="translate(0 0)" style="fill:#e0bc73"/><path d="M273,23.49s-7.15-1.48-7.57,1.35c0,0,.83.28,1.25,0s1.06-1.28,6.32-1.35" transform="translate(0 0)" style="fill:#e0bc73"/><path d="M165.84,136.68c-24.79,0-30.1-10.18-30.1,2a176.1,176.1,0,0,0,30.1,2.58,176,176,0,0,0,30.1-2.58c0-12.2-5.07-2-30.1-2" transform="translate(0 0)" style="fill:#9bc2cc"/><path d="M165.84,117.06c-16.62,0-30.1,8.8-30.1,19.65a196.06,196.06,0,0,0,30.1,2.31,195.89,195.89,0,0,0,30.1-2.31c0-10.85-13.47-19.65-30.1-19.65" transform="translate(0 0)" style="fill:#a4cad8"/><path d="M165.84,136.68c-2.79,0-4-17.9-8.72-13.21-2.76,2.76-2.06-7.72-2.06-11.62,0-7.94,4.83-14.4,10.78-14.4s10.79,6.46,10.79,14.4c0,3.9.7,14.38-2.07,11.62-4.54-4.54-5.93,13.21-8.72,13.21" transform="translate(0 0)" style="fill:#b2d4e5"/><path d="M165.84,122.12c-4.1,0-8.09-2.62-11.24-7.36a28.23,28.23,0,0,1-4.6-15c0-10.22,7.11-18.53,15.84-18.53s15.85,8.31,15.85,18.53a28.24,28.24,0,0,1-4.61,15c-3.15,4.74-7.14,7.36-11.24,7.36" transform="translate(0 0)" style="fill:#c7e5f8"/><path d="M166.12,80.38h-.56c-9.16.25-16.5,6.67-16.5,14.56a23.83,23.83,0,0,0,.94,5.81c.85-2.45,4.22-9,7.65-11.28,7.67,1.09,14.94-.78,15.22-.24,3.76,7.06,7.43,6.2,8.81,10a13.76,13.76,0,0,0,.95-4.33c0-5-2.74-11.5-7.47-12-.71-.08-1.57.19-2.25-.1s-.35-1.07-1.81-1.64a15.06,15.06,0,0,0-5-.77" transform="translate(0 0)" style="fill:#a4cad8"/><polygon points="173.93 130.26 169.29 125.95 176.98 118.26 182.08 120.15 173.93 130.26" style="fill:#c7e5f8"/><polygon points="158.01 130.26 162.66 125.95 154.96 118.26 149.86 120.15 158.01 130.26" style="fill:#c7e5f8"/><path d="M173.16,78.63c.19-.13-3.27-1.11-4.4,1.65-.8-.52-.92-1.26-.39-2.62a6.73,6.73,0,0,0-1.56,2.88,2.62,2.62,0,0,0,.1,1.89c.68,1.28,2.62,1.38,4.18,1.29.81,0,1.81-.76,2.61-.8-2.7-.83-.73-4.28-.54-4.29" transform="translate(0 0)" style="fill:#a4cad8"/><path d="M196.24,53.57c-17.59,0-21.35-7.22-21.35,1.44a124.94,124.94,0,0,0,21.35,1.83A124.79,124.79,0,0,0,217.59,55c0-8.66-3.6-1.44-21.35-1.44" transform="translate(0 0)" style="fill:#9bc2cc"/><path d="M300.3,137.41c-25.3,0-30.72-10.38-30.72,2.07a179.21,179.21,0,0,0,30.72,2.64A179.21,179.21,0,0,0,331,139.48c0-12.45-5.18-2.07-30.72-2.07" transform="translate(0 0)" style="fill:#9bc2cc"/><path d="M300.3,117.78c-17,0-30.72,9-30.72,20.05a200.65,200.65,0,0,0,30.72,2.35A200.65,200.65,0,0,0,331,137.83c0-11.07-13.75-20.05-30.72-20.05" transform="translate(0 0)" style="fill:#a4cad8"/><path d="M300.3,128.32c-2.85,0-6.71-.62-8.9-4.38-2-3.45-2.1-7.88-2.1-11.86,0-8.1,4.93-14.7,11-14.7s11,6.6,11,14.7c0,4-.1,8.41-2.11,11.86-2.18,3.76-6.05,4.38-8.9,4.38" transform="translate(0 0)" style="fill:#b2d4e5"/><path d="M300.3,122.56c-4.18,0-8.25-2.67-11.47-7.51a28.8,28.8,0,0,1-4.7-15.26c0-10.42,7.26-18.91,16.17-18.91s16.17,8.49,16.17,18.91a28.8,28.8,0,0,1-4.7,15.26c-3.21,4.84-7.28,7.51-11.47,7.51" transform="translate(0 0)" style="fill:#c7e5f8"/><path d="M300.59,80H300c-9.36.26-16.85,6.81-16.85,14.86a24.82,24.82,0,0,0,1,5.93c.88-2.5,3.79-10.4,7.81-11.51,2.11-.57,4.87,2.37,8.05,2.37h.62c3.18,0,6.71-3.22,6.87-2.62.94,3.74,7.58,6.34,9,10.25a13.78,13.78,0,0,0,1-4.42c0-5.11-2.8-11.74-7.61-12.29-.74-.08-1.61.19-2.3-.11s-.36-1.09-1.86-1.67a15.3,15.3,0,0,0-5.07-.79" transform="translate(0 0)" style="fill:#a4cad8"/><polygon points="306.51 130.84 303.35 126.47 300.64 126.47 300.48 126.47 297.77 126.47 294.61 130.84 297.91 134.17 296.94 140.18 300.48 140.18 300.64 140.18 304.18 140.18 303.21 134.17 306.51 130.84" style="fill:#b8e3f9"/><polygon points="308.15 134.72 303.42 126.47 311.27 118.62 316.47 120.55 308.15 134.72" style="fill:#c7e5f8"/><polygon points="293.04 134.72 297.77 126.47 289.93 118.62 284.72 120.55 293.04 134.72" style="fill:#c7e5f8"/><polygon points="297.77 126.47 296.03 132.28 295.03 131.26 297.77 126.47" style="fill:#b3daea"/><polygon points="303.36 126.47 305.1 132.28 306.11 131.26 303.36 126.47" style="fill:#b3daea"/><polygon points="303.21 134.17 297.91 134.17 300.36 134.72 300.36 140.18 304.18 140.18 303.21 134.17" style="fill:#b3daea"/><path d="M314.3,100.23a.24.24,0,0,0-.11-.21c-1-.58-3-.79-6.18-.92a16.71,16.71,0,0,0-6.59,1.46h-.15a3.83,3.83,0,0,0-.71,0,3.94,3.94,0,0,0-.71,0h-.14a16.82,16.82,0,0,0-6.59-1.46c-3.17.13-5.19.34-6.19.92a.24.24,0,0,0-.11.21c0,.15,0,1,0,1.17,0,0,.28.08.41.57s.38,2.3.53,2.77a8,8,0,0,0,.87,2.23,8.58,8.58,0,0,0,3.87,1c1.53,0,3.78-.1,4.49-.66,1.17-.91,2.32-4.21,2.64-4.83a.61.61,0,0,1,.23-.25v0a1.32,1.32,0,0,1,.7-.18,1.29,1.29,0,0,1,.7.18v0a.72.72,0,0,1,.24.25c.32.62,1.47,3.92,2.64,4.83.71.56,2.95.64,4.48.66a8.58,8.58,0,0,0,3.87-1,7.74,7.74,0,0,0,.87-2.23c.15-.47.41-2.28.54-2.77s.4-.57.4-.57c0-.19,0-1,0-1.17m-15.46,2.06c-.66,2.81-1.66,4.19-2.24,4.62s-3.23.57-3.83.57c-1,0-3.12-.26-3.89-1.34s-.81-3.49-.74-4.45a1.84,1.84,0,0,1,1.1-1.63,17.69,17.69,0,0,1,3.68-.49c.38,0,6.57-.09,5.92,2.72m13.4,3.85c-.77,1.08-2.89,1.34-3.89,1.34-.6,0-3.26-.15-3.83-.57s-1.57-1.81-2.23-4.62,5.53-2.73,5.91-2.72a17.69,17.69,0,0,1,3.68.49,1.83,1.83,0,0,1,1.1,1.63c.07,1,0,3.37-.74,4.45" transform="translate(0 0)" style="fill:#a4cad8"/><path d="M59.7,74.07c23.5,0,55,77,91,92,32.24,13.44,75,4,82-21.5" transform="translate(0 0)" style="fill:none;stroke:#344e5c;stroke-miterlimit:10;stroke-dasharray:1,1"/><path d="M59.7,73.57c54-.5,102-51.5,186-37.5" transform="translate(0 0)" style="fill:none;stroke:#344e5c;stroke-miterlimit:10;stroke-dasharray:1,1"/><path d="M127.47,56.72c-24.31,0-29.52-10-29.52,2a172,172,0,0,0,29.52,2.54A171.82,171.82,0,0,0,157,58.7c0-12-5-2-29.51-2" transform="translate(0 0)" style="fill:#9bc2cc"/><path d="M127.47,37.85C111.17,37.85,98,46.48,98,57.12a192.68,192.68,0,0,0,29.52,2.26A192.46,192.46,0,0,0,157,57.12c0-10.64-13.21-19.27-29.51-19.27" transform="translate(0 0)" style="fill:#a4cad8"/><path d="M125.2,2.29c.19-.13-3.2-1.09-4.31,1.62-.78-.51-.9-1.24-.39-2.57A6.65,6.65,0,0,0,119,4.16,2.59,2.59,0,0,0,119.07,6c.67,1.25,2.57,1.35,4.11,1.26.78,0,1.77-.74,2.56-.79-2.65-.8-.73-4.19-.54-4.2" transform="translate(0 0)" style="fill:#e5be44"/><path d="M127.47,46.32c-2.74,0-6.45-.57-8.55-4-1.93-3.13-2-7.15-2-10.75,0-7.36,4.75-13.34,10.58-13.34S138,24.23,138,31.59c0,3.6-.09,7.62-2,10.75-2.1,3.41-5.82,4-8.55,4" transform="translate(0 0)" style="fill:#e0c177"/><path d="M127.47,42.44c-4,0-7.93-2.56-11-7.21a27.6,27.6,0,0,1-4.52-14.66c0-10,7-18.17,15.54-18.17S143,10.55,143,20.57a27.59,27.59,0,0,1-4.51,14.66c-3.09,4.65-7,7.21-11,7.21" transform="translate(0 0)" style="fill:#c7e5f8"/><path d="M128.11,1.21l-.37.29h-.15c-.1,0-.14-.9-.4,0L126.71,0C118.65,0,111,8.06,111,15.8a24,24,0,0,0,.92,5.69c.84-2.4,4.14-8.87,7.5-11.06,7.52,1.07,14.65-.77,14.93-.24C138,17.12,141.64,16.28,143,20a13.59,13.59,0,0,0,.93-4.24c0-4.92-2.69-11.29-7.32-11.82a8.15,8.15,0,0,1-2.21-.1c-.67-.29-.35-1-1.78-1.6a12.51,12.51,0,0,0-4.51-1.07" transform="translate(0 0)" style="fill:#a4cad8"/><path d="M145.81,41.86a10.45,10.45,0,0,0-2.69-1.12l-.91,1.7H112.84l-.91-1.7a7.71,7.71,0,0,0-2.39,1c-1.63.88,4.79,17.22,4.79,17.22s6.2.46,13.46.46,12.9-.46,12.9-.46,6.73-16.16,5.12-17.06" transform="translate(0 0)" style="fill:#b2d4e5"/><path d="M141.7,20a.27.27,0,0,0-.11-.22c-1-.6-3.14-.82-6.44-1a17.52,17.52,0,0,0-6.85,1.51h-.15a5.41,5.41,0,0,0-.74,0,5.35,5.35,0,0,0-.73,0h-.15a17.52,17.52,0,0,0-6.85-1.51c-3.3.13-5.4.35-6.44,1a.27.27,0,0,0-.11.22c0,.16,0,1,0,1.22,0,0,.29.09.42.59s.4,2.39.56,2.88A8.37,8.37,0,0,0,115,27a9,9,0,0,0,4,1c1.59,0,3.92-.11,4.66-.69,1.22-.95,2.41-4.38,2.74-5a.75.75,0,0,1,.24-.26v0a1.48,1.48,0,0,1,1.45,0v0a.86.86,0,0,1,.24.26c.33.64,1.52,4.07,2.74,5,.74.58,3.07.66,4.66.69a9,9,0,0,0,4-1,8.37,8.37,0,0,0,.9-2.32c.16-.49.42-2.37.56-2.88s.42-.59.42-.59c0-.2,0-1.06,0-1.22m-16.08,2.14c-.68,2.92-1.72,4.36-2.32,4.8s-3.36.6-4,.6c-1,0-3.25-.27-4-1.4s-.84-3.62-.77-4.62a1.93,1.93,0,0,1,1.15-1.7,18.56,18.56,0,0,1,3.82-.51c.4,0,6.84-.08,6.15,2.83m13.93,4c-.79,1.13-3,1.4-4,1.4-.62,0-3.38-.16-4-.6s-1.64-1.88-2.32-4.8,5.75-2.84,6.14-2.83a18.64,18.64,0,0,1,3.83.51,1.93,1.93,0,0,1,1.15,1.7c.07,1,0,3.5-.78,4.62" transform="translate(0 0)" style="fill:#9fc4ce"/><path d="M119.31,19.19a18.44,18.44,0,0,0-3.92.53,2,2,0,0,0-1.18,1.74c-.06,1,0,3.57.8,4.73s3.08,1.42,4.14,1.42c.63,0,3.46-.15,4.07-.61s1.68-1.92,2.38-4.91-5.89-2.91-6.29-2.9" transform="translate(0 0)" style="fill:#bfdce8"/><path d="M135.46,19.2a19,19,0,0,1,3.92.52,2,2,0,0,1,1.18,1.75c.07,1,0,3.57-.79,4.73s-3.08,1.42-4.15,1.42c-.63,0-3.46-.16-4.07-.61s-1.68-1.92-2.38-4.91,5.89-2.91,6.29-2.9" transform="translate(0 0)" style="fill:#bfdce8"/><path d="M119.31,19.19a18.44,18.44,0,0,0-3.92.53,2,2,0,0,0-1.18,1.74c0,.21,0,.51,0,.84a33.12,33.12,0,0,0,10.59,2.31,15.63,15.63,0,0,0,.81-2.52c.7-3-5.89-2.91-6.29-2.9" transform="translate(0 0)" style="fill:#a4cad8"/><path d="M140.56,21.47a2,2,0,0,0-1.18-1.74,19,19,0,0,0-3.92-.52c-.4,0-7-.09-6.29,2.9a16.84,16.84,0,0,0,.8,2.5,32.81,32.81,0,0,0,10.61-2.39c0-.29,0-.55,0-.75" transform="translate(0 0)" style="fill:#a4cad8"/><path d="M119.54,1.54c.14-.18-3.39,0-3.58,2.89-.91-.24-1.25-.88-1.18-2.31a6.69,6.69,0,0,0-.56,3.16A2.59,2.59,0,0,0,114.9,7c1,1,2.86.47,4.29-.09.73-.29,1.45-1.27,2.18-1.56-2.77.07-2-3.75-1.83-3.82" transform="translate(0 0)" style="fill:#a4cad8"/><path d="M142.53,22.86c-.33,8.12-4.28,11.26-4.28,11.26L129.9,30a4.17,4.17,0,0,0-2.23,1,1.91,1.91,0,0,0-.26.49,2.25,2.25,0,0,0-.25-.49,4.2,4.2,0,0,0-2.23-1l-8.35,4.14s-4-3.14-4.28-11.26c0,0-1.87,15.5-.88,18.34s8.07,11.31,10.48,11.55a23.11,23.11,0,0,0,5.51-.33,23.22,23.22,0,0,0,5.52.33c2.41-.24,9.49-8.7,10.48-11.55s-.88-18.34-.88-18.34M129.68,41.11c-1.21.14-.44-2.88-1-3.22a4.84,4.84,0,0,0-2.56,0c-.55.34.22,3.36-1,3.22s-3.74-4.64-3.08-5.41,4.46-1.1,5.09-1.76a1.34,1.34,0,0,0,.25-.42,1.36,1.36,0,0,0,.26.42c.62.66,4.43,1,5.09,1.76s-1.87,5.27-3.08,5.41" transform="translate(0 0)" style="fill:#a4cad8"/><path d="M114.29,20.15c0,.12-.2.21-.44.21s-.43-.09-.43-.21.19-.22.43-.22.44.1.44.22" transform="translate(0 0)" style="fill:#f7f8fa"/><path d="M141.47,20.15c0,.12-.2.21-.44.21s-.43-.09-.43-.21.19-.22.43-.22.44.1.44.22" transform="translate(0 0)" style="fill:#f7f8fa"/><path d="M131.67,33.92a16.54,16.54,0,0,0-8.51,0,7,7,0,0,1-1.79-.49c.09.17.3.56.77,1.34,1.25,2.1,2.84,3.52,5.27,3.7h0c2.43-.18,4-1.6,5.27-3.7.47-.78.68-1.17.77-1.34a6.23,6.23,0,0,1-1.79.49" transform="translate(0 0)" style="fill:#a4cad8"/><path d="M132.42,35a38.92,38.92,0,0,1-5,.4,39.06,39.06,0,0,1-5-.4s3,1.62,4.81,1.62h.43c1.83,0,4.8-1.62,4.8-1.62" transform="translate(0 0)" style="fill:#b2d4e5"/><path d="M196.26,57.86c-21.23,0-25.77-8.71-25.77,1.73a150,150,0,0,0,25.77,2.22A150,150,0,0,0,222,59.59c0-10.44-4.34-1.73-25.77-1.73" transform="translate(0 0)" style="fill:#9bc2cc"/><path d="M196.24,41.83c-14.22,0-25.75,7.53-25.75,16.82a168.15,168.15,0,0,0,25.75,2,168.37,168.37,0,0,0,25.76-2c0-9.29-11.53-16.82-25.76-16.82" transform="translate(0 0)" style="fill:#a4cad8"/><path d="M196.24,60.62c-.28,0-4.8-12.79-6.13-16.49A24.54,24.54,0,0,1,188.66,36c0-5.59,3.4-10.13,7.58-10.13s7.58,4.54,7.58,10.13a27.22,27.22,0,0,1-1.45,8.17c-1.22,3.84-5.8,16.49-6.13,16.49" transform="translate(0 0)" style="fill:#b2d4e5"/><path d="M210.48,22.72a1.35,1.35,0,0,0-.77,0c-.74-7.93-6.5-14.12-13.47-14.12s-12.73,6.19-13.47,14.12a1.35,1.35,0,0,0-.77,0c-1.31.37-1.77,2.85-1,5.54.65,2.35,2,4.09,3.24,4.24a23.94,23.94,0,0,0,2.4,4.77c2.7,4,6.11,6.29,9.62,6.29s6.92-2.24,9.61-6.29a23.46,23.46,0,0,0,2.41-4.77c1.22-.15,2.58-1.89,3.24-4.24.75-2.69.29-5.17-1-5.54" transform="translate(0 0)" style="fill:#c7e5f8"/><polygon points="196.24 60.62 189.35 41.58 184.16 43.56 196.24 60.62" style="fill:#d7f0fc"/><polygon points="196.24 60.62 203.13 41.58 208.32 43.56 196.24 60.62" style="fill:#d7f0fc"/><path d="M196.39,4.81h-.47c-7.7.21-13.87,5.67-13.87,12.38a20.89,20.89,0,0,0,.79,4.95c.72-2.09,3.12-8.67,6.43-9.6,1.73-.48,4,2,6.63,2h.51c2.61,0,5.52-2.68,5.65-2.18.77,3.12,6.24,5.28,7.39,8.55a11.82,11.82,0,0,0,.8-3.69c0-4.26-2.3-9.78-6.27-10.24-.6-.07-1.32.15-1.89-.1s-.3-.9-1.53-1.38a12.19,12.19,0,0,0-4.17-.66" transform="translate(0 0)" style="fill:#a4cad8"/><path d="M204.11,5.38c0,2.59-3.25,4.68-7.27,4.68S189.57,8,189.57,5.38,192.83.71,196.84.71s7.27,2.09,7.27,4.67" transform="translate(0 0)" style="fill:#a4cad8"/></g></g></g></g></g></svg>