<svg id="Layer_1" data-name="Layer 1" xmlns="http://www.w3.org/2000/svg" xmlns:xlink="http://www.w3.org/1999/xlink" width="111.41" height="74.3" viewBox="0 0 111.41 74.3"><defs><clipPath id="clip-path" transform="translate(0 0)"><rect width="111.41" height="74.3" style="fill:none"/></clipPath></defs><title>Vector Smart Object</title><g style="clip-path:url(#clip-path)"><path d="M31.83,61C5.61,61,0,50.28,0,63.18a185.68,185.68,0,0,0,31.83,2.74,185.68,185.68,0,0,0,31.83-2.74c0-12.9-5.37-2.14-31.83-2.14" transform="translate(0 0)" style="fill:#283d48"/><path d="M31.83,40.69C14.25,40.69,0,50,0,61.48a208.09,208.09,0,0,0,31.83,2.43,208.09,208.09,0,0,0,31.83-2.43c0-11.48-14.25-20.78-31.83-20.78" transform="translate(0 0)" style="fill:#344e5c"/><path d="M31.83,51.62c-3,0-7-.65-9.22-4.55-2.08-3.57-2.18-8.17-2.18-12.29,0-8.4,5.12-15.23,11.41-15.23s11.41,6.83,11.41,15.23c0,4.12-.11,8.71-2.18,12.29-2.27,3.9-6.27,4.55-9.22,4.55" transform="translate(0 0)" style="fill:#e0c177"/><path d="M49.7,19.89a1.69,1.69,0,0,0-.95,0c-.92-9.8-8-17.45-16.65-17.45S16.37,10.11,15.45,19.91a1.69,1.69,0,0,0-.95,0c-1.63.45-2.2,3.52-1.27,6.84.81,2.91,2.5,5.06,4,5.24a29.28,29.28,0,0,0,3,5.9c3.33,5,7.55,7.78,11.88,7.78S40.66,42.88,44,37.87A29.28,29.28,0,0,0,47,32c1.5-.18,3.19-2.33,4-5.24.93-3.32.36-6.39-1.27-6.84" transform="translate(0 0)" style="fill:#f1cf7f"/><polygon points="20.82 41.67 18.1 43.95 28.35 63.82 31.89 63.91 29.35 56.66 20.82 41.67" style="fill:#e6e7e8"/><polygon points="42.87 41.57 45.84 43.95 35.85 63.82 32.05 63.91 34.35 57.68 42.87 41.57" style="fill:#e6e7e8"/><polygon points="37.85 51.94 34.99 49.7 32.19 49.7 32.02 49.7 29.21 49.7 26.36 51.99 29.35 57.68 28.35 63.91 32.02 63.91 32.19 63.91 35.85 63.91 34.85 57.68 37.85 51.94" style="fill:#344e5c"/><polygon points="29.21 49.7 27.15 53.49 26.36 51.99 29.21 49.7" style="fill:#283d48"/><polygon points="35 49.7 36.97 53.62 37.85 51.94 35 49.7" style="fill:#283d48"/><polygon points="34.85 57.68 29.35 57.68 31.89 58.25 31.89 63.91 35.85 63.91 34.85 57.68" style="fill:#283d48"/><polygon points="54.29 61.37 44.23 62.56 44.23 63.58 54.29 62.71 54.29 61.37" style="fill:#fff"/><polygon points="23.03 54.53 29.21 49.7 20.82 41.67 17.5 42.91 23.03 54.53" style="fill:#f1f2f2"/><polygon points="40.99 54.47 35.06 49.7 42.87 41.57 46.43 43 40.99 54.47" style="fill:#f1f2f2"/><path d="M27.75,24.54c.88.55-1.39,1.66-3.22,1.55-1.67-.1-3.14-.85-3.14-1.48s1.47-1.16,3.14-1.16a5.55,5.55,0,0,1,3.22,1.09" transform="translate(0 0)" style="fill:#fff"/><path d="M24.53,22.86c1.6-.18,3.44,1.92,3.44,1.92A8,8,0,0,0,25.8,24a1.26,1.26,0,1,1-2.43.46,1.28,1.28,0,0,1,0-.28,7.49,7.49,0,0,1-2,.43c-.83-.14,1.55-1.58,3.15-1.76" transform="translate(0 0)" style="fill:#71593b"/><path d="M27.77,21.36A4.47,4.47,0,0,1,28.42,23a6.06,6.06,0,0,0-5.63-.85,4.12,4.12,0,0,1-2.84.22c2.34-2.9,7.46-1.33,7.82-1" transform="translate(0 0)" style="fill:#e0bc73"/><path d="M25.38,24.28a.34.34,0,1,1-.34-.34.34.34,0,0,1,.34.34" transform="translate(0 0)" style="fill:#fff"/><path d="M37.24,24.54c-.88.55,1.38,1.66,3.22,1.55,1.67-.1,3.14-.85,3.14-1.48s-1.47-1.16-3.14-1.16a5.55,5.55,0,0,0-3.22,1.09" transform="translate(0 0)" style="fill:#fff"/><path d="M40.46,22.86c-1.6-.18-3.44,1.92-3.44,1.92A8,8,0,0,1,39.19,24a1.26,1.26,0,1,0,2.43.46,1.28,1.28,0,0,0,0-.28,7.49,7.49,0,0,0,2,.43c.83-.14-1.55-1.58-3.15-1.76" transform="translate(0 0)" style="fill:#71593b"/><path d="M37.21,21.36A4.47,4.47,0,0,0,36.56,23a6.06,6.06,0,0,1,5.63-.85,4.12,4.12,0,0,0,2.84.22c-2.34-2.9-7.46-1.33-7.82-1" transform="translate(0 0)" style="fill:#e0bc73"/><path d="M40.46,24.26a.34.34,0,1,0,.34-.34.34.34,0,0,0-.34.34" transform="translate(0 0)" style="fill:#fff"/><path d="M32.43,41a8,8,0,0,0-3.25.87,4.51,4.51,0,0,1,3.25-1.16,4.77,4.77,0,0,1,3.25,1.16A7.67,7.67,0,0,0,32.43,41" transform="translate(0 0)" style="fill:#e0bc73"/><path d="M29.38,30.93S31,33.21,32.3,33.21a4.72,4.72,0,0,0,3.19-2.28,6.57,6.57,0,0,1-6.1,0" transform="translate(0 0)" style="fill:#e0bc73"/><path d="M34.51,31.7c-.39.35-.62.71-.53.82s.49-.09.88-.43a2,2,0,0,0,.53-.82,2,2,0,0,0-.87.43" transform="translate(0 0)" style="fill:#c9a565"/><path d="M30.45,31.7c.39.35.63.71.53.82s-.49-.09-.87-.43a2,2,0,0,1-.53-.82,2,2,0,0,1,.88.43" transform="translate(0 0)" style="fill:#c9a565"/><path d="M25.09,27.28A7.24,7.24,0,0,0,28,26.34a4,4,0,0,1-2.85,1.2,4.27,4.27,0,0,1-3-.87,6.88,6.88,0,0,0,3,.61" transform="translate(0 0)" style="fill:#e0bc73"/><path d="M40.19,27.28a7.24,7.24,0,0,1-2.87-.94,4,4,0,0,0,2.85,1.2,4.27,4.27,0,0,0,3-.87,6.88,6.88,0,0,1-3,.61" transform="translate(0 0)" style="fill:#e0bc73"/><path d="M32.43,0h-.58c-9.56.24-17.22,6.4-17.22,14a21.53,21.53,0,0,0,1,5.57c.9-2.35,3.87-9.78,8-10.82,2.15-.54,5,2.22,8.23,2.22h.63c3.25,0,6.86-3,7-2.46,1,3.52,7.75,6,9.19,9.64a12.23,12.23,0,0,0,1-4.15c0-4.81-2.86-11-7.79-11.56a9.18,9.18,0,0,1-2.35-.1c-.71-.28-.37-1-1.9-1.57A16.85,16.85,0,0,0,32.43,0" transform="translate(0 0)" style="fill:#231f20"/><path d="M38.81,8.46c.07-.15-.15-.31-.38-.35s-.48,0-.71,0c-.66-.06-1.13-.58-.93-1A2.39,2.39,0,0,0,37.9,7c.33-.13.52-.45.29-.65a5.86,5.86,0,0,1-1.43-.29,4.17,4.17,0,0,0,2.11-1.27c.23-.2-.08-.48-.39-.62s-.68-.34-.6-.58a.73.73,0,0,1,.18-.24,1,1,0,0,0,.08-1.42.65.65,0,0,0-.22-.19,1.32,1.32,0,0,0-.46-.1c-.75-.07-1.5-.1-2.26-.09s-1.77.25-1.66.76a.78.78,0,0,0-.74.91,22.6,22.6,0,0,0,3.1.12A17.54,17.54,0,0,0,29.62,4a1.18,1.18,0,0,0,.61.18l3.88.4L32,5a1.14,1.14,0,0,1-.39.75,6.43,6.43,0,0,1,2,.11,3.29,3.29,0,0,0-2.08.47l1.88,0c.16.17-.27.29-.56.29-.64,0-1.44.31-1.26.73.74-.07,1.67-.07,2,.38l-1.31.44,1.17.07-1,.52a9.8,9.8,0,0,0,3.16.43l-1.28.12a3.55,3.55,0,0,0,2.43-.54l2-.3" transform="translate(0 0)" style="fill:#414042"/><path d="M36,36.29a15.54,15.54,0,0,0-7.17,0,5.87,5.87,0,0,1-1.51-.37c.08.14.26.43.65,1a5.54,5.54,0,0,0,4.44,2.82h0a5.53,5.53,0,0,0,4.44-2.82c.39-.6.57-.89.65-1a5.27,5.27,0,0,1-1.51.37" transform="translate(0 0)" style="fill:#e5bf7b"/><path d="M36.66,37.15a35.37,35.37,0,0,1-4.23.3,35.36,35.36,0,0,1-4.23-.3,12.46,12.46,0,0,0,4,1.24h.36a12.46,12.46,0,0,0,4.05-1.24" transform="translate(0 0)" style="fill:#fff"/><path d="M79.58,69.42c-26.22,0-31.83-10.76-31.83,2.14A185.74,185.74,0,0,0,79.58,74.3a185.74,185.74,0,0,0,31.83-2.74c0-12.9-5.37-2.14-31.83-2.14" transform="translate(0 0)" style="fill:#283d48"/><path d="M79.58,49.08c-17.58,0-31.83,9.3-31.83,20.78a208,208,0,0,0,31.83,2.43,208,208,0,0,0,31.83-2.43c0-11.48-14.25-20.78-31.83-20.78" transform="translate(0 0)" style="fill:#344e5c"/><path d="M79.58,60c-3,0-7-.65-9.22-4.55-2.08-3.57-2.18-8.17-2.18-12.29,0-8.4,5.12-15.23,11.41-15.23S91,34.77,91,43.17c0,4.12-.11,8.71-2.18,12.29C86.54,59.35,82.53,60,79.58,60" transform="translate(0 0)" style="fill:#e0c177"/><path d="M79.58,54C75.25,54,71,51.26,67.7,46.25a29.79,29.79,0,0,1-4.87-15.81c0-10.81,7.52-19.6,16.76-19.6s16.76,8.79,16.76,19.6a29.78,29.78,0,0,1-4.87,15.81c-3.33,5-7.55,7.78-11.88,7.78" transform="translate(0 0)" style="fill:#f1cf7f"/><polygon points="86.02 62.62 82.74 58.08 79.93 58.08 79.77 58.08 76.96 58.08 73.68 62.62 77.1 66.06 76.1 72.29 79.77 72.29 79.93 72.29 83.6 72.29 82.6 66.06 86.02 62.62" style="fill:#59b4de"/><polygon points="87.71 66.64 82.81 58.08 90.94 49.95 96.34 51.95 87.71 66.64" style="fill:#f1f2f2"/><polygon points="72.05 66.64 76.96 58.08 68.83 49.95 63.43 51.95 72.05 66.64" style="fill:#f1f2f2"/><polygon points="76.96 58.08 75.15 64.1 74.11 63.05 76.96 58.08" style="fill:#00a1cb"/><polygon points="82.75 58.08 84.55 64.1 85.59 63.05 82.75 58.08" style="fill:#00a1cb"/><polygon points="82.6 66.06 77.1 66.06 79.64 66.64 79.64 72.29 83.6 72.29 82.6 66.06" style="fill:#00a1cb"/><path d="M75.1,33.92c.88.55-1.38,1.66-3.22,1.55-1.67-.1-3.14-.85-3.14-1.48s1.47-1.16,3.14-1.16a5.54,5.54,0,0,1,3.22,1.09" transform="translate(0 0)" style="fill:#fff"/><path d="M71.89,32.24c1.6-.18,3.43,1.92,3.43,1.92a8.08,8.08,0,0,0-2.17-.78,1.26,1.26,0,1,1-2.43.46,1.27,1.27,0,0,1,0-.28,7.51,7.51,0,0,1-2,.43c-.83-.14,1.55-1.57,3.15-1.76" transform="translate(0 0)" style="fill:#71593b"/><path d="M75.13,30.74a4.47,4.47,0,0,1,.65,1.66,6.06,6.06,0,0,0-5.63-.85,4.12,4.12,0,0,1-2.84.22c2.34-2.9,7.46-1.33,7.82-1" transform="translate(0 0)" style="fill:#e0bc73"/><path d="M72.73,33.66a.34.34,0,1,1-.34-.34.34.34,0,0,1,.34.34" transform="translate(0 0)" style="fill:#fff"/><path d="M84.6,33.92c-.88.55,1.38,1.66,3.22,1.55C89.49,35.37,91,34.62,91,34s-1.47-1.16-3.14-1.16a5.54,5.54,0,0,0-3.22,1.09" transform="translate(0 0)" style="fill:#fff"/><path d="M87.81,32.24c-1.6-.18-3.44,1.92-3.44,1.92a8.08,8.08,0,0,1,2.17-.78,1.26,1.26,0,1,0,2.43.46,1.22,1.22,0,0,0,0-.28A7.51,7.51,0,0,0,91,34c.83-.14-1.54-1.57-3.15-1.76" transform="translate(0 0)" style="fill:#71593b"/><path d="M84.57,30.74a4.47,4.47,0,0,0-.65,1.66,6.06,6.06,0,0,1,5.63-.85,4.12,4.12,0,0,0,2.84.22c-2.34-2.9-7.46-1.33-7.82-1" transform="translate(0 0)" style="fill:#e0bc73"/><path d="M87.81,33.64a.34.34,0,1,0,.34-.34.34.34,0,0,0-.34.34" transform="translate(0 0)" style="fill:#fff"/><path d="M76.74,40.31s1.64,2.28,2.92,2.28a4.72,4.72,0,0,0,3.19-2.28,6.57,6.57,0,0,1-6.1,0" transform="translate(0 0)" style="fill:#e0bc73"/><path d="M81.87,41.08c-.39.35-.62.71-.53.82s.49-.09.88-.43a2,2,0,0,0,.53-.82,2,2,0,0,0-.87.43" transform="translate(0 0)" style="fill:#c9a565"/><path d="M77.8,41.08c.39.35.62.71.53.82s-.49-.09-.87-.43a2,2,0,0,1-.53-.82,2,2,0,0,1,.88.43" transform="translate(0 0)" style="fill:#c9a565"/><path d="M79.88,9.89h-.59c-9.69.27-17.46,7.06-17.46,15.4a25.59,25.59,0,0,0,1,6.14c.91-2.59,3.92-10.78,8.09-11.93,2.18-.6,5,2.45,8.34,2.45h.64c3.29,0,7-3.33,7.12-2.71,1,3.88,7.85,6.56,9.31,10.62a14.49,14.49,0,0,0,1-4.58c0-5.3-2.9-12.17-7.89-12.74-.76-.09-1.66.19-2.38-.12s-.37-1.12-1.92-1.72a15.79,15.79,0,0,0-5.26-.82" transform="translate(0 0)" style="fill:#283f47"/><path d="M94.09,30.89a.26.26,0,0,0-.11-.22c-1-.6-3.13-.82-6.41-.95a17.41,17.41,0,0,0-6.83,1.51h-.15a7.33,7.33,0,0,0-1.47,0H79a17.41,17.41,0,0,0-6.83-1.51c-3.28.13-5.38.35-6.41.95a.26.26,0,0,0-.11.22c0,.15,0,1,0,1.21,0,0,.29.09.42.6s.4,2.38.55,2.86a8.35,8.35,0,0,0,.9,2.31,8.92,8.92,0,0,0,4,1c1.59,0,3.91-.1,4.65-.68,1.21-.95,2.4-4.36,2.73-5a.67.67,0,0,1,.24-.26v0a1.53,1.53,0,0,1,1.45,0v0a.68.68,0,0,1,.24.26c.33.64,1.52,4.06,2.73,5,.74.58,3.06.66,4.65.68a8.93,8.93,0,0,0,4-1,8.32,8.32,0,0,0,.9-2.31c.15-.48.42-2.36.55-2.86s.42-.6.42-.6c0-.2,0-1.06,0-1.21M78.06,33c-.68,2.91-1.72,4.34-2.31,4.78s-3.35.59-4,.59c-1,0-3.24-.26-4-1.39s-.84-3.61-.77-4.61a1.92,1.92,0,0,1,1.15-1.7,18.18,18.18,0,0,1,3.81-.51c.4,0,6.81-.09,6.13,2.82M92,37c-.79,1.12-3,1.39-4,1.39-.62,0-3.37-.15-4-.59S82.32,35.93,81.64,33s5.73-2.83,6.13-2.82a18.18,18.18,0,0,1,3.81.51,1.92,1.92,0,0,1,1.15,1.7c.07,1,0,3.48-.77,4.61" transform="translate(0 0)" style="fill:#344e5c"/><path d="M83.81,44.88a18.87,18.87,0,0,0-8.45,0,7.15,7.15,0,0,1-1.78-.43c.1.16.3.49.77,1.17a6.54,6.54,0,0,0,5.23,3.21h0a6.54,6.54,0,0,0,5.23-3.21c.46-.68.67-1,.77-1.17a6.41,6.41,0,0,1-1.78.43" transform="translate(0 0)" style="fill:#e5bf7b"/><path d="M83.84,45.68a35.8,35.8,0,0,1-4.26.3,35.83,35.83,0,0,1-4.26-.3,12.6,12.6,0,0,0,4.08,1.24h.37a12.6,12.6,0,0,0,4.08-1.24" transform="translate(0 0)" style="fill:#fff"/></g></svg>