<svg xmlns="http://www.w3.org/2000/svg" viewBox="0 0 53.7 39.79"><defs><clipPath id="a"><path fill="none" d="M0 0h53.7v39.79H0z"/></clipPath><clipPath id="b"><path fill="none" d="M0 0h53.7v39.79H0z"/></clipPath></defs><title>all_data</title><g clip-path="url(#a)" data-name="Layer 2"><g clip-path="url(#b)" data-name="Layer 1"><path d="M51.5 30.7a2.42 2.42 0 0 1-2.42-2.42V9.47a7.26 7.26 0 0 0-7.25-7.25h-2.37v1h2.38a6.25 6.25 0 0 1 6.25 6.25v18.81a3.42 3.42 0 0 0 3.41 3.42h2.2v-1z" fill="#d04f48"/><path d="M51.39 31.73a3.35 3.35 0 0 1-3.34-3.35V9.66a6.35 6.35 0 0 0-6.35-6.35h-2.26v1h2.27a5.34 5.34 0 0 1 5.35 5.35v18.72a4.34 4.34 0 0 0 4.34 4.35h2.29v-1z" fill="#f1c849"/><path d="M51.35 32.75A4.32 4.32 0 0 1 47 28.42V9.66a5.33 5.33 0 0 0-5.33-5.33h-2.3v1h2.3A4.33 4.33 0 0 1 46 9.66v18.76a5.32 5.32 0 0 0 5.32 5.33h2.3v-1z" fill="#10967b"/><path d="M51.23 34.8A6.25 6.25 0 0 1 45 28.55V9.8a3.42 3.42 0 0 0-3.42-3.42h-2.22v1h2.21A2.43 2.43 0 0 1 44 9.8v18.75a7.24 7.24 0 0 0 7.25 7.25h2.35v-1z" fill="#00a1cb"/><path d="M51.35 33.78A5.36 5.36 0 0 1 46 28.42V9.7a4.34 4.34 0 0 0-4.34-4.34h-2.27v1h2.28A3.34 3.34 0 0 1 45 9.7v18.72a6.35 6.35 0 0 0 6.35 6.36h2.28v-1z" fill="#3b589f"/><path fill="#3a5665" d="M50.73 30.24h2.97v5.98h-2.97z"/><path fill="#608ea6" d="M53.01 30.73h.69v.82h-.69zm0 1.04h.69v.82h-.69zm0 1.05h.69v.82h-.69zm0 1.05h.69v.82h-.69zm0 1.04h.69v.82h-.69z"/><path d="M45.77 28.17s-12.88-.81-22.25-.81-22.24.81-22.24.81A1.24 1.24 0 0 0 0 29.39v8.38A1.24 1.24 0 0 0 1.28 39s12.88.81 22.24.81S45.77 39 45.77 39a1.25 1.25 0 0 0 1.28-1.21v-8.4a1.25 1.25 0 0 0-1.28-1.22" fill="#a7a9ac"/><path d="M45.77 27.16s-12.88-.82-22.25-.82-22.24.82-22.24.82A1.24 1.24 0 0 0 0 28.37v8.38A1.24 1.24 0 0 0 1.28 38s12.88.82 22.24.82S45.77 38 45.77 38a1.25 1.25 0 0 0 1.28-1.21v-8.42a1.25 1.25 0 0 0-1.28-1.21m0-13.16s-12.88-.81-22.25-.81S1.28 14 1.28 14A1.25 1.25 0 0 0 0 15.2v8.38a1.24 1.24 0 0 0 1.28 1.21s12.88.82 22.24.82 22.25-.82 22.25-.82a1.25 1.25 0 0 0 1.28-1.21V15.2a1.26 1.26 0 0 0-1.28-1.2m0-13.19S32.89 0 23.52 0 1.28.81 1.28.81A1.24 1.24 0 0 0 0 2v8.38a1.24 1.24 0 0 0 1.28 1.21s12.88.82 22.24.82 22.25-.82 22.25-.82a1.25 1.25 0 0 0 1.28-1.21V2A1.25 1.25 0 0 0 45.77.81" fill="#d1d3d4"/><path fill="#a3a5a8" d="M9.43 29.73l-5.99 5.58h1.62l5.99-5.58H9.43zm2.69 0l-5.99 5.58h1.62l5.99-5.58h-1.62zm2.7 0l-5.99 5.58h1.62l5.99-5.58h-1.62zm2.7 0l-5.99 5.58h1.62l5.99-5.58h-1.62zm2.69 0l-5.99 5.58h1.62l5.99-5.58h-1.62zm2.7 0l-5.99 5.58h1.62l5.99-5.58h-1.62zm2.69 0l-5.99 5.58h1.62l5.99-5.58H25.6zm2.7 0l-5.99 5.58h1.62l5.99-5.58H28.3zm2.7 0l-5.99 5.58h1.62l5.99-5.58H31zm-26.97 0l-.59.56v1.51h.36l1.85-2.07H4.03zm2.7 0L3.44 32.8v1.51h.36l4.55-4.58H6.73zm25.56 5.65l.6-.55.38-1.51h-.38l-2.22 2.06h1.62zm-4.32 0h1.62l3.3-3.06.38-1.51h-.38l-4.92 4.57z"/><path fill="#bcbec0" d="M9.81 29.73l-5.99 5.58h1.62l5.99-5.58H9.81zm2.7 0l-5.99 5.58h1.62l5.99-5.58h-1.62zm2.7 0l-6 5.58h1.63l5.98-5.58h-1.61zm2.69 0l-5.99 5.58h1.62l5.99-5.58H17.9zm2.7 0l-5.99 5.58h1.62l5.99-5.58H20.6zm2.69 0l-5.99 5.58h1.62l5.99-5.58h-1.62zm2.7 0L20 35.31h1.62l5.99-5.58h-1.62zm2.7 0l-5.99 5.58h1.62l5.99-5.58h-1.62zm2.69 0l-5.99 5.58h1.62L33 29.73h-1.62zm-26.96 0l-.6.56v1.51l2.22-2.07H4.42zm2.7 0l-3.3 3.07v1.51l4.92-4.58H7.12zm25.55 5.65l.6-.55v-1.51l-2.22 2.06h1.62zm-4.31 0h1.62l3.29-3.06v-1.51l-4.91 4.57z"/><path d="M2.64 28.91a.76.76 0 1 1-1.52 0 .76.76 0 0 1 1.52 0" fill="#c4c6c8"/><path d="M2.54 28.74a.77.77 0 1 1-.77-.74.76.76 0 0 1 .77.76" fill="#344e5c"/><path d="M2.64 36.28a.76.76 0 1 1-.76-.76.76.76 0 0 1 .76.76" fill="#c4c6c8"/><path d="M2.54 36.11a.77.77 0 0 1-.77.76.76.76 0 0 1-.77-.76.77.77 0 0 1 .76-.77.78.78 0 0 1 .77.77" fill="#344e5c"/><path fill="#a3a5a8" d="M9.43 16.56l-5.99 5.58h1.62l5.99-5.58H9.43zm2.69 0l-5.99 5.58h1.62l5.99-5.58h-1.62zm2.7 0l-5.99 5.58h1.62l5.99-5.58h-1.62zm2.7 0l-5.99 5.58h1.62l5.99-5.58h-1.62zm2.69 0l-5.99 5.58h1.62l5.99-5.58h-1.62zm2.7 0l-5.99 5.58h1.62l5.99-5.58h-1.62zm2.69 0l-5.99 5.58h1.62l5.99-5.58H25.6zm2.7 0l-5.99 5.58h1.62l5.99-5.58H28.3zm2.7 0l-5.99 5.58h1.62l5.99-5.58H31zm-26.97 0l-.59.56v1.51h.36l1.85-2.07H4.03zm2.7 0l-3.29 3.07v1.51h.36l4.55-4.58H6.73zm25.56 5.65l.6-.55.38-1.51h-.38l-2.22 2.06h1.62zm-4.32 0h1.62l3.3-3.06.38-1.51h-.38l-4.92 4.57z"/><path fill="#bcbec0" d="M9.81 16.56l-5.99 5.58h1.62l5.99-5.58H9.81zm2.7 0l-5.99 5.58h1.62l5.99-5.58h-1.62zm2.7 0l-6 5.58h1.63l5.98-5.58h-1.61zm2.69 0l-5.99 5.58h1.62l5.99-5.58H17.9zm2.7 0l-5.99 5.58h1.62l5.99-5.58H20.6zm2.69 0l-5.99 5.58h1.62l5.99-5.58h-1.62zm2.7 0L20 22.14h1.62l5.99-5.58h-1.62zm2.7 0l-5.99 5.58h1.62l5.99-5.58h-1.62zm2.69 0l-5.99 5.58h1.62L33 16.56h-1.62zm-26.96 0l-.6.56v1.51l2.22-2.07H4.42zm2.7 0l-3.3 3.07v1.51l4.92-4.58H7.12zm25.55 5.65l.6-.55v-1.51l-2.22 2.06h1.62zm-4.31 0h1.62l3.29-3.06v-1.51l-4.91 4.57z"/><path d="M2.64 15.74a.76.76 0 1 1-.76-.74.76.76 0 0 1 .76.76" fill="#c4c6c8"/><path d="M2.54 15.57a.77.77 0 0 1-.77.76.76.76 0 1 1 .77-.76" fill="#344e5c"/><path d="M2.64 23.11a.76.76 0 1 1-1.52 0 .76.76 0 1 1 1.52 0" fill="#c4c6c8"/><path d="M2.54 22.94a.77.77 0 0 1-.77.76.77.77 0 0 1 0-1.53.77.77 0 0 1 .77.77" fill="#344e5c"/><path fill="#a3a5a8" d="M9.43 3.39L3.44 8.97h1.62l5.99-5.58H9.43zm2.69 0L6.13 8.97h1.62l5.99-5.58h-1.62zm2.7 0L8.83 8.97h1.62l5.99-5.58h-1.62zm2.7 0l-5.99 5.58h1.62l5.99-5.58h-1.62zm2.69 0l-5.99 5.58h1.62l5.99-5.58h-1.62zm2.7 0l-5.99 5.58h1.62l5.99-5.58h-1.62zm2.69 0l-5.99 5.58h1.62l5.99-5.58H25.6zm2.7 0l-5.99 5.58h1.62l5.99-5.58H28.3zm2.7 0l-5.99 5.58h1.62l5.99-5.58H31zm-26.97 0l-.59.56v1.51h.36l1.85-2.07H4.03zm2.7 0L3.44 6.46v1.5h.36l4.55-4.57H6.73zm25.56 5.65l.6-.55.38-1.51h-.38l-2.22 2.06h1.62zm-4.32 0h1.62l3.3-3.06.38-1.51h-.38l-4.92 4.57z"/><path fill="#bcbec0" d="M9.81 3.39L3.82 8.97h1.62l5.99-5.58H9.81zm2.7 0L6.52 8.97h1.62l5.99-5.58h-1.62zm2.7 0l-6 5.58h1.63l5.98-5.58h-1.61zm2.69 0l-5.99 5.58h1.62l5.99-5.58H17.9zm2.7 0l-5.99 5.58h1.62l5.99-5.58H20.6zm2.69 0L17.3 8.97h1.62l5.99-5.58h-1.62zm2.7 0L20 8.97h1.62l5.99-5.58h-1.62zm2.7 0L22.7 8.97h1.62l5.99-5.58h-1.62zm2.69 0l-5.99 5.58h1.62L33 3.39h-1.62zm-26.96 0l-.6.56v1.51l2.22-2.07H4.42zm2.7 0l-3.3 3.07v1.5l4.92-4.57H7.12zm25.55 5.65l.6-.55V6.98l-2.22 2.06h1.62zm-4.31 0h1.62l3.29-3.06V4.47l-4.91 4.57z"/><path d="M2.64 2.57a.76.76 0 1 1-.76-.76.76.76 0 0 1 .76.76" fill="#c4c6c8"/><path d="M2.54 2.4a.77.77 0 0 1-.77.76.76.76 0 1 1 .77-.76" fill="#344e5c"/><path d="M2.64 9.94a.76.76 0 0 1-1.52 0 .76.76 0 1 1 1.52 0" fill="#c4c6c8"/><path d="M2.54 9.77A.77.77 0 0 1 1 9.76.76.76 0 0 1 1.77 9a.77.77 0 0 1 .77.77m.9 1.98h40.49v2.13H3.44zm0 13.13h40.49v2.13H3.44z" fill="#344e5c"/><path d="M46.24 28.91a.77.77 0 1 1-1.53 0 .77.77 0 0 1 1.53 0" fill="#c4c6c8"/><path d="M46.13 28.74a.76.76 0 1 1-.76-.76.75.75 0 0 1 .76.76" fill="#344e5c"/><path d="M46.24 36.28a.77.77 0 1 1-.77-.76.76.76 0 0 1 .77.76" fill="#c4c6c8"/><path d="M46.13 36.11a.76.76 0 0 1-1.52 0 .76.76 0 1 1 1.52 0" fill="#344e5c"/><path d="M46.24 15.74a.77.77 0 1 1-.77-.76.76.76 0 0 1 .77.76" fill="#c4c6c8"/><path d="M46.13 15.57a.76.76 0 1 1-.76-.76.76.76 0 0 1 .76.76" fill="#344e5c"/><path d="M46.24 23.11a.77.77 0 1 1-.77-.77.77.77 0 0 1 .77.77" fill="#c4c6c8"/><path d="M46.13 22.94a.76.76 0 1 1-.76-.77.77.77 0 0 1 .76.77" fill="#344e5c"/><path d="M46.24 2.57a.77.77 0 1 1-.77-.76.76.76 0 0 1 .77.76" fill="#c4c6c8"/><path d="M46.13 2.4a.76.76 0 1 1-.76-.76.76.76 0 0 1 .76.76" fill="#344e5c"/><path d="M46.24 9.94a.77.77 0 1 1-.77-.77.77.77 0 0 1 .77.77" fill="#c4c6c8"/><path d="M46.13 9.77a.76.76 0 1 1-.76-.77.77.77 0 0 1 .76.77" fill="#344e5c"/><path d="M40.65 6.18a1.74 1.74 0 1 1-1.73-1.74 1.73 1.73 0 0 1 1.73 1.74" fill="#00a1cb"/><path d="M40 5.18c0 .3-.46.54-1 .54s-1-.24-1-.54.46-.55 1-.55 1 .24 1 .55" fill="#5fccf5"/><path d="M40 7.21c0 .3-.46.55-1 .55s-1-.25-1-.55.46-.54 1-.54 1 .24 1 .54" fill="#008eb8"/><path d="M37.35 6.18a1.57 1.57 0 0 1 3.13 0h.34a1.91 1.91 0 1 0-3.81 0z" fill="#bcbec0"/><path d="M40.48 6.18a1.57 1.57 0 0 1-3.13 0H37a1.91 1.91 0 0 0 3.81 0z" fill="#e6e7e8"/><path d="M40.65 19.35a1.74 1.74 0 1 1-1.73-1.73 1.73 1.73 0 0 1 1.73 1.73" fill="#00a1cb"/><path d="M40 18.35c0 .3-.46.54-1 .54s-1-.24-1-.54.46-.55 1-.55 1 .24 1 .55" fill="#5fccf5"/><path d="M40 20.38c0 .3-.46.55-1 .55s-1-.25-1-.55.46-.54 1-.54 1 .24 1 .54" fill="#008eb8"/><path d="M37.35 19.35a1.57 1.57 0 0 1 3.13 0h.34a1.91 1.91 0 1 0-3.81 0z" fill="#bcbec0"/><path d="M40.48 19.35a1.57 1.57 0 0 1-3.13 0H37a1.91 1.91 0 1 0 3.81 0z" fill="#e6e7e8"/><path d="M40.65 32.87a1.74 1.74 0 1 1-1.73-1.74 1.73 1.73 0 0 1 1.73 1.74" fill="#00a1cb"/><path d="M40 31.86c0 .31-.46.55-1 .55s-1-.24-1-.55.46-.54 1-.54 1 .24 1 .54" fill="#5fccf5"/><path d="M40 33.9c0 .3-.46.55-1 .55s-1-.25-1-.55.46-.55 1-.55 1 .25 1 .55" fill="#008eb8"/><path d="M37.35 32.87a1.57 1.57 0 0 1 3.13 0h.34a1.91 1.91 0 1 0-3.81 0z" fill="#bcbec0"/><path d="M40.48 32.87a1.57 1.57 0 0 1-3.13 0H37a1.91 1.91 0 0 0 3.81 0z" fill="#e6e7e8"/></g></g></svg>