<svg xmlns="http://www.w3.org/2000/svg" viewBox="0 0 71.5 89.39"><defs><clipPath id="a"><path fill="none" d="M0 0h71.5v89.39H0z"/></clipPath></defs><g data-name="Layer 2"><g clip-path="url(#a)" data-name="Layer 1"><path d="M44 64.26v6.39c-.08 0-.1.09-.13.15a1.39 1.39 0 0 1-1.16.72c-1.11.12-2.2.28-3.31.4a.51.51 0 0 0-.53.42A16.11 16.11 0 0 1 37.29 76a.25.25 0 0 0 0 .34l2.25 2.87a1.31 1.31 0 0 1-.06 1.79q-1.86 1.86-3.7 3.73a1.42 1.42 0 0 1-2.2.15l-2.65-2.07a.27.27 0 0 0-.39 0 17.12 17.12 0 0 1-3.7 1.54.4.4 0 0 0-.35.39c-.09.91-.21 1.81-.31 2.72s-.14 1.62-1.05 2h-6.38c0-.08-.1-.1-.15-.13a1.38 1.38 0 0 1-.73-1.16c-.12-1.12-.27-2.23-.4-3.34a.47.47 0 0 0-.38-.49 15.64 15.64 0 0 1-3.71-1.54c-.15-.09-.23 0-.36 0L10.21 85a1.3 1.3 0 0 1-1.8-.06c-1.31-1.3-2.6-2.62-3.9-3.92a1.32 1.32 0 0 1-.1-1.83l2.22-2.84a.24.24 0 0 0 0-.33 17.41 17.41 0 0 1-1.55-3.82c-.08-.2-.18-.2-.35-.26-.91-.1-1.83-.2-2.74-.32a4.15 4.15 0 0 1-1.34-.27c-.31-.15-.41-.49-.65-.7v-6.46c.07 0 .09-.08.11-.12a1.47 1.47 0 0 1 1.22-.77c1.1-.11 2.2-.27 3.31-.39a.46.46 0 0 0 .48-.38 16.82 16.82 0 0 1 1.52-3.67.29.29 0 0 0 0-.4c-.75-.94-1.48-1.89-2.23-2.83a1.31 1.31 0 0 1 .1-1.78l3.93-3.93a1.31 1.31 0 0 1 1.8-.08c.94.75 1.9 1.48 2.84 2.23a.25.25 0 0 0 .33 0 17.5 17.5 0 0 1 3.74-1.56.41.41 0 0 0 .34-.4c.09-.89.2-1.78.31-2.68 0-.33.09-.67.14-1 .08-.51.49-.74.84-1h6.38a1.56 1.56 0 0 1 .95 1.27c.11 1.15.28 2.3.41 3.45a.39.39 0 0 0 .32.38 16.77 16.77 0 0 1 3.74 1.55.26.26 0 0 0 .36 0c.95-.76 1.92-1.5 2.87-2.25a1.33 1.33 0 0 1 1.7 0l4 4a1.3 1.3 0 0 1 .09 1.8c-.75 1-1.48 1.9-2.23 2.84a.26.26 0 0 0 0 .34 17.45 17.45 0 0 1 1.57 3.73.4.4 0 0 0 .39.35c.91.09 1.81.21 2.72.31s1.62.14 2 1.05M22 78.4a11 11 0 1 0-11-11 11 11 0 0 0 11 11" fill="#10967b"/><path d="M44 63v6.39c-.08 0-.1.1-.13.15a1.38 1.38 0 0 1-1.16.73c-1.11.12-2.2.27-3.31.4a.51.51 0 0 0-.53.41 16.18 16.18 0 0 1-1.53 3.67.25.25 0 0 0 0 .34l2.25 2.86a1.31 1.31 0 0 1-.09 1.77l-3.7 3.73a1.41 1.41 0 0 1-2.2.16l-2.65-2.08a.29.29 0 0 0-.39 0A16.63 16.63 0 0 1 26.84 83a.42.42 0 0 0-.35.4c-.09.91-.21 1.81-.31 2.71s-.14 1.62-1.05 2h-6.38c0-.09-.1-.1-.15-.13a1.38 1.38 0 0 1-.73-1.17c-.12-1.11-.27-2.22-.4-3.34a.47.47 0 0 0-.38-.48 16.51 16.51 0 0 1-3.71-1.54c-.15-.09-.23 0-.36.05l-2.81 2.21a1.31 1.31 0 0 1-1.8-.07c-1.31-1.3-2.6-2.61-3.9-3.92a1.3 1.3 0 0 1-.1-1.82l2.22-2.84a.25.25 0 0 0 0-.34 17.33 17.33 0 0 1-1.58-3.8c-.06-.21-.18-.24-.35-.26-.91-.11-1.83-.21-2.74-.33a3.89 3.89 0 0 1-1.34-.26c-.31-.16-.41-.49-.65-.71v-6.45c.07 0 .09-.07.11-.12A1.46 1.46 0 0 1 1.33 62c1.1-.12 2.2-.27 3.31-.39a.46.46 0 0 0 .48-.38 16.9 16.9 0 0 1 1.52-3.68.28.28 0 0 0 0-.39c-.75-.94-1.48-1.89-2.23-2.84a1.3 1.3 0 0 1 .1-1.77l3.93-3.94a1.31 1.31 0 0 1 1.8-.07c.94.75 1.9 1.48 2.84 2.23a.25.25 0 0 0 .33 0 17 17 0 0 1 3.74-1.56.41.41 0 0 0 .34-.4c.09-.9.2-1.79.31-2.68 0-.34.09-.67.14-1 .08-.5.49-.73.84-1h6.38a1.56 1.56 0 0 1 .95 1.27c.11 1.15.28 2.29.41 3.44a.4.4 0 0 0 .32.39 16.77 16.77 0 0 1 3.74 1.55.26.26 0 0 0 .36 0l2.87-2.25a1.34 1.34 0 0 1 1.7 0l4 4a1.3 1.3 0 0 1 .09 1.8c-.75.94-1.48 1.9-2.23 2.84a.25.25 0 0 0 0 .33 17.32 17.32 0 0 1 1.57 3.74.38.38 0 0 0 .39.34c.91.1 1.81.22 2.72.31s1.62.15 2 1M22 77.12a11 11 0 1 0-11-11 10.94 10.94 0 0 0 11 11" fill="#42b49b"/><path d="M71.5 43.81v4.91c-.07 0-.08.07-.1.12a1.11 1.11 0 0 1-.9.56l-2.5.3a.38.38 0 0 0-.4.32 12.94 12.94 0 0 1-1.18 2.82.19.19 0 0 0 0 .26l1.73 2.2a1 1 0 0 1-.07 1.36c-1 1-1.9 1.91-2.84 2.87a1.09 1.09 0 0 1-1.69.12l-2-1.6a.23.23 0 0 0-.3 0 12.7 12.7 0 0 1-2.85 1.18.31.31 0 0 0-.26.31c-.07.7-.16 1.39-.24 2.09s-.11 1.24-.8 1.53h-4.98c0-.07-.07-.08-.11-.1a1.08 1.08 0 0 1-.56-.9c-.09-.85-.21-1.71-.31-2.56 0-.2-.07-.31-.29-.37A12.73 12.73 0 0 1 48 58c-.12-.07-.18 0-.27 0l-2.16 1.7a1 1 0 0 1-1.39 0l-3-3a1 1 0 0 1-.08-1.4c.58-.72 1.14-1.46 1.72-2.18a.2.2 0 0 0 0-.26 13.36 13.36 0 0 1-1.22-2.92c0-.16-.13-.19-.26-.2l-2.12-.25a3.26 3.26 0 0 1-1-.21c-.24-.12-.32-.37-.5-.54v-5c.05 0 .06-.06.09-.1a1.1 1.1 0 0 1 .93-.58c.85-.09 1.69-.21 2.54-.3a.36.36 0 0 0 .37-.3 12.63 12.63 0 0 1 1.17-2.82.22.22 0 0 0 0-.3c-.58-.72-1.14-1.46-1.72-2.18a1 1 0 0 1 .08-1.37l3-3a1 1 0 0 1 1.38-.06l2.19 1.72a.2.2 0 0 0 .25 0 13.11 13.11 0 0 1 2.87-1.2.3.3 0 0 0 .26-.31c.08-.69.16-1.37.25-2.06 0-.26.06-.51.1-.77s.38-.56.64-.78H57a1.17 1.17 0 0 1 .72 1c.09.88.22 1.76.32 2.64a.29.29 0 0 0 .24.3 13 13 0 0 1 2.88 1.19.2.2 0 0 0 .28 0l2.2-1.73a1 1 0 0 1 1.31 0l3.06 3.07a1 1 0 0 1 .06 1.38c-.57.73-1.13 1.46-1.71 2.18a.2.2 0 0 0 0 .26 13.43 13.43 0 0 1 1.21 2.87.3.3 0 0 0 .3.27L70 43c.62.07 1.25.12 1.54.81M54.6 54.68a8.44 8.44 0 1 0-8.43-8.45 8.41 8.41 0 0 0 8.43 8.45" fill="#d04f48"/><path d="M71.5 42.83v4.91c-.07 0-.08.07-.1.12a1.11 1.11 0 0 1-.9.56c-.84.09-1.69.21-2.54.3a.38.38 0 0 0-.4.32 12.94 12.94 0 0 1-1.18 2.82.19.19 0 0 0 0 .26l1.73 2.2a1 1 0 0 1-.07 1.36c-1 1-1.9 1.91-2.84 2.87a1.09 1.09 0 0 1-1.69.12l-2-1.6a.23.23 0 0 0-.3 0 13.21 13.21 0 0 1-2.85 1.19.3.3 0 0 0-.26.3c-.07.7-.16 1.39-.24 2.09s-.11 1.24-.8 1.53h-4.94c0-.07-.07-.08-.11-.1a1.07 1.07 0 0 1-.56-.89c-.09-.86-.21-1.72-.31-2.57 0-.2-.07-.31-.29-.37A12.73 12.73 0 0 1 48 57c-.12-.07-.18 0-.27 0l-2.16 1.7a1 1 0 0 1-1.39-.05l-3-3a1 1 0 0 1-.08-1.41c.58-.72 1.14-1.46 1.72-2.18a.2.2 0 0 0 0-.26 13.36 13.36 0 0 1-1.22-2.92c0-.16-.13-.18-.26-.2l-2.12-.25a3.26 3.26 0 0 1-1-.21c-.24-.11-.32-.37-.5-.54v-5c.05 0 .06-.06.09-.09a1.09 1.09 0 0 1 .93-.59c.85-.09 1.69-.21 2.54-.3a.36.36 0 0 0 .37-.3 12.83 12.83 0 0 1 1.17-2.82.22.22 0 0 0 0-.3c-.58-.72-1.14-1.46-1.72-2.18a1 1 0 0 1 .08-1.37l3-3a1 1 0 0 1 1.38-.06l2.19 1.72a.19.19 0 0 0 .25 0 13.11 13.11 0 0 1 2.87-1.2.3.3 0 0 0 .26-.31c.08-.68.16-1.37.25-2.06 0-.26.06-.51.1-.77s.38-.56.64-.78H57a1.17 1.17 0 0 1 .72 1c.09.88.22 1.76.32 2.64a.29.29 0 0 0 .24.3 13 13 0 0 1 2.88 1.19.2.2 0 0 0 .28 0c.73-.59 1.47-1.16 2.2-1.74a1 1 0 0 1 1.31 0l3.06 3.07a1 1 0 0 1 .06 1.38c-.57.73-1.13 1.46-1.71 2.18-.07.1-.09.16 0 .26a13.65 13.65 0 0 1 1.21 2.87.3.3 0 0 0 .3.27L70 42c.62.06 1.25.11 1.54.8M54.6 53.7a8.44 8.44 0 1 0-8.43-8.45 8.41 8.41 0 0 0 8.43 8.45" fill="#e15c45"/><path d="M54.61 15.44v4.91c-.07 0-.08.07-.1.12a1.11 1.11 0 0 1-.9.56c-.84.09-1.69.21-2.54.3a.38.38 0 0 0-.4.32 12.94 12.94 0 0 1-1.18 2.82.19.19 0 0 0 0 .26l1.73 2.2a1 1 0 0 1-.07 1.36c-1 1-1.9 1.91-2.84 2.87a1.09 1.09 0 0 1-1.69.12l-2-1.6a.23.23 0 0 0-.3 0 13.21 13.21 0 0 1-2.85 1.19.3.3 0 0 0-.26.3c-.07.7-.16 1.39-.24 2.09s-.11 1.24-.8 1.53h-4.93c0-.07-.08-.08-.12-.1a1.07 1.07 0 0 1-.56-.89c-.09-.86-.21-1.72-.31-2.57 0-.2-.07-.31-.29-.37a12.73 12.73 0 0 1-2.85-1.19c-.12-.07-.18 0-.27 0l-2.16 1.7a1 1 0 0 1-1.39-.05l-3-3a1 1 0 0 1-.07-1.4c.57-.72 1.13-1.46 1.71-2.18a.2.2 0 0 0 0-.26 12.86 12.86 0 0 1-1.21-2.92.25.25 0 0 0-.27-.2l-2.12-.25a3.26 3.26 0 0 1-1-.21c-.24-.12-.32-.37-.5-.54v-5c.05 0 .07-.06.09-.09a1.09 1.09 0 0 1 .93-.59c.85-.09 1.69-.21 2.54-.3a.36.36 0 0 0 .37-.3 13.12 13.12 0 0 1 1.17-2.82.22.22 0 0 0 0-.3c-.58-.72-1.14-1.46-1.71-2.18a1 1 0 0 1 .07-1.37l3-3a1 1 0 0 1 1.39-.06c.72.58 1.45 1.14 2.18 1.72a.19.19 0 0 0 .25 0A13.11 13.11 0 0 1 34 4.9a.31.31 0 0 0 .27-.31c.07-.68.15-1.37.23-2.06 0-.26.07-.51.11-.77s.39-.56.63-.76h4.91a1.17 1.17 0 0 1 .72 1c.09.88.22 1.76.32 2.64a.29.29 0 0 0 .25.3 13.08 13.08 0 0 1 2.87 1.19.2.2 0 0 0 .28 0c.73-.59 1.47-1.16 2.2-1.74a1 1 0 0 1 1.31 0l3.06 3.07a1 1 0 0 1 .07 1.38c-.58.73-1.14 1.46-1.72 2.18-.07.1-.09.16 0 .26a13.65 13.65 0 0 1 1.21 2.87c.05.17.11.25.3.27l2.09.24c.62.06 1.24.11 1.53.8M37.71 26.31a8.44 8.44 0 1 0-8.43-8.45 8.41 8.41 0 0 0 8.43 8.45" fill="#3b589f"/><path d="M54.61 14.46v4.91c-.07 0-.08.08-.1.12a1.08 1.08 0 0 1-.9.56c-.84.09-1.69.21-2.54.3-.21 0-.34.08-.4.32a12.94 12.94 0 0 1-1.18 2.82.19.19 0 0 0 0 .26L51.24 26a1 1 0 0 1-.07 1.36c-1 1-1.9 1.91-2.84 2.87a1.09 1.09 0 0 1-1.69.12l-2-1.6a.23.23 0 0 0-.3 0 12.73 12.73 0 0 1-2.85 1.19.3.3 0 0 0-.26.3c-.07.7-.16 1.39-.24 2.09s-.11 1.24-.8 1.53h-4.95c0-.06-.08-.08-.12-.1a1.07 1.07 0 0 1-.56-.89c-.09-.86-.21-1.71-.31-2.57 0-.2-.07-.31-.29-.37a12.73 12.73 0 0 1-2.85-1.19c-.12-.07-.18 0-.27 0l-2.16 1.7a1 1 0 0 1-1.39 0l-3-3a1 1 0 0 1-.07-1.41l1.71-2.18a.2.2 0 0 0 0-.26 12.86 12.86 0 0 1-1.21-2.92c0-.16-.14-.18-.27-.2l-2.12-.25a2.78 2.78 0 0 1-1-.21c-.24-.11-.32-.37-.5-.54v-5c.05 0 .07-.06.09-.09a1.09 1.09 0 0 1 .93-.59c.85-.09 1.69-.21 2.54-.3a.36.36 0 0 0 .37-.29 13.2 13.2 0 0 1 1.17-2.83.22.22 0 0 0 0-.3c-.58-.72-1.14-1.45-1.71-2.18a1 1 0 0 1 .07-1.36l3-3a1 1 0 0 1 1.39 0l2.18 1.57a.19.19 0 0 0 .25 0A13.11 13.11 0 0 1 34 3.92a.31.31 0 0 0 .27-.31c.07-.68.15-1.37.23-2.06 0-.25.07-.51.11-.77s.39-.56.63-.78h4.91a1.18 1.18 0 0 1 .72 1c.09.88.22 1.76.32 2.65a.29.29 0 0 0 .25.29 13.08 13.08 0 0 1 2.87 1.19.2.2 0 0 0 .28 0c.73-.59 1.47-1.16 2.2-1.73a1 1 0 0 1 1.31 0l3.06 3.07a1 1 0 0 1 .07 1.38c-.58.73-1.14 1.46-1.72 2.18-.07.1-.09.16 0 .26a13.65 13.65 0 0 1 1.21 2.87c.05.17.11.25.3.27l2.09.24c.62.06 1.24.11 1.53.8M37.71 25.33a8.44 8.44 0 1 0-8.43-8.45 8.41 8.41 0 0 0 8.43 8.45" fill="#59b4de"/></g></g></svg>