<svg xmlns="http://www.w3.org/2000/svg" viewBox="0 0 82.63 61.84"><defs><clipPath id="a"><path fill="none" d="M0 0h82.63v61.84H0z"/></clipPath></defs><g data-name="Layer 2"><g clip-path="url(#a)" data-name="Layer 1"><path d="M0 55.81v2.48a2.18 2.18 0 0 0 2.24 2.12s22.63 1.43 39.07 1.43 39.08-1.43 39.08-1.43a2.18 2.18 0 0 0 2.24-2.12v-2.48z" fill="#e4a75b"/><path d="M75.32 54.28V14.13a1.8 1.8 0 0 0-1.84-1.75s-18.63-1.17-32.17-1.17-32.16 1.17-32.16 1.17a1.81 1.81 0 0 0-1.85 1.75v40.15A1.81 1.81 0 0 0 9.15 56h64.33a1.8 1.8 0 0 0 1.84-1.75" fill="#344e5c"/><path d="M74.64 14.28A1.82 1.82 0 0 0 73 13.17S54.66 12 41.38 12 9.8 13.17 9.8 13.17A1.77 1.77 0 0 0 8 14.89v39.4a1.66 1.66 0 0 0 .34 1z" fill="#3a5665"/><path d="M0 54.25v2.48a2.18 2.18 0 0 0 2.24 2.12s22.63 1.43 39.07 1.43 39.08-1.43 39.08-1.43a2.18 2.18 0 0 0 2.24-2.12v-2.48z" fill="#f1c849"/><path d="M31.86 54.25v2.07c0 .52.24.89.51.89 0 0 5.18.6 8.94.6s8.95-.6 8.95-.6c.27 0 .51-.37.51-.89v-2.07z" fill="#fef388"/><path fill="none" stroke="#f1c849" stroke-linecap="round" stroke-linejoin="round" stroke-width="3" d="M12.68 50.46l7.12-6.5 9.92 2.14 12.02-13.61 14.28-1.65L70.8 6.46"/><path fill="#f1c849" d="M74.64 8.66l-3.83-2.01-3.84-2.02 3.66-2.31L74.3 0l.17 4.33.17 4.33z"/></g></g></svg>