<svg xmlns="http://www.w3.org/2000/svg" viewBox="0 0 1443.3 1327.54"><title>footer</title><g data-name="Layer 2"><g data-name="Layer 1"><path fill="#3fb49c" d="M0 1149.51v178.03h1442.93V137.06l-359.98 502.48-340.49 43.5-337.48 374.98-251.99-69L0 1149.51z"/><path d="M1079.58 599.92l-352.16 40.79a39 39 0 0 0-24.72 12.91L405.48 990.09l-235.32-50.75a39.17 39.17 0 0 0-34.48 9.31L1.3 1071.24v105.38c.61-.49 1.2-1 1.79-1.52l170.27-155.33 238 51.32a39.13 39.13 0 0 0 37.42-12.29l302.44-342.38 356.27-41.26a39 39 0 0 0 28.85-18.51l307-506.3V0z" fill="#37ae95"/></g></g></svg>