<svg xmlns="http://www.w3.org/2000/svg" viewBox="0 0 6302.56 2162.31"><defs><clipPath id="a" transform="translate(48 573)"><path fill="none" d="M-48-573h6302.56v2162.31H-48z"/></clipPath><clipPath id="b" transform="translate(48 573)"><path fill="none" d="M-48-573h6302.56v2162.31H-48z"/></clipPath></defs><title>main_slogan</title><g clip-path="url(#a)" data-name="Layer 2"><g clip-path="url(#b)" data-name="Layer 1"><path d="M3265.26 710.36a2205.75 2205.75 0 0 1 222.61-45.69q14.7-2.27 29.42-4.35 6.86-1 13.71-1.91l1.17-.16c-2.61.36.9-.12 1.17-.15q4.23-.57 8.46-1.11 28.62-3.72 57.33-6.81 58.27-6.3 116.78-10.24c78.11-5.31 156.42-7.69 234.71-7.68s156.7 2.42 234.94 6.82Q4300 645.52 4414 657.37q13.92 1.42 27.82 2.93c12 1.3 23.49-11.49 23-23-.61-13.55-10.13-21.58-23-23q-114-12.3-228.53-19.58-117.12-7.29-234.53-8.35c-78.67-.58-157.38 1.19-235.92 5.86q-119.31 7.14-237.76 23.77a2260.46 2260.46 0 0 0-224.94 43.15q-13.57 3.35-27.09 6.89c-11.63 3-19.83 16.56-16.05 28.26 3.88 12 15.8 19.3 28.26 16" fill="#42b49b"/><path d="M2250.3 53.44l9.9 165.62h-27C2185 115.47 2167.17 80.5 2123 80.5h-21.78v366.86c0 34.31 11.22 37 54.11 41.57v27.71h-237.58v-27.71c42.89-4.62 54.11-7.26 54.11-41.57V80.5h-21.78c-44.21 0-62 35-110.19 138.56h-27.05l9.9-165.62zm68.62 15.18l-36.29-18.48V30.35L2420.53 0H2441v220.38c25.07-31.67 62.68-66 122.73-66 63.34 0 99.63 36.29 99.63 108.21v202.57c0 21.11 10.56 23.75 37 25.73v25.73h-194v-25.71c26.39-2 35-4.62 35-25.73V272.51c0-29-9.9-46.19-44.21-46.19-21.11 0-39.59 5.94-56.08 14.51v224.35c0 21.11 8.58 23.75 35 25.73v25.73H2282v-25.73c26.39-2 37-4.62 37-25.73zm721.85 230.28v16.49h-210.49c-1.32 78.52 42.23 127.35 102.27 127.35 42.23 0 73.25-15.17 98.32-48.17l12.54 7.92c-17.82 72.58-68.63 120.75-151.76 120.75-97.66 0-171.56-65.32-171.56-176.17 0-117.45 81.16-192.67 176.18-192.67 95.67 0 144.5 60.7 144.5 144.5M2830.94 285h105.57c0-64-12.53-102.93-48.16-102.93-36.29 0-54.11 41.57-57.41 102.93m350.35 60.75c0-110.85 76.54-191.35 184.75-191.35 108.88 0 184.1 69.28 184.1 177.49 0 110.85-76.54 191.35-184.75 191.35-108.88 0-184.1-69.28-184.1-177.49m239.52 15.17c0-108.21-15.18-178.81-58.06-178.81-39.59 0-52.13 50.81-52.13 134.6 0 108.22 15.84 178.82 58.06 178.82 39.59 0 52.13-50.81 52.13-134.61m417.01-88.41c0-29-9.9-46.19-44.21-46.19-21.11 0-39.59 5.94-56.75 14.51v224.35c0 21.11 9.24 23.75 35.64 25.73v25.73h-194v-25.73c26.39-2 36.95-4.62 36.95-25.73v-231.6l-36.29-22.44v-18.47l137.9-38.27h22.43l-2.64 66c25.08-31.67 63.35-66 122.73-66 64 0 100.3 35.63 100.3 108.21v202.57c0 21.11 10.55 23.75 37 25.73v25.73h-194v-25.73c26.39-2 35-4.62 35-25.73zM4173 465.18c0 21.11 10.56 23.75 36.95 25.73v25.73H4014v-25.73c26.4-2 36.95-4.62 36.95-25.73V68.62l-36.29-18.48V30.35L4152.55 0H4173zM4520.06 229c3.3-8.58 5.28-13.2 5.28-19.14 0-14.51-9.24-18.47-43.55-23.09V161h120.09v25.73c-22.43 7.26-27.71 11.88-33.65 26.39l-150.44 360.93c-24.41 58.06-48.83 88.41-95 88.41-25.73 0-46.18-10.55-55.42-27.71V587.9c17.15 3.3 31 6.6 51.46 6.6 37 0 56.09-10.56 68-38.27l10.55-23.09-150.44-320c-6.6-14.51-10.55-19.13-33.65-26.39V161h211.15v25.73c-35 4.62-43.55 8.58-43.55 23.09 0 5.94 2 10.56 4.62 18.48l69.28 168.25zm-4056.2 861.06c0-28.37-9.24-44.87-39.59-44.87-19.8 0-35.63 7.26-52.13 15.18v224.34c0 21.11 6.6 23.75 33 25.73v25.74h-188v-25.74c26.4-2 33-4.62 33-25.73v-194.65c0-28.37-9.23-44.87-38.93-44.87-20.45 0-36.29 6.6-52.78 15.18v224.34c0 21.11 7.26 23.75 33.65 25.73v25.74H0v-25.74c26.39-2 37-4.62 37-25.73v-231.6L.71 1030.68v-18.48l137.9-38.27H161l-2.64 67.3c25.07-36.29 60.7-67.3 119.43-67.3 50.8 0 82.48 20.46 91.71 68.62 23.76-35.63 64-68.62 120.75-68.62 61.37 0 95.68 35.63 95.68 104.91v205.87c0 21.11 10.55 23.75 36.29 25.73v25.74H430.87v-25.74c26.39-2 33-4.62 33-25.73zm486.95 173.54c0 15.83 2 29.69 17.81 29.69 9.24 0 17.82-2 22.44-4l4.62 17.81c-21.78 21.78-50.15 35.63-87.1 35.63-38.27 0-66-20.45-75.88-55.42-19.13 27.71-50.81 53.45-99.63 53.45-55.43 0-94.36-31.68-94.36-88.42 0-57.41 40.25-81.16 87.1-97.66l104.91-37v-67.3c0-30.35-8.58-50.81-34.31-50.81s-35.63 21.12-35.63 52.13c0 15.18 2.64 30.35 5.94 46.19l-73.24 9.9c-19.14-6.6-32.34-22.44-32.34-46.19 0-60.05 62-87.76 141.87-87.76 92.37 0 147.8 29 147.8 114.81zm-120.09 4.61v-122.06L794.43 1160c-23.09 8.58-38.27 21.12-38.27 58.73 0 33.65 12.54 58.72 45.53 58.72 10.55 0 18.47-3.3 29-9.24m335.87 6.6c0 28.38 15.18 31 52.79 35.63v25.74H1008.2v-25.74c26.4-2 36.95-4.61 36.95-25.73v-231.6l-36.29-22.43v-18.48l137.91-38.27h22.43l-2.64 101.62c27-77.2 50.15-101.62 91.72-101.62 15.17 0 26.39 4.62 33 11.22v91.71h-15.84c-41.57 0-78.52 1.33-108.87 23.76zm174.19-386.66l-36.29-18.47v-19.8l137.91-30.35h20.45v465.18c0 21.11 10.56 23.75 37 25.73v25.74h-196v-25.74c26.4-2 37-4.62 37-25.73zm227.64 169.58c17.16-15.18 21.78-23.09 21.78-31.67 0-12.54-9.24-16.5-40.25-19.8v-25.73h149.78v25.73c-22.43 3.3-37.61 7.26-54.77 24.42l-75.88 71.26 143.85 216.42v17.82h-126.69l-118.77-186.73zm469.8 60.7v16.5H1827.7c-1.32 78.52 42.23 127.35 102.27 127.35 42.23 0 73.25-15.18 98.32-48.17l12.54 7.92c-17.82 72.58-68.63 120.74-151.76 120.74-97.66 0-171.56-65.32-171.56-176.17 0-117.45 81.16-192.67 176.17-192.67 95.68 0 144.51 60.71 144.51 144.5m-209.83-13.85h105.57c0-64-12.53-102.94-48.16-102.94-36.3 0-54.11 41.57-57.41 102.94M2217 980.53h77.2v35.63H2217v218.4c0 31.68 12.54 45.53 37.61 45.53 17.16 0 31.67-5.94 47.51-16.49l9.9 14.51c-25.08 40.91-62 64.67-114.81 64.67-60.71 0-102.94-30.36-102.94-108.22v-218.4h-37.61v-21.77c52.79-19.8 100.3-58.07 134.61-103.6H2217zm267.87 304.18c0 21.11 10.55 23.75 37 25.73v25.74h-195.36v-25.74c26.39-2 36.95-4.62 36.95-25.73v-231.6l-36.29-22.43v-18.48l137.24-38.27h20.46zm-124-401.17c0-33 23.75-60.71 64.66-60.71 39.59 0 64.67 27.71 64.67 60.71s-25.08 61.36-64.67 61.36c-40.91 0-64.66-28.37-64.66-61.36M2806.2 1092c0-29-9.9-46.19-44.21-46.19-21.11 0-39.59 5.94-56.74 14.52v224.38c0 21.12 9.24 23.75 35.63 25.73v25.74h-194v-25.74c26.39-2 37-4.61 37-25.73v-231.6l-36.29-22.43v-18.48l137.9-38.27h22.44l-2.64 66c25.07-31.68 63.34-66 122.73-66 64 0 100.29 35.63 100.29 108.21v202.57c0 21.12 10.56 23.75 36.95 25.73v25.74h-194v-25.74c26.39-2 35-4.61 35-25.73zm262.6 108.91c-10.55 9.24-19.13 19.8-19.13 33 0 11.22 7.26 19.14 19.79 19.14h143.18c89.08 0 126.69 38.27 126.69 98.31 0 85.12-81.82 132-201.25 132-104.25 0-168.91-28.37-168.91-80.5 0-33 31.67-48.83 60.7-53.45-27.71-10.55-43.55-37.61-43.55-66 0-42.89 30.36-70.6 64.67-89.08-36.29-17.15-62.69-46.84-62.69-95 0-79.18 66.65-125.37 157.7-125.37 26.4 0 45.53 4 62.69 9.24l117.45-2.64v44.21h-29.7l-40.25-1.32c23.81 15.8 40.91 41.55 40.91 74.55 0 73.24-67.3 114.15-155.72 114.15-24.41 0-49.48-3.3-72.58-11.22m-25.07 163c-4.62 5.28-5.94 14.52-5.94 24.41 0 40.25 41.57 64 103.59 64 59.39 0 114.15-15.84 114.15-58.73 0-21.11-13.19-29.69-37.61-29.69zm141.2-267.23c0-50.15-13.19-95-44.21-95-29.69 0-39.59 32.34-39.59 87.1 0 52.79 14.52 97.66 44.87 97.66 29.69 0 38.93-32.34 38.93-89.74m313.41-43.61l-36.29-22.43v-18.48L3600 973.93h23l-2.64 64c18.48-29.7 54.77-64 110.86-64 77.86 0 133.28 54.11 133.28 162.32 0 135.26-82.48 206.52-186.73 206.52-25.07 0-46.19-4.61-57.41-13.85v93c0 23.76 11.88 25.08 50.81 28.38v25.73h-209.78v-25.7c26.39-2 37-4.62 37-25.74zm242.15 120.09c0-87.1-31-127.35-81.16-127.35-13.85 0-27 3.3-38.93 11.22v185.41c0 42.89 11.88 69.28 46.85 69.28 47.51 0 73.24-60.7 73.24-138.56m308.13 111.51c0 21.12 10.56 23.75 37 25.73v25.74h-196v-25.74c26.39-2 36.95-4.61 36.95-25.73V888.15l-36.29-18.47v-19.8l137.9-30.35h20.45zm369.5-21.11c0 15.83 2 29.69 17.81 29.69 9.24 0 17.82-2 22.44-4l4.62 17.81c-21.78 21.78-50.15 35.63-87.1 35.63-38.27 0-66-20.45-75.88-55.42-19.14 27.71-50.81 53.45-99.63 53.45-55.43 0-94.36-31.68-94.36-88.42 0-57.41 40.25-81.16 87.1-97.66l104.91-37v-67.3c0-30.35-8.58-50.81-34.31-50.81s-35.63 21.12-35.63 52.13c0 15.18 2.64 30.35 5.94 46.19l-73.24 9.9c-19.14-6.6-32.33-22.44-32.33-46.19 0-60.05 62-87.76 141.86-87.76 92.37 0 147.8 29 147.8 114.81zm-120.12 4.61v-122.06l-36.26 13.85c-23.09 8.58-38.27 21.12-38.27 58.73 0 33.65 12.54 58.72 45.53 58.72 10.55 0 18.47-3.3 29-9.24m326-287.68h77.2v35.63H4624v218.4c0 31.68 12.53 45.53 37.61 45.53 17.15 0 31.67-5.94 47.5-16.49l9.9 14.51c-25.07 40.91-62 64.67-114.81 64.67-60.7 0-102.93-30.36-102.93-108.22v-218.4h-37.61v-21.77c52.78-19.8 100.29-58.07 134.6-103.6H4624zm268.52 294.28c0 28.38 14.51 31 52.78 35.63v25.74h-211.14v-25.74c26.39-2 36.95-4.61 36.95-25.73v-268.55h-47.51v-26.39l47.51-12.54v-12.54c0-100.29 68.62-145.16 154.4-145.16 70.6 0 102.27 23.76 102.27 64 0 18.47-9.89 34.31-24.41 41.56h-62a144.05 144.05 0 0 0 3.3-31c0-23.09-3.3-45.52-23.76-45.52-19.79 0-28.37 16.49-28.37 46.18v85.78h77.2v35.63h-77.2z" fill="#2a4049"/><path d="M4981.6 1165.28c0-110.85 76.53-191.35 184.75-191.35 108.87 0 184.09 69.28 184.09 177.5 0 110.85-76.54 191.34-184.75 191.34-108.88 0-184.09-69.28-184.09-177.49m239.51 15.18c0-108.21-15.17-178.82-58.06-178.82-39.59 0-52.13 50.81-52.13 134.61 0 108.21 15.84 178.81 58.06 178.81 39.6 0 52.13-50.8 52.13-134.6m316.06 94.35c0 28.38 15.17 31 52.78 35.63v25.74h-211.14v-25.74c26.39-2 36.95-4.61 36.95-25.73v-231.6l-36.29-22.43v-18.48l137.9-38.27h22.44l-2.64 101.62c27.05-77.2 50.14-101.62 91.71-101.62 15.18 0 26.4 4.62 33 11.22v91.71H5646c-41.57 0-78.52 1.33-108.87 23.76zm607.03-184.75c0-28.37-9.24-44.87-39.59-44.87-19.8 0-35.63 7.26-52.13 15.18v224.34c0 21.11 6.6 23.75 33 25.73v25.74h-188.06v-25.74c26.39-2 33-4.62 33-25.73v-194.65c0-28.37-9.23-44.87-38.93-44.87-20.45 0-36.29 6.6-52.78 15.18v224.34c0 21.11 7.26 23.75 33.65 25.73v25.74h-192v-25.74c26.39-2 36.95-4.62 36.95-25.73v-231.6l-36.31-22.43v-18.48l137.9-38.27h22.44l-2.64 67.3c25.07-36.29 60.7-67.3 119.43-67.3 50.8 0 82.47 20.46 91.71 68.62 23.76-35.63 64-68.62 120.75-68.62 61.36 0 95.68 35.63 95.68 104.91v205.87c0 21.11 10.55 23.75 36.29 25.73v25.74h-191.35v-25.74c26.39-2 33-4.62 33-25.73zM1989.68 2094.35c0 28.37 14.52 31 52.79 35.63v25.73h-211.14V2130c26.39-2 37-4.62 37-25.73V1835.7h-47.51v-26.4l47.51-12.53v-12.54c0-100.29 68.62-145.16 154.4-145.16 70.6 0 102.27 23.75 102.27 64 0 18.48-9.9 34.31-24.41 41.57h-62a144.13 144.13 0 0 0 3.3-31c0-23.1-3.3-45.53-23.75-45.53-19.8 0-28.38 16.5-28.38 46.19v85.78h77.2v35.63h-77.2z" fill="#2a4049"/><path d="M2078.76 1984.82c0-110.85 76.54-191.35 184.75-191.35 108.87 0 184.09 69.28 184.09 177.49 0 110.85-76.54 191.35-184.75 191.35-108.87 0-184.09-69.28-184.09-177.49m239.52 15.18c0-108.21-15.18-178.81-58.07-178.81-39.59 0-52.12 50.81-52.12 134.6 0 108.22 15.83 178.82 58.06 178.82 39.59 0 52.13-50.81 52.13-134.61m316.05 94.35c0 28.37 15.18 31 52.79 35.63v25.73H2476V2130c26.4-2 37-4.62 37-25.73v-231.6l-36.29-22.44v-18.47l137.91-38.27H2637l-2.64 101.61c27.06-77.2 50.15-101.61 91.72-101.61 15.17 0 26.39 4.62 33 11.21v91.72h-15.88c-41.57 0-78.51 1.32-108.87 23.75zm415.67 0c0 28.37 15.17 31 52.78 35.63v25.73h-211.13V2130c26.39-2 36.95-4.62 36.95-25.73v-231.6l-36.29-22.44v-18.47l137.9-38.27h22.44l-2.65 101.59c27-77.2 50.14-101.61 91.71-101.61 15.18 0 26.39 4.62 33 11.21v91.72h-15.83c-41.57 0-78.52 1.32-108.87 23.75zM3511.88 1938v16.49h-210.49c-1.32 78.52 42.23 127.35 102.27 127.35 42.23 0 73.25-15.17 98.32-48.17l12.53 7.92c-17.81 72.58-68.62 120.75-151.76 120.75-97.65 0-171.55-65.32-171.55-176.17 0-117.45 81.16-192.67 176.17-192.67 95.68 0 144.51 60.7 144.51 144.5m-209.83-13.86h105.57c0-64-12.53-102.93-48.16-102.93-36.3 0-54.11 41.57-57.41 102.93m388.62-124.07h77.2v35.63h-77.2v218.4c0 31.67 12.54 45.53 37.61 45.53 17.16 0 31.67-5.94 47.51-16.5l9.9 14.52c-25.08 40.91-62 64.66-114.81 64.66-60.71 0-102.94-30.35-102.94-108.21v-218.4h-37.61v-21.78c52.79-19.79 100.3-58.06 134.61-103.59h25.73zM4111 2083.13c0 15.84 2 29.69 17.82 29.69 9.24 0 17.81-2 22.43-4l4.62 17.82c-21.77 21.77-50.14 35.63-87.09 35.63-38.27 0-66-20.45-75.89-55.43-19.13 27.72-50.8 53.45-99.63 53.45-55.42 0-94.35-31.67-94.35-88.42 0-57.4 40.25-81.15 87.09-97.65l104.92-37V1870c0-30.36-8.58-50.81-34.32-50.81s-35.63 21.11-35.63 52.13c0 15.17 2.64 30.35 5.94 46.18l-73.24 9.9c-19.13-6.6-32.33-22.43-32.33-46.19 0-60 62-87.75 141.86-87.75 92.38 0 147.8 29 147.8 114.81zm-120.08 4.62v-122.07l-36.3 13.86c-23.09 8.58-38.26 21.11-38.26 58.72 0 33.65 12.53 58.73 45.52 58.73 10.56 0 18.48-3.3 29-9.24m335.85 16.5c0 21.11 10.56 23.75 37 25.73v25.73h-195.36V2130c26.39-2 36.95-4.62 36.95-25.73v-231.6l-36.32-22.46v-18.47l137.24-38.27h20.46zm-124-401.18c0-33 23.75-60.7 64.66-60.7 39.59 0 64.67 27.71 64.67 60.7s-25.08 61.36-64.67 61.36c-40.91 0-64.66-28.37-64.66-61.36m342.4 401.18c0 21.11 10.56 23.75 36.95 25.73v25.73h-196V2130c26.4-2 37-4.62 37-25.73v-396.58l-36.29-18.48v-19.79l137.91-30.35h20.45z" fill="#2a4049"/></g></g></svg>