<svg xmlns="http://www.w3.org/2000/svg" viewBox="0 0 295.5 198.04"><defs><clipPath id="a"><path fill="none" d="M0 0h295.5v198.04H0z"/></clipPath></defs><title>multiply_sales_1</title><g data-name="Layer 2"><g clip-path="url(#a)" data-name="Layer 1"><path d="M54.37 88.6L28 90.14 1.52 88.6A1.48 1.48 0 0 0 0 90v34.52A1.48 1.48 0 0 0 1.52 126s15.3 1 26.42 1 26.43-1 26.43-1a1.48 1.48 0 0 0 1.51-1.44V90a1.48 1.48 0 0 0-1.51-1.44" fill="#e4a75b"/><path d="M54.37 88.6H1.52A1.48 1.48 0 0 0 0 90v33a1.48 1.48 0 0 0 1.52 1.44s15.3 1 26.42 1 26.43-1 26.43-1a1.48 1.48 0 0 0 1.51-1.44V90a1.48 1.48 0 0 0-1.51-1.44m.05 35.72h-.05l-20.79-17.13-3.51 3.12a2.56 2.56 0 0 1-1.67.45h-1a2.58 2.58 0 0 1-1.68-.45l-3.47-3.09L2 124.33h-.54L21 106 1.46 88.61l24.27 18.79a2.85 2.85 0 0 0 1.68.39h1a2.83 2.83 0 0 0 1.67-.39l24.34-18.79L34.85 106z" fill="#f1c849"/><path d="M54.37 88.6L28 87.91l-26.47.69h-.07l24.27 18.8a2.83 2.83 0 0 0 1.68.39h1a2.83 2.83 0 0 0 1.67-.39l24.34-18.79h-.05" fill="#fef388"/><path d="M199.32 148.68c-19.91 0-24.18-8.17-24.18 1.63a142.26 142.26 0 0 0 48.36 0c0-9.8-4.08-1.63-24.18-1.63" fill="#9bc2cc"/><path d="M199.34 153.54c-24 0-29.17-9.86-29.17 2a169.9 169.9 0 0 0 29.17 2.46 170 170 0 0 0 29.18-2.51c0-11.82-4.92-2-29.18-2" fill="#9bc2cc"/><path d="M199.32 135.39c-16.1 0-29.16 8.52-29.16 19a190.52 190.52 0 0 0 29.16 2.23 190.52 190.52 0 0 0 29.16-2.23c0-10.52-13-19-29.16-19" fill="#a4cad8"/><path d="M199.32 156.66c-.32 0-5.44-14.48-6.94-18.67a27.87 27.87 0 0 1-1.65-9.25c0-6.32 3.86-11.47 8.59-11.47s8.59 5.15 8.59 11.47a30.9 30.9 0 0 1-1.65 9.25c-1.38 4.35-6.57 18.67-6.94 18.67" fill="#b2d4e5"/><path d="M215.44 113.75a1.52 1.52 0 0 0-.87 0c-.84-9-7.35-16-15.25-16s-14.41 7-15.25 16a1.52 1.52 0 0 0-.87 0c-1.49.42-2 3.22-1.16 6.27.74 2.67 2.29 4.63 3.67 4.8a26.79 26.79 0 0 0 2.72 5.4c3 4.59 6.92 7.12 10.89 7.12s7.84-2.53 10.89-7.12a27.32 27.32 0 0 0 2.72-5.4c1.38-.17 2.93-2.13 3.67-4.8.85-3 .33-5.85-1.16-6.27" fill="#c7e5f8"/><path fill="#d7f0fc" d="M199.32 156.66l-7.81-21.56-5.87 2.24 13.68 19.32zm0 0l7.81-21.56 5.87 2.24-13.68 19.32z"/><path d="M199.48 93.47H199c-8.71.24-15.7 6.42-15.7 14a23.73 23.73 0 0 0 .9 5.6c.81-2.37 3.52-9.82 7.28-10.87 2-.54 4.54 2.23 7.5 2.23h.58c3 0 6.25-3 6.4-2.46.88 3.53 7.06 6 8.37 9.67a13.41 13.41 0 0 0 .9-4.17c0-4.82-2.6-11.08-7.1-11.6-.68-.08-1.49.17-2.14-.11s-.33-1-1.72-1.57a13.93 13.93 0 0 0-4.74-.74" fill="#a4cad8"/><path d="M208.23 94.12c0 2.92-3.68 5.29-8.23 5.29s-8.23-2.37-8.23-5.29 3.69-5.29 8.23-5.29 8.23 2.37 8.23 5.29" fill="#a4cad8"/><path d="M263.72 97c-25.42 0-30.86-10.43-30.86 2.07a180.13 180.13 0 0 0 30.86 2.65 180.13 180.13 0 0 0 30.86-2.65c0-12.5-5.2-2.07-30.86-2.07" fill="#9bc2cc"/><path d="M263.72 76.87c-17 0-30.86 9-30.86 20.15a201.59 201.59 0 0 0 30.86 2.36A201.59 201.59 0 0 0 294.58 97c0-11.13-13.82-20.15-30.86-20.15" fill="#a4cad8"/><path d="M263.72 97c-2.86 0-4.14-18.34-8.94-13.54-2.83 2.83-2.12-7.92-2.12-11.91 0-8.14 5-14.76 11.06-14.76s11.06 6.62 11.06 14.76c0 4 .71 14.74-2.12 11.91C268 78.79 266.58 97 263.72 97" fill="#b2d4e5"/><path d="M263.72 82.05c-4.2 0-8.29-2.67-11.52-7.54a28.82 28.82 0 0 1-4.72-15.32c0-10.48 7.29-19 16.24-19s16.28 8.52 16.28 19a28.82 28.82 0 0 1-4.72 15.32c-3.23 4.87-7.32 7.54-11.52 7.54" fill="#c7e5f8"/><path d="M264 39.27h-.57c-9.4.26-16.92 6.84-16.92 14.93a24.57 24.57 0 0 0 1 5.95c.88-2.51 4.33-9.27 7.84-11.56 7.87 1.11 15.32-.8 15.61-.25 3.85 7.24 7.61 6.36 9 10.3a14.23 14.23 0 0 0 1-4.44c0-5.14-2.81-11.8-7.65-12.35a8.88 8.88 0 0 1-2.31-.11c-.7-.3-.36-1.1-1.86-1.68a15.48 15.48 0 0 0-5.1-.79" fill="#a4cad8"/><path fill="#c7e5f8" d="M272.01 90.4l-4.76-4.41 7.89-7.89 5.23 1.94-8.36 10.36zm-16.31 0l4.76-4.41-7.89-7.89-5.23 1.94 8.36 10.36z"/><path d="M271.22 37.47c.2-.13-3.35-1.13-4.5 1.7-.82-.54-1-1.29-.41-2.69a7 7 0 0 0-1.59 3 2.62 2.62 0 0 0 .1 1.93c.69 1.31 2.68 1.41 4.29 1.33.82-.05 1.85-.79 2.67-.83-2.77-.84-.75-4.38-.56-4.4" fill="#a4cad8"/><path d="M56 111.16c28.19 0 85.33 27.52 117.11 56.71 41.81 38.4 70.15 35.6 90.42 13.79" fill="none" stroke="#344e5c" stroke-miterlimit="10" stroke-dasharray="1,1"/><path d="M56.56 113.13c10.14 0 25.46 56 39.27 66s35.39.72 35.39-15.43M56.56 109c20.06 0 70.66-95.37 128.16-68.66" fill="none" stroke="#344e5c" stroke-miterlimit="10" stroke-dasharray="1,1"/><path d="M131.64 115.88a3.19 3.19 0 0 1 1.13-1.18c4.43-3.17 6.39-6.89 14.57-5.07 6.1 1.35 9.68 12 7.25 18.83a14.85 14.85 0 0 1-1.47 2.48 13.07 13.07 0 0 0 3.16 16.63c-13.25-1.62-12-9-12-11.4a5.86 5.86 0 0 0-.35-2.57c-.22-.46-5.94-5.54-8.31-7.88s-4.35-5.4-4.21-8.72a2.87 2.87 0 0 1 .22-1.12" fill="#e5be44"/><path d="M128.22 172.31c-23.67 0-28.74-9.72-28.74 1.93a168.38 168.38 0 0 0 57.47 0c0-11.65-4.84-1.93-28.73-1.93" fill="#0385a9"/><path d="M128.22 153.94c-15.87 0-28.74 8.4-28.74 18.76a187.53 187.53 0 0 0 28.74 2.2 187.47 187.47 0 0 0 28.78-2.2c0-10.36-12.86-18.76-28.73-18.76" fill="#00a1cb"/><path d="M128.22 174.9c-.32 0-5.36-14.27-6.84-18.4a27.28 27.28 0 0 1-1.62-9.11c0-6.23 3.79-11.3 8.46-11.3s8.46 5.07 8.46 11.3a30.59 30.59 0 0 1-1.62 9.11c-1.37 4.29-6.48 18.4-6.84 18.4" fill="#e0c177"/><path d="M144.1 132.62a1.49 1.49 0 0 0-.86 0c-.82-8.85-7.25-15.75-15-15.75s-14.2 6.9-15 15.75a1.49 1.49 0 0 0-.86 0c-1.47.41-2 3.17-1.14 6.17.73 2.63 2.26 4.57 3.61 4.74a26.82 26.82 0 0 0 2.69 5.32c3 4.52 6.81 7 10.72 7s7.73-2.5 10.73-7a26.82 26.82 0 0 0 2.69-5.32c1.35-.17 2.88-2.11 3.61-4.74.84-3 .33-5.76-1.14-6.17" fill="#f1cf7f"/><path d="M128.38 112.63h-.53c-8.59.24-15.47 6.33-15.47 13.82a22.9 22.9 0 0 0 .89 5.51c.8-2.32 3.47-9.67 7.17-10.7 1.93-.54 4.47 2.2 7.39 2.2h.57c2.92 0 6.16-3 6.3-2.43.87 3.48 7 5.89 8.26 9.53a13.31 13.31 0 0 0 .89-4.11c0-4.75-2.57-10.92-7-11.43-.67-.08-1.47.17-2.11-.1s-.33-1-1.7-1.55a14 14 0 0 0-4.66-.74" fill="#e5be44"/><path d="M142.5 134a4.59 4.59 0 0 0-1.23-.35 11.21 11.21 0 0 0-5.94-1.38 7.33 7.33 0 0 0-5.56 2.06l-.08.09H127l-.08-.09a7.33 7.33 0 0 0-5.56-2.06 11.21 11.21 0 0 0-5.94 1.38 4.59 4.59 0 0 0-1.23.35c-.12.17 0 .81.09 1s.47.16.6.16a2.4 2.4 0 0 0 0 .73 8 8 0 0 0 .42 2.79 5.16 5.16 0 0 0 4.7 3.82 7 7 0 0 0 6.23-3.42 4.58 4.58 0 0 0 .83-3.25c.32 0 .31-.39.18-.78h2.16c-.13.39-.14.78.18.78a4.59 4.59 0 0 0 .83 3.25 7 7 0 0 0 6.23 3.42 5.16 5.16 0 0 0 4.7-3.82 8 8 0 0 0 .42-2.79 2.4 2.4 0 0 0 0-.73c.13 0 .54 0 .6-.16s.22-.8.09-1M126 139a6.81 6.81 0 0 1-6.07 3.33 5 5 0 0 1-4.53-3.7 8 8 0 0 1-.4-2.63.07.07 0 0 0 0-.05c0-.39.08-1.42.74-1.88a9.5 9.5 0 0 1 5.45-1.35c2.81 0 4.67 1.35 5.09 2.44a1.06 1.06 0 0 0 .53.63 4.42 4.42 0 0 1-.8 3.2m15.14-.37a5 5 0 0 1-4.53 3.7 6.82 6.82 0 0 1-6.07-3.33 4.37 4.37 0 0 1-.8-3.2 1.06 1.06 0 0 0 .53-.63c.42-1.09 2.28-2.44 5.09-2.44a9.5 9.5 0 0 1 5.45 1.35c.66.46.7 1.49.74 1.88a.07.07 0 0 0 0 .05 8 8 0 0 1-.42 2.62" fill="#0385a9"/><path d="M124.12 164.3c1.85 5.15 3.86 10.6 4 10.6s2.28-5.44 4.14-10.6z" fill="#fff"/><path d="M125.86 143s1.33 2.09 2.38 2.09a3.92 3.92 0 0 0 2.6-2.09 4.84 4.84 0 0 1-5 0" fill="#e0bc73"/><path d="M124 137.14c.8.49-1.25 1.5-2.91 1.39-1.5-.09-2.83-.76-2.83-1.33s1.33-1 2.83-1a5 5 0 0 1 2.91 1" fill="#fff"/><path d="M121.13 135.61c1.45-.16 3.1 1.74 3.1 1.74a7.14 7.14 0 0 0-2-.7 1.41 1.41 0 0 1 .07.41 1.14 1.14 0 1 1-2.27 0 1 1 0 0 1 0-.25 2.69 2.69 0 0 0-1.17.87c-.74-.12-1.16-1.53-1.16-1.53.75.21 1.91-.37 3.35-.54" fill="#71593b"/><path d="M124.06 134.26a4.08 4.08 0 0 1 .59 1.5 5.49 5.49 0 0 0-5.09-.77 3.74 3.74 0 0 1-2.56.21c2.11-2.62 6.73-1.21 7.06-.94" fill="#e0bc73"/><path d="M121.9 136.9a.31.31 0 1 1-.31-.31.31.31 0 0 1 .31.31m10.71.24c-.79.49 1.25 1.5 2.91 1.39 1.5-.09 2.83-.76 2.83-1.33s-1.32-1-2.83-1a5 5 0 0 0-2.91 1" fill="#fff"/><path d="M135.51 135.61c-1.45-.16-3.1 1.74-3.1 1.74a7.3 7.3 0 0 1 2-.7 1.13 1.13 0 0 0 1.06 1.55 1.14 1.14 0 0 0 1.13-1.14 1 1 0 0 0 0-.25 2.69 2.69 0 0 1 1.17.87c.74-.12 1.16-1.53 1.16-1.53-.75.21-1.9-.37-3.35-.54" fill="#71593b"/><path d="M132.58 134.26a4.08 4.08 0 0 0-.59 1.5 5.5 5.5 0 0 1 5.09-.77 3.74 3.74 0 0 0 2.56.21c-2.11-2.62-6.73-1.21-7.06-.94" fill="#e0bc73"/><path d="M135.51 136.88a.31.31 0 1 0 .31-.31.31.31 0 0 0-.31.31" fill="#fff"/><path fill="#d22427" d="M141.78 174.47l.35-4.34h1.13l.22 4.34-.57 4.39-.28-4.3-.85-.09z"/><path d="M131.36 148.13c-.32-.06-2.78-.75-3 0h-.11c-.23-.75-2.69-.06-3 0a4.38 4.38 0 0 1-1.29-.36c.06.13.22.42.55 1a4.72 4.72 0 0 0 3.79 2.74 4.72 4.72 0 0 0 3.79-2.74l.56-1a4.55 4.55 0 0 1-1.29.36" fill="#c14646"/><path d="M131.37 148.82a19.16 19.16 0 0 1-6.17 0 8.23 8.23 0 0 0 3 1.05h.27a8.23 8.23 0 0 0 3-1.05" fill="#fff"/><path d="M199.31 61.76c-25.95 0-31.5-10.65-31.5 2.12a184.15 184.15 0 0 0 31.5 2.7 184.3 184.3 0 0 0 31.5-2.7c0-12.77-5.31-2.12-31.5-2.12" fill="#1e3035"/><path d="M199.31 41.63c-17.4 0-31.5 9.2-31.5 20.56a205.64 205.64 0 0 0 31.5 2.41 205.8 205.8 0 0 0 31.5-2.41c0-11.36-14.1-20.56-31.5-20.56" fill="#283f48"/><path d="M199.31 55.13c-2.92 0-6.89-3.14-9.13-7C188.12 44.6 188 40.06 188 36c0-8.31 5.06-15.07 11.29-15.07S210.6 27.67 210.6 36c0 4.08-.11 8.62-2.17 12.16-2.24 3.85-6.2 7-9.12 7" fill="#e0c177"/><path d="M199.31 47.79c-5.4-.09-8.47-4-11.76-9a29.48 29.48 0 0 1-4.82-15.65c0-10.69 7.43-19.39 16.58-19.39s16.58 8.7 16.58 19.39a29.48 29.48 0 0 1-4.82 15.65c-3.3 5-6.49 9-11.76 9" fill="#f1cf7f"/><path d="M199.6 2.85h-.6c-9.6.26-17.28 7-17.28 15.24a25.16 25.16 0 0 0 1 6.08c.89-2.57 4.42-9.47 8-11.8 8 1.13 15.64-.83 15.93-.26 3.93 7.39 7.88 7.81 9.32 11.83a23.25 23.25 0 0 0 .89-5.85c0-5.24-2.87-12-7.81-12.61-.75-.09-1.64.19-2.35-.11s-.38-1.12-1.9-1.71a15.63 15.63 0 0 0-5.21-.81" fill="#283f48"/><path d="M207 1c.2-.13-3.43-1.16-4.6 1.73-.84-.54-1-1.32-.42-2.74a7.14 7.14 0 0 0-1.63 3 2.78 2.78 0 0 0 .1 2c.72 1.34 2.74 1.44 4.38 1.36.85 0 1.89-.8 2.73-.85-2.85-.86-.8-4.5-.56-4.5m9 22.94a28.07 28.07 0 0 0-1.69-8.48c-.81-2-2-4.23-4.52-5.19a13.86 13.86 0 0 0-3.25-.63c-3-.32-6-.55-9-.68a10.91 10.91 0 0 0-2.86.14 14.13 14.13 0 0 0-2.56 1c-1.16.5-2.42.87-3.51 1.46a8.49 8.49 0 0 0-3.5 3.7 18.65 18.65 0 0 0-1.39 4.47c-.32 1.48-.65 3-1 4.44 1.61-.23 2.18.18 3.26-.74.43-.36 1.72-1.83 2.15-2.2 1.37-1.15 3.5-1.93 4-3.42a4.42 4.42 0 0 1-1.8 4 22.27 22.27 0 0 0 3.45-2.3c1.27-.83 2.78-1.44 4.15-2.19a7 7 0 0 0 3.21-2.86 3.6 3.6 0 0 1-1.07 4 12.68 12.68 0 0 0 5.57-5.65 10.23 10.23 0 0 0 1.4 3.48 9 9 0 0 1 .49 6.59c1.77-1.13 2-3.08 2.13-4.82.62 1.57 4.79 7.33 6.29 5.89" fill="#283f48"/><path fill="#42b49b" d="M212.52 64.2l.39-4.76h1.24l.23 4.76-.62 4.82-.31-4.72-.93-.1z"/><path fill="#e6e7e8" d="M192.576 69.392l14.219-.564.34 8.573-14.22.564z"/><path d="M199.06 70.32a22.37 22.37 0 0 0-6.31-12.27l-.51-.52c-.42-.43-.86-.87-1.26-1.34a23.67 23.67 0 0 1-2.91-4.68c-.73-1.46-1.44-2.95-2.1-4.44l1.28-.57c.65 1.47 1.35 2.94 2.07 4.38a21.41 21.41 0 0 0 2.73 4.4c.37.44.78.85 1.19 1.26l.52.54a24.79 24.79 0 0 1 6.18 10.52c.05-.4.08-.82.12-1.25s.08-1.09.17-1.63c.61-3.92 3.36-6.91 6-9.79.43-.47.86-.93 1.27-1.39a50.49 50.49 0 0 0 4.64-6.07l1.18.77a53.24 53.24 0 0 1-4.77 6.23l-1.28 1.41c-2.52 2.73-5.12 5.55-5.67 9.06-.08.5-.11 1-.15 1.52a6.62 6.62 0 0 1-1.13 3.78z" fill="#344e5c"/><path fill="#e0e1e0" d="M206.58 60.46l-5.39-9.37 8.89-8.88 5.9 2.2-9.4 16.05zm-14.39-.04l5.35-9.34-8.92-8.92-5.89 2.17 9.46 16.09z"/><path d="M200.9 70.64l-2.31.09a.31.31 0 0 1-.32-.3.3.3 0 0 1 .29-.32l2.31-.09a.3.3 0 0 1 .32.29.31.31 0 0 1-.29.33" fill="#344e5c"/><path d="M194.64 23.27c.36.29.64 1.65.64 1.65a6 6 0 0 0-5.57-.84 4.13 4.13 0 0 1-2.81.22c2.31-2.87 7.37-1.32 7.74-1m9.36-.03a4.5 4.5 0 0 0-.65 1.65 6 6 0 0 1 5.58-.84 4.13 4.13 0 0 0 2.81.22c-2.32-2.87-7.38-1.32-7.74-1" fill="#283f48"/><path d="M199.25 39.37c-1.11 0-2.19 0-3.22-.06a6.19 6.19 0 0 0 6.43 0c-1 0-2.1.06-3.21.06m-2.96-6.25a5.89 5.89 0 0 0 2.88 1.4 5.09 5.09 0 0 0 3.16-1.4 10.08 10.08 0 0 1-6 0" fill="#e0bc73"/><path d="M202.27 41.85s-1.62-2.25-2.89-2.25a4.66 4.66 0 0 0-3.15 2.25 6.5 6.5 0 0 1 6 0" fill="#e0bc73"/><path d="M200.83 33.58c-.48.19-.82.46-.77.59s.49.08 1-.11a2 2 0 0 0 .77-.59 1.87 1.87 0 0 0-1 .11m-3.06 0c.48.19.82.46.77.59s-.49.08-1-.11a2 2 0 0 1-.77-.59 1.87 1.87 0 0 1 1 .11" fill="#c9a565"/><path d="M199.25 37.84c-1.08-1.2-5.34.43-5.34.43a18.42 18.42 0 0 1 5.34.56 18.38 18.38 0 0 1 5.33-.56s-4.25-1.63-5.33-.43" fill="#e0bc73"/><path d="M199.25 35.32c-.26 0-.47.46-.47 1s.21 1 .47 1zm-5.83 7.99a.39.39 0 1 1-.38-.38.38.38 0 0 1 .38.38m15.81-16c0 1-1.27 1.72-2.82 1.72s-2.83-.77-2.83-1.72 1.27-1.72 2.83-1.72 2.82.77 2.82 1.72m-14.23 0c0 1-1.27 1.72-2.82 1.72s-2.83-.77-2.83-1.72 1.27-1.72 2.83-1.72 2.82.77 2.82 1.72" fill="#e0bc73"/><path d="M204 26.43c-.87.54 1.37 1.64 3.19 1.53 1.65-.11 3.1-.84 3.1-1.46s-1.45-1.16-3.1-1.16a5.44 5.44 0 0 0-3.19 1.09" fill="#fff"/><path d="M207.19 24.76c-1.59-.19-3.4 1.9-3.4 1.9a8.16 8.16 0 0 1 2.15-.77 1.13 1.13 0 0 0-.09.45 1.25 1.25 0 1 0 2.49 0 1.18 1.18 0 0 0 0-.27 7.45 7.45 0 0 0 2 .43c.82-.14-1.53-1.56-3.11-1.74" fill="#283f48"/><path d="M207.19 26.14a.34.34 0 1 0 .67 0 .34.34 0 1 0-.67 0m-12.58.29c.87.54-1.37 1.64-3.19 1.53-1.65-.11-3.11-.84-3.11-1.46s1.45-1.16 3.11-1.16a5.5 5.5 0 0 1 3.19 1.09" fill="#fff"/><path d="M191.43 24.76c1.58-.19 3.4 1.9 3.4 1.9a8.29 8.29 0 0 0-2.15-.77 1.34 1.34 0 0 1 .09.45 1.25 1.25 0 1 1-2.5 0 1.18 1.18 0 0 1 0-.27 7.37 7.37 0 0 1-2 .43c-.81-.14 1.53-1.56 3.12-1.74" fill="#283f48"/><path d="M192.27 26.17a.34.34 0 1 1-.34-.34.34.34 0 0 1 .34.34" fill="#fff"/><path d="M184.81 33.24A11.37 11.37 0 0 0 187 34c.47 0 1.06 5.52 1.06 5.52s-2.93-4.47-3.21-6.23m28.96-.05a11.63 11.63 0 0 1-2.15.71c-.47 0-1.06 5.52-1.06 5.52s2.92-4.47 3.21-6.23" fill="#e5bf7b"/><path d="M132.21 93.22c-25.5 0-31-10.47-31 2.08a180.71 180.71 0 0 0 31 2.66 180.76 180.76 0 0 0 31-2.66c0-12.55-5.22-2.08-31-2.08" fill="#9bc2cc"/><path d="M132.21 73.43c-17.1 0-31 9-31 20.21a202.15 202.15 0 0 0 31 2.37 202.2 202.2 0 0 0 31-2.37c0-11.16-13.86-20.21-31-20.21" fill="#a4cad8"/><path d="M132.21 84.06c-2.87 0-6.76-.63-9-4.42-2-3.48-2.12-8-2.12-12 0-8.17 5-14.81 11.09-14.81s11.1 6.64 11.1 14.81c0 4-.1 8.48-2.12 12-2.21 3.79-6.11 4.42-9 4.42" fill="#b2d4e5"/><path d="M132.21 78.24c-4.21 0-8.32-2.68-11.56-7.56a29.07 29.07 0 0 1-4.74-15.38c0-10.51 7.32-19.07 16.3-19.07s16.3 8.56 16.3 19.07a29.06 29.06 0 0 1-4.73 15.38c-3.24 4.88-7.35 7.56-11.57 7.56" fill="#c7e5f8"/><path d="M132.5 35.31h-.57c-9.43.26-17 6.86-17 15a25.32 25.32 0 0 0 1 6c.89-2.53 3.82-10.49 7.88-11.61 2.12-.58 4.91 2.38 8.11 2.38h.63c3.2 0 6.76-3.24 6.92-2.63 1 3.77 7.64 6.38 9.06 10.33a14.23 14.23 0 0 0 1-4.45c0-5.15-2.82-11.84-7.68-12.4a8.1 8.1 0 0 1-2.31-.11c-.7-.3-.37-1.09-1.87-1.67a15.35 15.35 0 0 0-5.12-.8" fill="#a4cad8"/><path fill="#b8e3f9" d="M138.47 86.6l-3.18-4.41h-5.62l-3.19 4.41 3.32 3.35-.97 6.06h7.29l-.97-6.06 3.32-3.35z"/><path fill="#c7e5f8" d="M140.13 90.51l-4.78-8.32 7.92-7.91 5.24 1.94-8.38 14.29zm-15.24 0l4.78-8.32-7.92-7.91-5.24 1.94 8.38 14.29z"/><path fill="#b3daea" d="M129.67 82.19l-1.76 5.85-1.02-1.02 2.78-4.83zm5.62 0l1.76 5.85 1.01-1.02-2.77-4.83zm-.14 7.76h-5.35l2.47.56v5.5h3.86l-.98-6.06z"/><path d="M146.33 55.74a.27.27 0 0 0-.11-.22c-1-.58-3.05-.79-6.24-.92a16.94 16.94 0 0 0-6.64 1.47h-.15a3.94 3.94 0 0 0-.71 0 4 4 0 0 0-.72 0h-.14A17 17 0 0 0 125 54.6c-3.19.13-5.23.34-6.24.92a.27.27 0 0 0-.1.22v1.18s.28.08.4.58.39 2.31.54 2.78a8.18 8.18 0 0 0 .88 2.25 8.67 8.67 0 0 0 3.9 1c1.54 0 3.81-.1 4.52-.67 1.18-.92 2.34-4.24 2.66-4.86a.64.64 0 0 1 .24-.25 1.47 1.47 0 0 1 1.41 0 .7.7 0 0 1 .23.25c.32.62 1.48 3.94 2.66 4.86.72.57 3 .65 4.52.67a8.67 8.67 0 0 0 3.9-1 7.88 7.88 0 0 0 .88-2.25c.15-.47.41-2.29.54-2.78s.41-.58.41-.58v-1.18m-15.59 2.07c-.67 2.83-1.68 4.23-2.26 4.66s-3.25.58-3.85.58c-1 0-3.15-.26-3.93-1.36s-.81-3.51-.75-4.48a1.87 1.87 0 0 1 1.12-1.65 17.93 17.93 0 0 1 3.71-.49c.38 0 6.62-.09 6 2.74m13.51 3.88c-.77 1.1-2.92 1.36-3.92 1.36-.6 0-3.28-.15-3.86-.58s-1.59-1.83-2.25-4.66 5.57-2.75 6-2.74a17.85 17.85 0 0 1 3.7.49 1.86 1.86 0 0 1 1.02 1.65c.06 1 0 3.39-.75 4.48" fill="#a4cad8"/><path d="M264.09 174.38c-25.88 0-31.41-10.62-31.41 2.11a183.11 183.11 0 0 0 31.41 2.7 183.26 183.26 0 0 0 31.41-2.7c0-12.73-5.3-2.11-31.41-2.11" fill="#8b5e3c"/><path d="M264.09 154.3c-17.35 0-31.41 9.18-31.41 20.51a205.3 205.3 0 0 0 31.41 2.4 205.47 205.47 0 0 0 31.41-2.4c0-11.33-14.06-20.51-31.41-20.51" fill="#a97c50"/><path d="M264.09 167.76c-2.91 0-6.87-3.12-9.1-7-2.05-3.52-2.16-8-2.16-12.12 0-8.29 5-15 11.26-15s11.25 6.74 11.25 15c0 4.06-.1 8.6-2.15 12.12-2.24 3.85-6.19 7-9.1 7" fill="#e0c177"/><path d="M264.09 159.18c-4.28 0-8.44-2.72-11.73-7.67a29.42 29.42 0 0 1-4.81-15.6c0-10.67 7.42-19.34 16.54-19.34s16.53 8.67 16.53 19.34a29.42 29.42 0 0 1-4.81 15.6c-3.28 5-7.45 7.67-11.72 7.67" fill="#f1cf7f"/><path d="M264.38 115.63h-.58c-9.57.26-17.23 7-17.23 15.2a25.41 25.41 0 0 0 1 6.06c.9-2.56 4.41-9.44 8-11.77 8 1.13 15.59-.82 15.88-.26 3.92 7.37 7.76 6.48 9.19 10.49a14.19 14.19 0 0 0 1-4.52c0-5.23-2.86-12-7.78-12.57-.75-.09-1.65.19-2.35-.12s-.37-1.11-1.9-1.7a15.51 15.51 0 0 0-5.19-.81" fill="#e5be44"/><path d="M271.72 113.8c.2-.13-3.41-1.15-4.58 1.73-.84-.55-1-1.32-.42-2.74a7 7 0 0 0-1.62 3 2.73 2.73 0 0 0 .1 2c.71 1.33 2.73 1.44 4.37 1.35.84-.05 1.88-.8 2.72-.84-2.82-.86-.77-4.46-.57-4.48m8.99 22.27a28 28 0 0 0-1.68-8.46c-.81-2-2-4.22-4.51-5.17a13.68 13.68 0 0 0-3.24-.63c-3-.32-6-.55-9-.68a10.91 10.91 0 0 0-2.86.14 14.81 14.81 0 0 0-2.55 1c-1.16.5-2.42.87-3.5 1.46a8.4 8.4 0 0 0-3.49 3.69 18.41 18.41 0 0 0-1.38 4.46c-.33 1.47-.65 3-1 4.42 1.6-.23 2.18.18 3.25-.73.43-.37 1.71-1.83 2.15-2.2 1.36-1.15 3.48-1.93 4-3.42a4.42 4.42 0 0 1-1.79 4 23.37 23.37 0 0 0 3.44-2.29c1.26-.84 2.77-1.45 4.14-2.19a6.92 6.92 0 0 0 3.19-2.86 3.6 3.6 0 0 1-1.06 4 12.68 12.68 0 0 0 5.55-5.62 10.34 10.34 0 0 0 1.4 3.46 9.05 9.05 0 0 1 .49 6.58c1.76-1.14 2-3.08 2.12-4.82.62 1.58 4.77 7.32 6.27 5.88" fill="#e5be44"/><path fill="#41579a" d="M277.26 176.81l.39-4.75h1.23l.24 4.75-.62 4.8-.31-4.7-.93-.1z"/><path fill="#e6e7e8" d="M257.375 181.987l14.179-.562.339 8.553-14.18.562z"/><path d="M263.84 182.92a22.25 22.25 0 0 0-6.29-12.24l-.51-.52c-.42-.43-.85-.87-1.26-1.34a23.26 23.26 0 0 1-2.9-4.67c-.73-1.45-1.43-2.94-2.1-4.42l1.28-.57c.66 1.46 1.35 2.93 2.07 4.36a21.46 21.46 0 0 0 2.72 4.39c.37.44.78.85 1.19 1.27l.52.53a24.75 24.75 0 0 1 6.16 10.49c0-.4.08-.82.12-1.24s.08-1.1.16-1.63c.62-3.91 3.36-6.89 6-9.77.43-.46.86-.92 1.27-1.38a52.08 52.08 0 0 0 4.63-6.05l1.17.76a52 52 0 0 1-4.76 6.22l-1.28 1.4c-2.5 2.72-5.1 5.54-5.64 9-.08.49-.12 1-.16 1.51a6.49 6.49 0 0 1-1.13 3.77z" fill="#344e5c"/><path fill="#f1f2f2" d="M271.34 173.08l-5.37-9.34 8.85-8.86 5.89 2.19-9.37 16.01zm-14.35-.04l5.33-9.31-8.89-8.9-5.88 2.17 9.44 16.04z"/><path d="M265.67 183.23l-2.3.09a.32.32 0 0 1-.32-.3.31.31 0 0 1 .3-.32l2.3-.09a.31.31 0 1 1 0 .62" fill="#344e5c"/><path d="M259.4 139.14c.87.54-1.37 1.64-3.18 1.53-1.65-.1-3.1-.84-3.1-1.46s1.45-1.15 3.1-1.15a5.44 5.44 0 0 1 3.18 1.08" fill="#fff"/><path d="M256.23 137.48c1.58-.18 3.39 1.9 3.39 1.9a7.88 7.88 0 0 0-2.14-.77 1.33 1.33 0 0 1 .08.45 1.24 1.24 0 0 1-2.48 0 1.27 1.27 0 0 1 0-.28 7.45 7.45 0 0 1-2 .43c-.81-.13 1.53-1.55 3.11-1.73" fill="#71593b"/><path d="M259.43 136c.36.29.64 1.64.64 1.64a6 6 0 0 0-5.56-.84 4 4 0 0 1-2.8.22c2.31-2.86 7.36-1.32 7.72-1" fill="#e0bc73"/><path d="M257.07 138.88a.34.34 0 0 1-.34.34.34.34 0 1 1 0-.67.34.34 0 0 1 .34.33m11.7.26c-.86.54 1.37 1.64 3.18 1.53 1.65-.1 3.1-.84 3.1-1.46s-1.45-1.15-3.1-1.15a5.47 5.47 0 0 0-3.18 1.08" fill="#fff"/><path d="M271.94 137.48c-1.58-.18-3.39 1.9-3.39 1.9a7.82 7.82 0 0 1 2.15-.77 1.13 1.13 0 0 0-.09.45 1.25 1.25 0 0 0 2.49 0 1.27 1.27 0 0 0 0-.28 7.33 7.33 0 0 0 2 .43c.82-.13-1.52-1.55-3.11-1.73" fill="#71593b"/><path d="M268.75 136c-.37.29-.65 1.64-.65 1.64a6 6 0 0 1 5.56-.84 4 4 0 0 0 2.8.22c-2.3-2.86-7.35-1.32-7.71-1" fill="#e0bc73"/><path d="M272 138.86a.34.34 0 1 0 .33-.34.34.34 0 0 0-.33.34" fill="#fff"/><path d="M264 155.84q1.23 0 2.37.06a3.73 3.73 0 0 0-4.74 0c.75 0 1.55-.06 2.37-.06m-3-10.39s1.61 2.24 2.87 2.24a4.65 4.65 0 0 0 3.15-2.24 6.5 6.5 0 0 1-6 0" fill="#e0bc73"/><path d="M266.08 146.2c-.38.34-.62.71-.52.81s.48-.08.86-.42a1.91 1.91 0 0 0 .52-.81 1.91 1.91 0 0 0-.86.42m-4.01 0c.38.34.61.71.52.81s-.48-.08-.87-.42a2 2 0 0 1-.52-.81 2 2 0 0 1 .87.42" fill="#c9a565"/><path d="M278.18 136.41a.27.27 0 0 0-.11-.22c-1-.58-3.08-.8-6.32-.93a17 17 0 0 0-6.74 1.49h-.15a8.78 8.78 0 0 0-1.45 0h-.15a17 17 0 0 0-6.74-1.49c-3.24.13-5.3.35-6.33.93a.27.27 0 0 0-.1.22v1.2s.28.08.41.58.39 2.35.54 2.83a8.27 8.27 0 0 0 .89 2.28 8.66 8.66 0 0 0 4 1c1.57 0 3.86-.1 4.59-.67 1.2-.94 2.37-4.31 2.7-4.94a.64.64 0 0 1 .24-.25 1.35 1.35 0 0 1 .72-.18 1.34 1.34 0 0 1 .71.18.64.64 0 0 1 .24.25c.33.63 1.5 4 2.7 4.94.73.57 3 .65 4.59.67a8.66 8.66 0 0 0 4-1 8.6 8.6 0 0 0 .89-2.28c.15-.48.41-2.33.54-2.83s.41-.58.41-.58v-1.2m-15.81 2.11c-.67 2.87-1.7 4.28-2.28 4.72s-3.31.58-3.92.58c-1 0-3.2-.26-4-1.37s-.82-3.56-.76-4.54a1.92 1.92 0 0 1 1.13-1.68 18.56 18.56 0 0 1 3.76-.5c.39 0 6.72-.08 6.05 2.79m13.71 3.93c-.79 1.11-3 1.37-4 1.37-.61 0-3.33-.15-3.92-.58s-1.61-1.85-2.28-4.72 5.66-2.8 6-2.79a18.64 18.64 0 0 1 3.77.5 1.92 1.92 0 0 1 1.13 1.68c.06 1 0 3.43-.76 4.54" fill="#344e5c"/><path fill="#fff" d="M263.19 136.59h1.87v2.1h-1.87z"/><path d="M267.86 150.17a16.49 16.49 0 0 0-7.65 0 6.68 6.68 0 0 1-1.61-.4c.08.15.27.46.69 1.09a5.9 5.9 0 0 0 4.74 3 5.9 5.9 0 0 0 4.74-3c.42-.63.6-.94.69-1.09a5.85 5.85 0 0 1-1.61.4" fill="#e5bf7b"/><path d="M268.54 151.08a32 32 0 0 1-9 0 13.24 13.24 0 0 0 4.32 1.32h.39a13.33 13.33 0 0 0 4.32-1.32" fill="#fff"/></g></g></svg>