<svg xmlns="http://www.w3.org/2000/svg" viewBox="0 0 190.28 91.9"><defs><clipPath id="a"><path fill="none" d="M0 0h190.28v91.9H0z"/></clipPath><clipPath id="b"><path d="M33.62 53L6 51.44a1.53 1.53 0 0 0-1.59 1.48v36A1.51 1.51 0 0 0 6 90.4s16 1 27.54 1 27.53-1 27.53-1a1.54 1.54 0 0 0 1.59-1.48v-36a1.61 1.61 0 0 0-1.59-1.48z" fill="none"/></clipPath></defs><g data-name="Layer 2"><g clip-path="url(#a)" data-name="Layer 1"><g clip-path="url(#a)"><path d="M62.69 53.18a5.38 5.38 0 0 0-2.17-4.7c-5.12-3.49-18.34-14-24-18a5.25 5.25 0 0 0-5.92 0c-5.66 4-18.88 14.43-24 18a5.31 5.31 0 0 0-2.17 4.7V57l.95 29.87a2 2 0 0 0 2.18 1.73h52a2 2 0 0 0 2.18-1.6l.95-29.81v-4.01z" fill="#ccc6ae"/><path d="M56.45 29.45a1.8 1.8 0 0 0-1.79-1.74h-43.3a1.7 1.7 0 0 0-1.79 1.63v.06l-.85 19.34V49l.16 4.81v1.8s17.45 15.54 21.84 19.66a4.08 4.08 0 0 0 5.07.32c4.6-4 21.78-18.93 21.78-19.3 0-2.38.1-5.12.1-7.29a128 128 0 0 0-1.27-19.56" fill="#f2f3f2"/><path d="M62.69 54.29h-2.91l-19 16.92 20.38 19.08-21.73-17.92-3.64 3.28a2.61 2.61 0 0 1-1.75.48H33a2.61 2.61 0 0 1-1.75-.48l-3.55-3.23L6.55 90.29H6l20.38-19.08L7.45 54.29h-2.9v34.63a1.51 1.51 0 0 0 1.58 1.48s16 1 27.54 1 27.54-1 27.54-1a1.54 1.54 0 0 0 1.59-1.48V54.56c-.11-.06-.11-.16-.11-.27" fill="#d7d3b8"/><path fill="#b85359" d="M4.49 59.26l1.8-1.06v-3.91h-1.8v4.97z"/><path fill="#fff" d="M4.49 63.23l1.8-1.06v-3.91l-1.8 1.05v3.92zm0 7.77l1.8-1.01v-3.91l-1.8 1.01V71z"/><path fill="#4483a8" d="M4.49 67.09l1.8-1.06v-3.91l-1.8 1.05v3.92z"/><path fill="#b85359" d="M4.49 74.96l1.8-1.05v-3.92l-1.8 1.06v3.91z"/><path fill="#fff" d="M4.49 78.93l1.8-1.06v-3.91l-1.8 1.05v3.92zm0 7.82l1.8-1.06v-3.91l-1.8 1.06v3.91z"/><path fill="#4483a8" d="M4.49 82.78l1.8-1.05v-3.91l-1.8 1.05v3.91zm0 6.08l1.8.74v-3.85l-1.8 1v2.11z"/><path fill="#b85359" d="M60.89 59.26l1.85-1.06v-3.91h-1.85v4.97z"/><path fill="#fff" d="M60.89 63.23l1.85-1.06v-3.91l-1.85 1.05v3.92zm0 7.77l1.85-1.01v-3.91l-1.85 1.01V71z"/><path fill="#4483a8" d="M60.89 67.09l1.85-1.06v-3.91l-1.85 1.05v3.92z"/><path fill="#b85359" d="M60.89 74.96l1.85-1.05v-3.92l-1.85 1.06v3.91zm0 14.48l1.85-.74v-2.9l-1.85.74v2.9z"/><path fill="#fff" d="M60.89 78.93l1.85-1.06v-3.91l-1.85 1.05v3.92zm0 7.82l1.85-1.06v-3.91l-1.85 1.06v3.91z"/><path fill="#4483a8" d="M60.89 82.78l1.85-1.05v-3.91l-1.85 1.05v3.91z"/></g><g clip-path="url(#b)"><path d="M27.43 89.6l1 1.85h3.91l-1.06-1.79c-1.48-.06-2.27-.06-3.86-.06" fill="#b85359"/><path d="M23.52 89.55l1 1.85h3.91l-1-1.85h-3.91m-7.82-.21l1 1.85c1.59 0 2.33 0 3.92.11l-1-1.86c-1.58 0-2.38 0-3.91-.1" fill="#fff"/><path d="M19.61 89.45l1 1.85h3.91l-1-1.85h-3.91" fill="#4483a8"/><path d="M11.73 89.18l1 1.85c1.58 0 2.32.11 3.91.11l-1-1.85c-1.48 0-2.27 0-3.86-.11" fill="#b85359"/><path d="M7.77 89l1 1.85c1.59.06 2.33.11 3.91.16l-1-1.85c-1.48-.05-2.27-.05-3.86-.16M0 88.6l1 1.9c1.59.11 2.33.16 3.91.21l-1-1.9c-1.58 0-2.38-.1-3.91-.21" fill="#fff"/><path d="M3.91 88.81l1 1.9c1.59.11 2.33.11 3.91.22l-1-1.93c-1.53 0-2.32-.1-3.91-.21" fill="#4483a8"/><path d="M58.94 88.86l1.16 1.75c1.59-.11 2.33-.11 3.91-.21l-1.16-1.75c-1.59.11-2.38.16-3.91.21" fill="#b85359"/><path d="M55 89.08l1.11 1.79c1.59-.05 2.33-.1 3.92-.21l-1.17-1.74c-1.53 0-2.27.1-3.86.16m-7.85.31l1.11 1.8c1.59 0 2.33-.11 3.91-.16l-1.11-1.8c-1.53.06-2.32.11-3.91.16" fill="#fff"/><path d="M51.12 89.23L52.23 91c1.58 0 2.32-.1 3.91-.16L55 89.08c-1.59 0-2.38.1-3.91.15" fill="#4483a8"/><path d="M43.19 89.5l1.11 1.8c1.58-.06 2.32-.06 3.91-.11l-1.11-1.8c-1.53.06-2.33.06-3.91.11" fill="#b85359"/><path d="M39.27 89.55l1.06 1.8c1.59 0 2.33 0 3.91-.11l-1.11-1.79c-1.53 0-2.32.1-3.86.1m-7.82.05l1.06 1.8h3.91l-1.06-1.8h-3.91z" fill="#fff"/><path d="M35.42 89.6l1 1.8c1.59 0 2.33 0 3.92-.05l-1.06-1.8h-3.91" fill="#4483a8"/></g><g clip-path="url(#a)"><path fill="#e9e8e9" d="M14.22 33.31H29.5v16.92H14.22zm17.81 0h21.2v1.8h-21.2zm0 3.75h21.2v1.85h-21.2zm0 3.81h21.2v1.85h-21.2zm0 3.75h21.2v1.85h-21.2zm0 3.81h21.2v1.85h-21.2zm-17.81 3.75h39.01v1.85H14.22zm0 3.54h39.01v1.85H14.22zm0 4.49l1.48 1.33h36.05l1.48-1.33v-.52H14.22v.52zm5.92 5.34H47.2l2.07-1.79H18.13l2.01 1.79zm4.44 4.02H42.6l2.07-1.8h-22.1l2.01 1.8zm4.44 4.02h8.99l2.11-1.8H27.01l2.01 1.8z"/><path d="M165.24 53.53l-26.35 1.55-26.5-1.55a1.48 1.48 0 0 0-1.51 1.47v34.49a1.47 1.47 0 0 0 1.51 1.44s15.3 1 26.43 1 26.42-1 26.42-1a1.48 1.48 0 0 0 1.52-1.44V55a1.48 1.48 0 0 0-1.52-1.44" fill="#e4a75b"/><path d="M165.24 53.53h-52.85a1.48 1.48 0 0 0-1.51 1.47v33a1.48 1.48 0 0 0 1.51 1.44s15.31 1 26.43 1 26.42-1 26.42-1a1.48 1.48 0 0 0 1.52-1.44V55a1.48 1.48 0 0 0-1.52-1.44m.06 35.72h-.05l-20.79-17.2L141 75.2a2.58 2.58 0 0 1-1.68.45h-1a2.54 2.54 0 0 1-1.67-.45l-3.47-3.09-20.32 17.15h-.53L131.84 71l-19.51-17.46 24.28 18.79a2.81 2.81 0 0 0 1.67.39h1a2.85 2.85 0 0 0 1.68-.39l24.34-18.79L145.73 71z" fill="#f1c849"/><path d="M165.25 53.53l-26.36-.68-26.49.68h-.07l24.27 18.8a2.87 2.87 0 0 0 1.68.39h1a2.79 2.79 0 0 0 1.67-.39l24.35-18.79h-.05" fill="#fef388"/><path d="M190.28 72a1.74 1.74 0 0 0-.65-1.35l-14.88-11.9a1.72 1.72 0 0 0-2.75 1.34v5.36h-17.19a2.34 2.34 0 0 0-2.34 2.34V72z" fill="#42b49b"/><path d="M190.28 72a1.73 1.73 0 0 1-.65 1.34l-14.88 11.8A1.72 1.72 0 0 1 172 83.8v-5.36h-17.19a2.34 2.34 0 0 1-2.34-2.34V72z" fill="#10967b"/><path d="M96.1.81a332.65 332.65 0 0 0-46.4 0 1.3 1.3 0 0 0-1.33 1.26v45.26a1.3 1.3 0 0 0 1.33 1.27 332.65 332.65 0 0 0 46.4 0 1.3 1.3 0 0 0 1.33-1.27V2.07A1.3 1.3 0 0 0 96.1.81" fill="#2caae2"/><path d="M97.43 22.65v-3.71q-14.36-.23-28.71.76a1.3 1.3 0 0 0-1.33 1.3v28.4h3.73V24.7a1.3 1.3 0 0 1 1.33-1.27q12.48-.86 25-.78" fill="#209cc6"/><path d="M55.5 20.07a7.66 7.66 0 0 0 3.34.95v-.06l-.2-.16a7.59 7.59 0 0 1-1.81-1.94 8.08 8.08 0 0 1-1.12-2.69 7.85 7.85 0 0 1-.12-2.69 7.63 7.63 0 0 1 .78-2.55c.22-.42.19-.41.51 0 .58.63 1.16 1.27 1.77 1.87s1.18 1.06 1.8 1.55a18 18 0 0 0 2.71 1.77c.43.22.85.48 1.3.66.88.37 1.77.75 2.68 1a29 29 0 0 0 2.92.73c.74.14 1.49.17 2.24.25.21 0 .23 0 .19-.24a8.37 8.37 0 0 1 .18-3.79 7.93 7.93 0 0 1 1.67-3 7.51 7.51 0 0 1 3.4-2.25 7.33 7.33 0 0 1 4.35-.1 7.45 7.45 0 0 1 3.48 2.05.38.38 0 0 0 .39.11 15.93 15.93 0 0 0 3.73-1.32c.3-.14.59-.32.91-.45A7.83 7.83 0 0 1 87.44 14a14.91 14.91 0 0 0 4.21-1.15 1.14 1.14 0 0 1-.08.2A16.07 16.07 0 0 1 89 16c-.29.27-.62.51-.92.77a.42.42 0 0 0-.14.27 24.14 24.14 0 0 1-.35 4.73c-.15.88-.4 1.73-.63 2.59a19.49 19.49 0 0 1-1.3 3.41c-.46.95-1 1.86-1.55 2.77A12.49 12.49 0 0 1 83 32.05c-.68.81-1.39 1.59-2.12 2.35a17.49 17.49 0 0 1-2.7 2.23A20.81 20.81 0 0 1 72 39.51a24 24 0 0 1-3.36.65 21.23 21.23 0 0 1-4.91.05 24.7 24.7 0 0 1-2.73-.45 18.15 18.15 0 0 1-4-1.37c-.88-.43-1.73-.91-2.59-1.37a.84.84 0 0 1-.21-.21 15.35 15.35 0 0 0 11.16-3.26 7.84 7.84 0 0 1-6-3.36 6.6 6.6 0 0 1-1-2.11c.58 0 1.12.08 1.67.06a11.6 11.6 0 0 0 1.62-.21 8.2 8.2 0 0 1-4.36-2.87 7.85 7.85 0 0 1-1.67-5" fill="#fff"/><path d="M87.33 22.68c.08-.33.16-.66.22-1a24.31 24.31 0 0 0 .31-2.82c-6.38.08-12.76.32-19.14.76a1.3 1.3 0 0 0-1.33 1.27V40.2c.42 0 .83-.06 1.25-.11.83-.11 1.66-.26 2.48-.45v-15a1.3 1.3 0 0 1 1.33-1.27q7.44-.51 14.88-.68" fill="#f1f2f2"/><path d="M118.63 23.34a332.51 332.51 0 0 0-46.39 0 1.3 1.3 0 0 0-1.34 1.26v45.27a1.3 1.3 0 0 0 1.34 1.26 332.51 332.51 0 0 0 46.39 0 1.3 1.3 0 0 0 1.37-1.26V24.6a1.3 1.3 0 0 0-1.33-1.26" fill="#3b589f"/><path d="M105.72 62.53v9.1c0 .31 0 .31-.3.31h-7.11c-.29 0-.29 0-.29-.3V53.46a.49.49 0 0 0 0-.21.26.26 0 0 0-.15-.14H92c-.3 0-.3 0-.3-.31V46c0-.31 0-.31.3-.31h5.81c.21 0 .27 0 .27-.26v-5.29a11.18 11.18 0 0 1 .88-4.5 7.89 7.89 0 0 1 2.81-3.45 8.47 8.47 0 0 1 3.51-1.41 13 13 0 0 1 2-.2h3.33c.85 0 1.7.13 2.55.21.06 0 .12.1.15.16a.46.46 0 0 1 0 .17v6c0 .32 0 .32-.32.32h-3.55a7.54 7.54 0 0 0-1.71.2 2.31 2.31 0 0 0-1.84 2.15 11.48 11.48 0 0 0-.09 1.44v4.15c0 .2.06.24.26.24h6.64c.41 0 .38 0 .33.35-.2 1.45-.39 2.89-.58 4.34-.1.75-.19 1.51-.27 2.26 0 .46 0 .46-.51.46H106c-.29 0-.29 0-.29.29z" fill="#fff"/></g></g></g></svg>