<svg xmlns="http://www.w3.org/2000/svg" viewBox="0 0 72.78 63.09"><defs><clipPath id="a"><path fill="none" d="M0 0h72.78v63.09H0z"/></clipPath></defs><title>recommendations</title><g data-name="Layer 2"><g clip-path="url(#a)" data-name="Layer 1"><path d="M61.36 32.41A30.68 30.68 0 1 1 30.68 1.73a30.69 30.69 0 0 1 30.68 30.68" fill="#9e3a34"/><path d="M61.36 30.68A30.68 30.68 0 1 1 30.68 0a30.69 30.69 0 0 1 30.68 30.68" fill="#ca4d46"/><path d="M54.18 30.68a23.5 23.5 0 1 1-23.5-23.5 23.5 23.5 0 0 1 23.5 23.5" fill="#e15c45"/><path d="M45.91 30.68a15.23 15.23 0 1 1-15.23-15.23 15.23 15.23 0 0 1 15.23 15.23" fill="#ca4d46"/><path d="M37.76 30.68a7.08 7.08 0 1 1-7.08-7.08 7.08 7.08 0 0 1 7.08 7.08" fill="#fff"/><path d="M36.25 35.11a7.87 7.87 0 0 1-2.79 2.15l10.73 21a30.41 30.41 0 0 0 4.86-3z" fill="#b9463f"/><path d="M36.25 35.11a7.87 7.87 0 0 1-2.79 2.15l7.46 14.57a23.49 23.49 0 0 0 4.26-2.68z" fill="#cf553f"/><path d="M32.8 29.68c-2.32-.22-2.42 1.58-2.42 1.58l3.05 5.94a7.09 7.09 0 0 0 2.79-2.14z" fill="#e6e7e8"/><path d="M36.25 35.11a7.87 7.87 0 0 1-2.79 2.15l3.68 7.19a14.92 14.92 0 0 0 3.56-2.34z" fill="#b9463f"/><path d="M72.71 25.05c-4 3.73-21.59-.64-23.17-.61s13.11-16.71 18.81-16C70.29 8.67 63.8 19 63.8 19s9.89 5.14 8.91 6.06" fill="#10967b"/><path d="M30.93 29.23L65 14.81s-2.15 4.41 1.22 6.24L32.08 31.88s-1.76-.4-1.15-2.65" fill="#e4a75b"/><path d="M69 17.9a3.19 3.19 0 1 1-3.19-3.19A3.18 3.18 0 0 1 69 17.9" fill="#f1c849"/><path d="M50.37 25.94s5.15 14.62 12.28-3.65zM62 17.69S47.49 5.12 49.67 22.5z" fill="#42b49b"/><path d="M33.09 30.5a1.46 1.46 0 1 1-1.46-1.45 1.46 1.46 0 0 1 1.46 1.45" fill="#e4a75b"/></g></g></svg>