<svg xmlns="http://www.w3.org/2000/svg" viewBox="0 0 326.8 321.04"><defs><clipPath id="a"><path fill="none" d="M0 0h326.8v321.04H0z"/></clipPath></defs><title>secret_weapon</title><g data-name="Layer 2"><g clip-path="url(#a)" data-name="Layer 1"><path d="M317 24.64A42.36 42.36 0 0 1 324.84 0a42.48 42.48 0 0 1-24.64 7.84A42.36 42.36 0 0 1 275.57 0a42.68 42.68 0 0 1 0 49.28 42.65 42.65 0 0 1 49.27 0A42.43 42.43 0 0 1 317 24.64" fill="#f0c749"/><path d="M309.27 122.12a32.5 32.5 0 0 1-9.07-17.53 32.51 32.51 0 0 1-26.59 26.59 32.56 32.56 0 0 1 26.6 26.6 32.53 32.53 0 0 1 26.59-26.6 32.42 32.42 0 0 1-17.53-9.06" fill="#41b39a"/><path d="M222 9.4a17.33 17.33 0 0 1-4.84-9.4 17.41 17.41 0 0 1-4.87 9.4 17.33 17.33 0 0 1-9.4 4.86 17.49 17.49 0 0 1 14.27 14.27 17.47 17.47 0 0 1 14.26-14.27A17.33 17.33 0 0 1 222 9.4" fill="#e15d45"/><path d="M141.58 48a49.63 49.63 0 0 1-13.88-26.8A49.54 49.54 0 0 1 113.83 48 49.5 49.5 0 0 1 87 61.91a49.81 49.81 0 0 1 40.69 40.69 49.79 49.79 0 0 1 40.67-40.69A49.51 49.51 0 0 1 141.58 48" fill="#01a0ca"/><path d="M252.46 100L33.87 318.55a3.17 3.17 0 0 1-4.44 0L2.49 291.6a3.16 3.16 0 0 1 0-4.43l218.6-218.59a3.14 3.14 0 0 1 4.43 0l26.94 26.94a3.14 3.14 0 0 1 0 4.43" fill="#29414e"/><path d="M15.82 304.93l223-223-13.3-13.35a3.14 3.14 0 0 0-4.43 0L2.49 287.17a3.15 3.15 0 0 0 0 4.44z" fill="#315d6d"/><path d="M43.84 245.44L.93 288.35a3.17 3.17 0 0 0 0 4.49l27.27 27.27a3.17 3.17 0 0 0 4.49 0L75.6 277.2zm167.28-103.75L254 98.78a3.17 3.17 0 0 0 0-4.49L226.75 67a3.17 3.17 0 0 0-4.49 0l-42.91 42.91z" fill="#cfcfce"/><path d="M.93 288.35a1.7 1.7 0 0 0-.22.24 3.19 3.19 0 0 0-.7 1.7 5.8 5.8 0 0 0 0 .59v.32a3.06 3.06 0 0 0 .17.59 3.53 3.53 0 0 0 .48.81l.22.24 13.48 13.49 45.16-45.16-15.68-15.73zM226.75 67a2.64 2.64 0 0 0-.41-.34 3 3 0 0 0-.49-.28l-.23-.09a2.77 2.77 0 0 0-.41-.12 3.13 3.13 0 0 0-2.93.85l-42.91 42.91 15.74 15.73 45.13-45.16z" fill="#fff"/><path fill="#386572" d="M47.626 246.474l132.788-132.787 3.642 3.641L51.268 250.116z"/><path fill="#eceef0" d="M203.837 134.167l45.057-45.057 3.691 3.69-45.057 45.058zM23.044 314.96l45.057-45.058 3.691 3.692-45.056 45.056z"/></g></g></svg>