<svg xmlns="http://www.w3.org/2000/svg" viewBox="0 0 150.67 88.62"><defs><clipPath id="a"><path fill="none" d="M0 0h150.67v88.62H0z"/></clipPath></defs><g data-name="Layer 2"><g clip-path="url(#a)" data-name="Layer 1"><path d="M118.84 59.55C92.61 59.55 87 48.78 87 61.68a185.57 185.57 0 0 0 31.84 2.74 185.37 185.37 0 0 0 31.83-2.74c0-12.9-5.37-2.13-31.83-2.13" fill="#283d48"/><path d="M118.84 39.2C101.26 39.2 87 48.51 87 60a207.68 207.68 0 0 0 31.84 2.44A207.46 207.46 0 0 0 150.67 60c0-11.47-14.25-20.78-31.83-20.78" fill="#344e5c"/><path d="M118.84 50.13c-3 0-7-.65-9.23-4.55-2.07-3.57-2.18-8.17-2.18-12.29 0-8.39 5.12-15.23 11.41-15.23s11.4 6.84 11.4 15.23c0 4.12-.1 8.72-2.18 12.29-2.27 3.9-6.27 4.55-9.22 4.55" fill="#e0c177"/><path d="M118.84 44.15c-4.34 0-8.56-2.76-11.89-7.78a29.81 29.81 0 0 1-4.87-15.81c0-10.8 7.52-19.6 16.76-19.6s16.75 8.8 16.75 19.6a29.81 29.81 0 0 1-4.87 15.81c-3.33 5-7.55 7.78-11.88 7.78" fill="#f1cf7f"/><path fill="#59b4de" d="M125.27 52.74l-3.28-4.53h-5.77l-3.28 4.53 3.42 3.45-1 6.23h7.5l-1-6.23 3.41-3.45z"/><path fill="#f1f2f2" d="M126.97 56.76l-4.91-8.55 8.14-8.13 5.39 1.99-8.62 14.69zm-15.66 0l4.91-8.55-8.14-8.13-5.39 1.99 8.62 14.69z"/><path fill="#00a1cb" d="M116.22 48.21l-1.81 6.02-1.04-1.06 2.85-4.96zm5.78 0l1.81 6.02 1.04-1.06-2.85-4.96zm-.14 7.98h-5.5l2.54.57v5.66h3.96l-1-6.23z"/><path d="M114.36 24.05c.87.55-1.39 1.66-3.23 1.55-1.66-.11-3.14-.85-3.14-1.48s1.47-1.12 3.14-1.12a5.6 5.6 0 0 1 3.23 1.09" fill="#fff"/><path d="M111.14 22.36c1.61-.18 3.44 1.93 3.44 1.93a8.1 8.1 0 0 0-2.17-.78 1.34 1.34 0 0 1 .08.46 1.26 1.26 0 1 1-2.48-.28 7.63 7.63 0 0 1-2 .43c-.82-.14 1.55-1.57 3.15-1.76" fill="#71593b"/><path d="M114.38 20.86a4.5 4.5 0 0 1 .66 1.67 6.07 6.07 0 0 0-5.64-.86 4.12 4.12 0 0 1-2.84.23c2.34-2.9 7.46-1.33 7.82-1" fill="#e0bc73"/><path d="M112 23.79a.34.34 0 1 1-.34-.34.34.34 0 0 1 .34.34m11.85.26c-.87.55 1.39 1.66 3.23 1.55 1.67-.11 3.14-.85 3.14-1.48S128.75 23 127.08 23a5.63 5.63 0 0 0-3.23 1.09" fill="#fff"/><path d="M127.07 22.36c-1.61-.18-3.44 1.93-3.44 1.93a8.1 8.1 0 0 1 2.17-.78 1.34 1.34 0 0 0-.08.46 1.26 1.26 0 1 0 2.48-.28 7.63 7.63 0 0 0 2 .43c.82-.14-1.55-1.57-3.15-1.76" fill="#71593b"/><path d="M123.83 20.86a4.5 4.5 0 0 0-.66 1.67 6.07 6.07 0 0 1 5.64-.86 4.12 4.12 0 0 0 2.84.23c-2.34-2.9-7.46-1.33-7.82-1" fill="#e0bc73"/><path d="M127.07 23.76a.34.34 0 1 0 .68 0 .34.34 0 0 0-.68 0" fill="#fff"/><path d="M116 30.44s1.64 2.28 2.92 2.28a4.75 4.75 0 0 0 3.19-2.28 6.58 6.58 0 0 1-6.11 0" fill="#e0bc73"/><path d="M121.12 31.2c-.38.35-.62.72-.52.82s.48-.08.87-.43a1.93 1.93 0 0 0 .53-.82 2.07 2.07 0 0 0-.88.43m-4.06 0c.39.35.62.72.53.82s-.49-.08-.88-.43a1.93 1.93 0 0 1-.53-.82 2.07 2.07 0 0 1 .88.43" fill="#c9a565"/><path d="M119.13 0h-.59c-9.69.27-17.45 7.06-17.45 15.4a25.65 25.65 0 0 0 1 6.15C103 19 106 10.78 110.17 9.63c2.18-.6 5 2.45 8.35 2.45h.64c3.29 0 7-3.34 7.11-2.71 1 3.87 7.86 6.56 9.31 10.62a14.24 14.24 0 0 0 1-4.58c0-5.29-2.9-12.17-7.9-12.74-.75-.08-1.66.2-2.38-.11s-.37-1.13-1.92-1.73a15.89 15.89 0 0 0-5.25-.83" fill="#283f48"/><path d="M133.34 21a.27.27 0 0 0-.11-.22c-1-.59-3.13-.81-6.41-.94a17.19 17.19 0 0 0-6.82 1.52h-.15a5.35 5.35 0 0 0-.73 0 5.41 5.41 0 0 0-.74 0h-.15a17.19 17.19 0 0 0-6.83-1.51c-3.28.13-5.38.35-6.41.94a.27.27 0 0 0-.11.22v1.22s.28.08.42.59.39 2.38.55 2.87a8.3 8.3 0 0 0 .9 2.31 8.81 8.81 0 0 0 4 1c1.59 0 3.91-.1 4.65-.68 1.21-.95 2.41-4.36 2.74-5a.6.6 0 0 1 .24-.26 1.29 1.29 0 0 1 .73-.19 1.27 1.27 0 0 1 .72.19.6.6 0 0 1 .24.26c.33.64 1.53 4.05 2.74 5 .74.58 3.06.66 4.65.68a8.81 8.81 0 0 0 4-1 8.3 8.3 0 0 0 .9-2.31c.16-.49.42-2.36.55-2.87s.42-.59.42-.59v-1.22m-16 2.14c-.69 2.91-1.72 4.34-2.32 4.78s-3.35.6-4 .6c-1 0-3.24-.27-4-1.39s-.83-3.62-.77-4.61a1.9 1.9 0 0 1 1.15-1.69 17.81 17.81 0 0 1 3.81-.51c.4 0 6.81-.09 6.13 2.82m13.89 4c-.8 1.12-3 1.39-4 1.39-.61 0-3.37-.16-4-.6s-1.63-1.87-2.32-4.78 5.73-2.83 6.13-2.82a17.81 17.81 0 0 1 3.81.51 1.9 1.9 0 0 1 1.16 1.68c.06 1 0 3.48-.77 4.61" fill="#344e5c"/><path d="M123.07 35a18.84 18.84 0 0 0-8.45 0 7.77 7.77 0 0 1-1.78-.43c.1.16.31.49.77 1.17a6.52 6.52 0 0 0 5.23 3.26 6.51 6.51 0 0 0 5.22-3.21c.47-.68.67-1 .77-1.17a6.84 6.84 0 0 1-1.78.43" fill="#e5bf7b"/><path d="M123.09 35.8a35.16 35.16 0 0 1-4.26.31 35.15 35.15 0 0 1-4.25-.31 12.54 12.54 0 0 0 4.07 1.2h.35a12.54 12.54 0 0 0 4.07-1.24" fill="#fff"/><path d="M79.39 72.37c-24.61 0-29.88-10.1-29.88 2A174.19 174.19 0 0 0 79.39 77a174 174 0 0 0 29.88-2.57c0-12.11-5-2-29.88-2" fill="#502d07"/><path d="M79.39 53.27c-16.5 0-29.88 8.74-29.88 19.51a195.67 195.67 0 0 0 29.88 2.28 195.5 195.5 0 0 0 29.88-2.28c0-10.77-13.37-19.51-29.88-19.51" fill="#603913"/><path d="M77.1 17.27c.19-.12-3.25-1.1-4.36 1.64-.8-.52-.92-1.25-.4-2.6a6.72 6.72 0 0 0-1.54 2.86 2.65 2.65 0 0 0 .09 1.88c.68 1.26 2.6 1.36 4.16 1.28.8 0 1.79-.76 2.59-.8-2.68-.82-.73-4.25-.54-4.26" fill="#e5be44"/><path d="M79.39 61.85c-2.77 0-6.53-.58-8.65-4-1.95-3.17-2-7.24-2-10.89 0-7.44 4.8-13.5 10.7-13.5S90.1 39.49 90.1 46.93c0 3.65-.1 7.72-2 10.89-2.13 3.45-5.89 4-8.66 4" fill="#e0c177"/><path d="M79.39 57.92c-4.07 0-8-2.59-11.15-7.3a28 28 0 0 1-4.57-14.84c0-10.14 7-18.4 15.72-18.4s15.73 8.26 15.73 18.4a28 28 0 0 1-4.57 14.84c-3.13 4.71-7.09 7.3-11.16 7.3" fill="#f1cf7f"/><path d="M80 16.18l-.37.3h-.16c-.09 0-.13-.91-.39 0L78.62 15c-8.15 0-15.89 8.15-15.89 16a24 24 0 0 0 .94 5.76c.85-2.43 4.19-9 7.59-11.19 7.61 1.08 14.83-.78 15.11-.25 3.73 7 7.38 6.16 8.74 10a13.31 13.31 0 0 0 1-4.29c0-5-2.73-11.43-7.41-12a8 8 0 0 1-2.24-.11c-.67-.29-.35-1.06-1.8-1.62A12.64 12.64 0 0 0 80 16.18" fill="#e5be44"/><path d="M98 57.33a10.85 10.85 0 0 0-2.72-1.14l-.92 1.73H64.58l-.91-1.73a7.79 7.79 0 0 0-2.43 1c-1.64.89 4.85 17.43 4.85 17.43s6.28.46 13.63.46 13.06-.46 13.06-.46S99.6 58.24 98 57.33" fill="#f1cf7f"/><path d="M93.8 35.18a.26.26 0 0 0-.12-.22c-1.05-.61-3.17-.83-6.51-1a17.54 17.54 0 0 0-6.93 1.53h-.15a9.39 9.39 0 0 0-1.5 0h-.15A17.54 17.54 0 0 0 71.51 34c-3.34.13-5.46.35-6.52 1a.27.27 0 0 0-.11.22v1.23s.29.09.43.61.4 2.41.56 2.91a8.58 8.58 0 0 0 .91 2.35 9.17 9.17 0 0 0 4.08 1c1.61 0 4-.11 4.72-.7 1.23-1 2.44-4.43 2.78-5.08a.6.6 0 0 1 .24-.26 1.54 1.54 0 0 1 1.48 0 .67.67 0 0 1 .24.26c.34.65 1.55 4.12 2.78 5.08.75.59 3.11.67 4.72.7a9.08 9.08 0 0 0 4.07-1 8.29 8.29 0 0 0 .92-2.35c.16-.5.43-2.4.56-2.91s.43-.61.43-.61v-1.23m-16.28 2.13c-.69 2.95-1.74 4.41-2.35 4.86s-3.4.6-4 .6c-1 0-3.28-.27-4.09-1.41s-.85-3.67-.78-4.68A1.93 1.93 0 0 1 67.43 35a18.35 18.35 0 0 1 3.87-.51c.4 0 6.92-.09 6.22 2.86m14.11 4c-.81 1.14-3 1.41-4.1 1.41-.62 0-3.42-.16-4-.6s-1.66-1.91-2.35-4.86 5.82-2.87 6.22-2.86a18.35 18.35 0 0 1 3.87.51 2 2 0 0 1 1.16 1.72c.07 1 0 3.54-.78 4.68" fill="#2b0e00"/><path d="M71.13 34.39a19.37 19.37 0 0 0-4 .52A2 2 0 0 0 66 36.68c-.07 1 0 3.62.8 4.79s3.1 1.44 4.2 1.44c.64 0 3.51-.16 4.13-.62s1.69-1.95 2.4-5-6-2.94-6.37-2.93m16.33.03a18.83 18.83 0 0 1 4 .53 2 2 0 0 1 1.19 1.77c.07 1 0 3.62-.8 4.79s-3.11 1.44-4.19 1.44c-.64 0-3.51-.16-4.13-.62s-1.69-1.95-2.4-5 6-2.95 6.37-2.94" fill="#603913"/><path d="M71.13 34.39a19.37 19.37 0 0 0-4 .52A2 2 0 0 0 66 36.68v.85a33.67 33.67 0 0 0 10.73 2.34 16.09 16.09 0 0 0 .81-2.55c.71-3-6-2.94-6.37-2.93m21.48 2.3a2 2 0 0 0-1.2-1.76 18.75 18.75 0 0 0-4-.53c-.41 0-7.08-.09-6.37 2.94a16.12 16.12 0 0 0 .81 2.53 33.29 33.29 0 0 0 10.74-2.42v-.76" fill="#502d07"/><path d="M71.37 16.51c.14-.18-3.43 0-3.63 2.93-.91-.24-1.26-.9-1.19-2.34a6.86 6.86 0 0 0-.55 3.2 2.6 2.6 0 0 0 .69 1.75c1 1 2.89.48 4.34-.09.75-.29 1.47-1.29 2.21-1.58-2.8.07-2-3.8-1.85-3.87m23.25 21.58c-.33 8.23-4.34 11.41-4.34 11.41l-8.44-4.2a4.26 4.26 0 0 0-2.26 1 1.91 1.91 0 0 0-.26.49 1.91 1.91 0 0 0-.26-.49 4.26 4.26 0 0 0-2.26-1l-8.45 4.2s-4-3.18-4.33-11.41c0 0-1.89 15.7-.89 18.58s8.16 11.44 10.61 11.69a23.76 23.76 0 0 0 5.58-.36 23.7 23.7 0 0 0 5.58.33c2.44-.25 9.61-8.82 10.61-11.69s-.89-18.58-.89-18.58m-13 18.48c-1.23.15-.45-2.92-1-3.26a5 5 0 0 0-2.6 0c-.55.34.23 3.41-1 3.26s-3.78-4.7-3.11-5.47 4.52-1.11 5.15-1.78a1.54 1.54 0 0 0 .26-.43 1.54 1.54 0 0 0 .26.43c.63.67 4.48 1 5.15 1.78s-1.89 5.33-3.11 5.47" fill="#e5be44"/><path d="M66.05 35.35c0 .12-.2.22-.44.22s-.44-.1-.44-.22.2-.22.44-.22.44.1.44.22m27.51 0c0 .12-.19.22-.44.22s-.44-.1-.44-.22.2-.22.44-.22.44.1.44.22" fill="#00aeef"/><path d="M83.65 49.29a17 17 0 0 0-8.62 0 6.66 6.66 0 0 1-1.81-.5c.09.18.31.57.78 1.37 1.26 2.12 2.88 3.56 5.33 3.74 2.45-.18 4.07-1.62 5.33-3.74.47-.8.68-1.19.78-1.37a5.79 5.79 0 0 1-1.81.5" fill="#e5bf7b"/><path d="M84.41 50.43a39.94 39.94 0 0 1-5.08.4 40.09 40.09 0 0 1-5.09-.4s3 1.64 4.87 1.64h.44c1.85 0 4.86-1.64 4.86-1.64" fill="#fff"/><path d="M31.45 83.8C5.54 83.8 0 73.17 0 85.92a183.61 183.61 0 0 0 31.45 2.7 183.61 183.61 0 0 0 31.45-2.7c0-12.75-5.3-2.12-31.45-2.12" fill="#10967b"/><path d="M31.45 63.7C14.08 63.7 0 72.89 0 84.23a205 205 0 0 0 31.45 2.41 205 205 0 0 0 31.45-2.41c0-11.34-14.08-20.53-31.45-20.53" fill="#42b49b"/><path d="M31.45 70.19c-2.39 0-5.65-.53-7.49-3.69-1.68-2.9-1.77-6.63-1.77-10 0-6.81 4.16-12.36 9.26-12.36s9.26 5.55 9.26 12.36c0 3.35-.08 7.08-1.77 10-1.84 3.16-5.09 3.69-7.49 3.69" fill="#e0c177"/><path d="M52.39 40.18c-.13-10.08-8.24-19.67-10-20.79s-6 0-6 0c-.25-1.12-4.61-2.49-6.72-2.62A15.86 15.86 0 0 0 17 24c-4.67 7.18-6.65 13.07-6.43 20.79s4.26 21.92 4.26 21.92a34.72 34.72 0 0 1 7.74-5 23.54 23.54 0 0 1-2.35-3 28 28 0 0 1-3.11-6.39c-1.55-.19-3-2.21-4-5.6-.72-2.37-.68-4.25.11-5.31a1.84 1.84 0 0 1 1.5-.8 4.77 4.77 0 0 1 1.12.14c1.21-8.86 7.79-15.65 15.7-15.65s14.49 6.79 15.71 15.65a4.69 4.69 0 0 1 1.11-.14 1.83 1.83 0 0 1 1.5.8c.79 1.06.83 2.94.11 5.31-1 3.39-2.48 5.41-4 5.6a28.06 28.06 0 0 1-3.12 6.39 24.07 24.07 0 0 1-2.1 2.72 22.85 22.85 0 0 1 7.27 5.31c3.61-3.62 4.61-16.44 4.49-26.53" fill="#283f48"/><path d="M48.83 40.36a1.73 1.73 0 0 0-.93 0C47 30.7 40 23.14 31.45 23.14S15.9 30.7 15 40.38a1.73 1.73 0 0 0-.93 0c-1.61.45-2.17 3.48-1.26 6.76.81 2.88 2.48 5 4 5.18a28.88 28.88 0 0 0 2.94 5.82c3.29 5 7.46 7.69 11.74 7.69s8.45-2.73 11.74-7.69a28.88 28.88 0 0 0 2.94-5.82c1.48-.18 3.15-2.3 4-5.18.91-3.28.35-6.31-1.26-6.76" fill="#f1cf7f"/><path d="M48.1 40.34a52.07 52.07 0 0 0-1.78-12c-.86-2.87-2.08-6-4.76-7.31a11.14 11.14 0 0 0-3.42-.89c-3.14-.46-6.31-.78-9.48-1a8.68 8.68 0 0 0-3 .19A13.5 13.5 0 0 0 23 20.82a38.1 38.1 0 0 0-3.7 2.07 11.2 11.2 0 0 0-3.69 5.21 33.71 33.71 0 0 0-1.46 6.3l-1 6.26c1.69-.33 2.3.25 3.44-1 .45-.52 1.8-2.58 2.26-3.1 1.44-1.62 3.68-2.73 4.23-4.83a7.3 7.3 0 0 1-1.89 5.71 25.81 25.81 0 0 0 3.63-3.24c1.34-1.19 2.92-2 4.37-3.09a8.71 8.71 0 0 0 3.37-4 6.26 6.26 0 0 1-1.12 5.58 16.55 16.55 0 0 0 5.86-8c.08 1.71.91 3.28 1.48 4.9a16.79 16.79 0 0 1 .51 9.29c1.87-1.61 2.12-4.35 2.24-6.8.66 2.22 5.05 10.33 6.63 8.3" fill="#283f48"/><path fill="#e6e7e8" d="M33.237 70.283l7.276-7.276 4.392 4.391-7.277 7.276zm-14.934-2.881l4.391-4.39 7.276 7.275-4.39 4.391z"/><path d="M32.77 74.68a1.32 1.32 0 1 1-1.32-1.32 1.32 1.32 0 0 1 1.32 1.32m0 3.64A1.32 1.32 0 1 1 31.45 77a1.33 1.33 0 0 1 1.32 1.32" fill="#fff"/><path d="M28.42 51.33s1.64 2.28 2.92 2.28a4.7 4.7 0 0 0 3.19-2.28 6.58 6.58 0 0 1-6.11 0" fill="#e0bc73"/><path d="M26.76 44.41c.86.54-1.37 1.64-3.19 1.53-1.65-.11-3.1-.84-3.1-1.46s1.45-1.15 3.1-1.15a5.51 5.51 0 0 1 3.19 1.08" fill="#fff"/><path d="M23.58 42.74c1.59-.18 3.4 1.9 3.4 1.9a8.16 8.16 0 0 0-2.15-.77 1.17 1.17 0 0 1 .09.45 1.25 1.25 0 1 1-2.46-.27 3 3 0 0 0-1.28 1c-.81-.13-1.26-1.67-1.26-1.67.81.22 2.08-.41 3.66-.59" fill="#71593b"/><path d="M24.42 44.15a.34.34 0 1 1-.34-.34.34.34 0 0 1 .34.34m11.72.26c-.86.54 1.37 1.64 3.19 1.53 1.65-.11 3.1-.84 3.1-1.46s-1.45-1.15-3.1-1.15a5.51 5.51 0 0 0-3.19 1.08" fill="#fff"/><path d="M39.32 42.74c-1.59-.18-3.4 1.9-3.4 1.9a8.16 8.16 0 0 1 2.15-.77 1.17 1.17 0 0 0-.09.45 1.25 1.25 0 1 0 2.46-.27 2.9 2.9 0 0 1 1.28 1c.81-.13 1.26-1.67 1.26-1.67-.81.22-2.08-.41-3.66-.59" fill="#71593b"/><path d="M39.32 44.12a.34.34 0 1 0 .67 0 .34.34 0 0 0-.67 0" fill="#fff"/><path d="M35.05 56.61c-.38-.07-3.26-.88-3.52 0h-.14c-.26-.88-3.14-.07-3.52 0a5.37 5.37 0 0 1-1.51-.42c.08.15.26.49.65 1.17 1 1.82 2.4 3.06 4.44 3.21 2-.15 3.39-1.39 4.44-3.21.39-.68.57-1 .65-1.17a5.28 5.28 0 0 1-1.51.42" fill="#c14646"/><path d="M35.07 57.41a27.11 27.11 0 0 1-3.62.3 27.11 27.11 0 0 1-3.62-.3 9.63 9.63 0 0 0 3.47 1.24h.31a9.64 9.64 0 0 0 3.46-1.24" fill="#fff"/><path d="M19.46 40.51s8.41-1.74 8.9 1.58c0 0-1 .33-1.46 0s-1.25-1.49-7.44-1.58m24.62 0s-8.4-1.74-8.89 1.58c0 0 1 .33 1.46 0s1.25-1.49 7.43-1.58" fill="#e0bc73"/></g></g></svg>